<?xml version="1.0" encoding="utf-8" standalone="no"?>
<!DOCTYPE svg PUBLIC "-//W3C//DTD SVG 1.1//EN"
  "http://www.w3.org/Graphics/SVG/1.1/DTD/svg11.dtd">
<!-- Created with matplotlib (http://matplotlib.org/) -->
<svg height="288pt" version="1.1" viewBox="0 0 432 288" width="432pt" xmlns="http://www.w3.org/2000/svg" xmlns:xlink="http://www.w3.org/1999/xlink">
 <defs>
  <style type="text/css">
*{stroke-linecap:butt;stroke-linejoin:round;}
  </style>
 </defs>
 <g id="figure_1">
  <g id="patch_1">
   <path d="M 0 288 
L 432 288 
L 432 0 
L 0 0 
z
" style="fill:#ba55d3;"/>
  </g>
  <g id="axes_1">
   <g id="patch_2">
    <path d="M 51.253125 243.41875 
L 417.7 243.41875 
L 417.7 14.3 
L 51.253125 14.3 
z
" style="fill:#ba55d3;"/>
   </g>
   <g id="matplotlib.axis_1">
    <g id="xtick_1">
     <g id="line2d_1">
      <defs>
       <path d="M 0 0 
L 0 3.5 
" id="m465bb3b7d9" style="stroke:#000000;stroke-width:0.8;"/>
      </defs>
      <g>
       <use style="stroke:#000000;stroke-width:0.8;" x="51.253125" xlink:href="#m465bb3b7d9" y="243.41875"/>
      </g>
     </g>
     <g id="text_1">
      <!-- 0.0 -->
      <defs>
       <path d="M 3.125 29.296875 
Q 3.90625 50 6.4375 56.046875 
Q 8.984375 62.109375 13.671875 66.015625 
Q 18.359375 69.921875 25.1875 69.921875 
Q 32.03125 69.921875 37.109375 64.25 
Q 42.1875 58.59375 43.75 50 
Q 45.3125 41.40625 44.71875 30.265625 
Q 44.140625 19.140625 40.8125 12.109375 
Q 37.5 5.078125 30.859375 2.34375 
Q 24.21875 -0.390625 17.578125 2.921875 
Q 10.9375 6.25 8.203125 11.71875 
Q 5.46875 17.1875 4.296875 23.234375 
Q 3.125 29.296875 3.90625 50 
z
M 12.890625 52.734375 
Q 10.546875 31.25 12.5 22.84375 
Q 14.453125 14.453125 18.9375 10.9375 
Q 23.4375 7.421875 28.125 9.5625 
Q 32.8125 11.71875 34.953125 18.15625 
Q 37.109375 24.609375 37.109375 32.21875 
Q 37.109375 39.84375 36.515625 46.09375 
Q 35.9375 52.34375 33 57.421875 
Q 30.078125 62.5 25.1875 62.6875 
Q 20.3125 62.890625 16.59375 57.8125 
Q 12.890625 52.734375 10.546875 31.25 
z
" id="SimHei-30"/>
       <path d="M 16.796875 1.953125 
L 7.8125 1.953125 
L 7.8125 10.546875 
L 16.796875 10.546875 
z
" id="SimHei-2e"/>
      </defs>
      <g transform="translate(42.253125 258.66875)scale(0.12 -0.12)">
       <use xlink:href="#SimHei-30"/>
       <use x="50" xlink:href="#SimHei-2e"/>
       <use x="100" xlink:href="#SimHei-30"/>
      </g>
     </g>
    </g>
    <g id="xtick_2">
     <g id="line2d_2">
      <g>
       <use style="stroke:#000000;stroke-width:0.8;" x="95.191599" xlink:href="#m465bb3b7d9" y="243.41875"/>
      </g>
     </g>
     <g id="text_2">
      <!-- 2.5 -->
      <defs>
       <path d="M 4.6875 3.90625 
Q 5.078125 9.765625 10.15625 14.453125 
Q 15.234375 19.140625 23.046875 29.09375 
Q 30.859375 39.0625 33.203125 44.53125 
Q 35.546875 50 34.953125 53.90625 
Q 34.375 57.8125 31.25 60.34375 
Q 28.125 62.890625 24.015625 62.5 
Q 19.921875 62.109375 16.203125 59.375 
Q 12.5 56.640625 10.546875 51.171875 
L 3.125 52.34375 
Q 6.25 61.328125 11.125 65.421875 
Q 16.015625 69.53125 22.65625 69.921875 
Q 26.5625 70.3125 29.6875 69.71875 
Q 32.8125 69.140625 36.125 66.984375 
Q 39.453125 64.84375 41.59375 60.546875 
Q 43.75 56.25 43.15625 50.1875 
Q 42.578125 44.140625 37.109375 35.734375 
Q 31.640625 27.34375 16.015625 9.375 
L 44.140625 9.375 
L 44.140625 2.34375 
L 4.6875 2.34375 
z
" id="SimHei-32"/>
       <path d="M 8.59375 20.703125 
Q 11.328125 10.15625 17.96875 8.984375 
Q 24.609375 7.8125 28.703125 10.34375 
Q 32.8125 12.890625 34.5625 16.984375 
Q 36.328125 21.09375 36.125 26.171875 
Q 35.9375 31.25 33.390625 34.765625 
Q 30.859375 38.28125 26.953125 39.453125 
Q 23.046875 40.625 18.15625 39.453125 
Q 13.28125 38.28125 10.15625 33.984375 
L 3.515625 34.765625 
Q 4.296875 37.109375 10.9375 68.359375 
L 41.796875 68.359375 
L 41.796875 61.328125 
L 16.796875 61.328125 
Q 14.84375 50.78125 12.890625 44.53125 
Q 18.75 47.265625 23.828125 47.0625 
Q 28.90625 46.875 33.59375 44.71875 
Q 38.28125 42.578125 40.421875 38.859375 
Q 42.578125 35.15625 43.546875 31.4375 
Q 44.53125 27.734375 44.328125 23.4375 
Q 44.140625 19.140625 42.578125 14.640625 
Q 41.015625 10.15625 37.890625 7.21875 
Q 34.765625 4.296875 30.265625 2.53125 
Q 25.78125 0.78125 19.921875 1.171875 
Q 14.0625 1.5625 8.78125 5.46875 
Q 3.515625 9.375 1.5625 18.75 
z
" id="SimHei-35"/>
      </defs>
      <g transform="translate(86.191599 258.66875)scale(0.12 -0.12)">
       <use xlink:href="#SimHei-32"/>
       <use x="50" xlink:href="#SimHei-2e"/>
       <use x="100" xlink:href="#SimHei-35"/>
      </g>
     </g>
    </g>
    <g id="xtick_3">
     <g id="line2d_3">
      <g>
       <use style="stroke:#000000;stroke-width:0.8;" x="139.130073" xlink:href="#m465bb3b7d9" y="243.41875"/>
      </g>
     </g>
     <g id="text_3">
      <!-- 5.0 -->
      <g transform="translate(130.130073 258.66875)scale(0.12 -0.12)">
       <use xlink:href="#SimHei-35"/>
       <use x="50" xlink:href="#SimHei-2e"/>
       <use x="100" xlink:href="#SimHei-30"/>
      </g>
     </g>
    </g>
    <g id="xtick_4">
     <g id="line2d_4">
      <g>
       <use style="stroke:#000000;stroke-width:0.8;" x="183.068548" xlink:href="#m465bb3b7d9" y="243.41875"/>
      </g>
     </g>
     <g id="text_4">
      <!-- 7.5 -->
      <defs>
       <path d="M 13.28125 2.34375 
Q 20.3125 32.03125 37.890625 61.328125 
L 4.296875 61.328125 
L 4.296875 68.359375 
L 46.09375 68.359375 
L 46.09375 61.71875 
Q 27.734375 32.03125 21.875 2.34375 
L 13.28125 2.34375 
z
" id="SimHei-37"/>
      </defs>
      <g transform="translate(174.068548 258.66875)scale(0.12 -0.12)">
       <use xlink:href="#SimHei-37"/>
       <use x="50" xlink:href="#SimHei-2e"/>
       <use x="100" xlink:href="#SimHei-35"/>
      </g>
     </g>
    </g>
    <g id="xtick_5">
     <g id="line2d_5">
      <g>
       <use style="stroke:#000000;stroke-width:0.8;" x="227.007022" xlink:href="#m465bb3b7d9" y="243.41875"/>
      </g>
     </g>
     <g id="text_5">
      <!-- 10.0 -->
      <defs>
       <path d="M 21.875 56.25 
Q 16.796875 51.171875 8.984375 46.484375 
L 8.984375 53.90625 
Q 18.75 60.546875 25 69.53125 
L 29.6875 69.53125 
L 29.6875 2.34375 
L 21.875 2.34375 
z
" id="SimHei-31"/>
      </defs>
      <g transform="translate(215.007022 258.66875)scale(0.12 -0.12)">
       <use xlink:href="#SimHei-31"/>
       <use x="50" xlink:href="#SimHei-30"/>
       <use x="100" xlink:href="#SimHei-2e"/>
       <use x="150" xlink:href="#SimHei-30"/>
      </g>
     </g>
    </g>
    <g id="xtick_6">
     <g id="line2d_6">
      <g>
       <use style="stroke:#000000;stroke-width:0.8;" x="270.945496" xlink:href="#m465bb3b7d9" y="243.41875"/>
      </g>
     </g>
     <g id="text_6">
      <!-- 12.5 -->
      <g transform="translate(258.945496 258.66875)scale(0.12 -0.12)">
       <use xlink:href="#SimHei-31"/>
       <use x="50" xlink:href="#SimHei-32"/>
       <use x="100" xlink:href="#SimHei-2e"/>
       <use x="150" xlink:href="#SimHei-35"/>
      </g>
     </g>
    </g>
    <g id="xtick_7">
     <g id="line2d_7">
      <g>
       <use style="stroke:#000000;stroke-width:0.8;" x="314.88397" xlink:href="#m465bb3b7d9" y="243.41875"/>
      </g>
     </g>
     <g id="text_7">
      <!-- 15.0 -->
      <g transform="translate(302.88397 258.66875)scale(0.12 -0.12)">
       <use xlink:href="#SimHei-31"/>
       <use x="50" xlink:href="#SimHei-35"/>
       <use x="100" xlink:href="#SimHei-2e"/>
       <use x="150" xlink:href="#SimHei-30"/>
      </g>
     </g>
    </g>
    <g id="xtick_8">
     <g id="line2d_8">
      <g>
       <use style="stroke:#000000;stroke-width:0.8;" x="358.822445" xlink:href="#m465bb3b7d9" y="243.41875"/>
      </g>
     </g>
     <g id="text_8">
      <!-- 17.5 -->
      <g transform="translate(346.822445 258.66875)scale(0.12 -0.12)">
       <use xlink:href="#SimHei-31"/>
       <use x="50" xlink:href="#SimHei-37"/>
       <use x="100" xlink:href="#SimHei-2e"/>
       <use x="150" xlink:href="#SimHei-35"/>
      </g>
     </g>
    </g>
    <g id="xtick_9">
     <g id="line2d_9">
      <g>
       <use style="stroke:#000000;stroke-width:0.8;" x="402.760919" xlink:href="#m465bb3b7d9" y="243.41875"/>
      </g>
     </g>
     <g id="text_9">
      <!-- 20.0 -->
      <g transform="translate(390.760919 258.66875)scale(0.12 -0.12)">
       <use xlink:href="#SimHei-32"/>
       <use x="50" xlink:href="#SimHei-30"/>
       <use x="100" xlink:href="#SimHei-2e"/>
       <use x="150" xlink:href="#SimHei-30"/>
      </g>
     </g>
    </g>
    <g id="text_10">
     <!-- 横向收敛变形(D/‰) -->
     <defs>
      <path d="M 74.609375 69.921875 
Q 84.765625 69.921875 89.453125 70.3125 
L 89.453125 64.0625 
Q 84.375 64.453125 74.609375 64.453125 
L 74.609375 53.515625 
L 83.203125 53.515625 
Q 89.453125 53.515625 94.53125 53.90625 
L 94.53125 47.65625 
Q 89.0625 48.046875 83.203125 48.046875 
L 65.234375 48.046875 
L 65.234375 41.40625 
L 86.328125 41.40625 
Q 85.9375 35.9375 85.9375 25.390625 
Q 85.9375 15.234375 86.328125 9.765625 
L 39.0625 9.765625 
Q 39.453125 14.0625 39.453125 25 
Q 39.453125 35.9375 39.0625 41.40625 
L 58.59375 41.40625 
L 58.59375 48.046875 
L 44.53125 48.046875 
Q 39.0625 48.046875 35.15625 47.65625 
L 35.15625 53.90625 
Q 39.453125 53.515625 44.53125 53.515625 
L 50 53.515625 
L 50 64.453125 
Q 43.359375 64.453125 37.890625 64.0625 
L 37.890625 70.3125 
Q 43.75 69.921875 50 69.921875 
Q 50 75.78125 49.609375 79.6875 
L 56.640625 79.6875 
Q 56.25 76.171875 56.25 69.921875 
L 68.359375 69.921875 
Q 68.359375 76.5625 67.96875 80.46875 
L 75 80.46875 
Q 74.609375 76.953125 74.609375 69.921875 
z
M 17.1875 69.140625 
Q 17.1875 73.4375 16.796875 79.6875 
L 24.21875 79.6875 
Q 23.828125 74.609375 23.828125 69.140625 
L 23.828125 59.375 
Q 27.734375 59.375 32.8125 59.765625 
L 32.8125 53.125 
Q 27.734375 53.515625 23.828125 53.515625 
L 23.828125 36.328125 
Q 26.171875 38.28125 27.734375 40.234375 
Q 31.640625 35.15625 35.9375 29.296875 
Q 33.59375 27.734375 30.46875 25 
Q 26.5625 31.25 23.828125 34.375 
L 23.828125 3.515625 
Q 23.828125 -3.90625 24.21875 -9.765625 
L 16.796875 -9.765625 
Q 17.1875 -4.296875 17.1875 3.515625 
L 17.1875 35.546875 
Q 15.625 29.6875 13.28125 24.796875 
Q 10.9375 19.921875 7.8125 14.453125 
Q 5.859375 17.96875 2.734375 21.875 
Q 8.203125 28.515625 11.328125 36.328125 
Q 14.453125 44.140625 16.015625 53.515625 
Q 10.15625 53.515625 5.859375 53.125 
L 5.859375 59.765625 
Q 10.15625 59.375 17.1875 59.375 
z
M 72.265625 8.984375 
Q 76.5625 6.640625 81.4375 3.90625 
Q 86.328125 1.171875 92.1875 -2.734375 
Q 89.0625 -6.640625 87.5 -9.375 
Q 78.125 -2.734375 75.96875 -1.5625 
Q 73.828125 -0.390625 68.359375 2.34375 
Q 70.703125 5.078125 72.265625 8.984375 
z
M 57.421875 2.34375 
Q 52.734375 0 47.453125 -3.703125 
Q 42.1875 -7.421875 36.328125 -10.15625 
Q 34.765625 -6.25 32.421875 -3.515625 
Q 37.890625 -1.171875 41.796875 1.171875 
Q 45.703125 3.515625 51.5625 8.59375 
Q 54.296875 5.46875 57.421875 2.34375 
z
M 68.359375 53.515625 
L 68.359375 64.453125 
L 56.25 64.453125 
L 56.25 53.515625 
z
M 79.6875 15.234375 
L 79.6875 23.046875 
L 65.234375 23.046875 
L 65.234375 15.234375 
z
M 79.6875 28.125 
L 79.6875 35.9375 
L 65.234375 35.9375 
L 65.234375 28.125 
z
M 58.59375 28.125 
L 58.59375 35.9375 
L 45.703125 35.9375 
L 45.703125 28.125 
z
M 58.59375 15.234375 
L 58.59375 23.046875 
L 45.703125 23.046875 
L 45.703125 15.234375 
z
" id="SimHei-6a2a"/>
      <path d="M 31.640625 64.84375 
Q 33.203125 68.75 34.171875 72.453125 
Q 35.15625 76.171875 35.9375 80.859375 
Q 42.96875 78.515625 45.703125 78.125 
Q 41.40625 68.75 39.84375 64.84375 
L 91.40625 64.84375 
Q 91.015625 57.8125 91.015625 51.171875 
L 91.015625 3.515625 
Q 91.015625 -5.078125 85.734375 -6.4375 
Q 80.46875 -7.8125 73.4375 -8.203125 
Q 72.265625 -2.734375 69.53125 0.78125 
Q 79.296875 0.390625 81.4375 0.78125 
Q 83.59375 1.171875 83.203125 5.078125 
L 83.203125 57.8125 
L 19.53125 57.8125 
L 19.53125 -7.8125 
L 11.328125 -7.8125 
Q 11.328125 2.34375 11.71875 8.59375 
L 11.71875 50.78125 
Q 11.328125 57.8125 11.328125 64.84375 
L 31.640625 64.84375 
z
M 69.53125 44.140625 
Q 69.140625 39.0625 69.140625 33.984375 
L 69.140625 25 
Q 69.140625 19.921875 69.53125 14.0625 
L 31.640625 14.0625 
Q 32.03125 19.53125 32.03125 25 
L 32.03125 34.765625 
Q 32.03125 39.453125 31.640625 44.140625 
L 69.53125 44.140625 
z
M 60.9375 20.3125 
L 60.9375 37.890625 
L 39.84375 37.890625 
L 39.84375 20.3125 
z
" id="SimHei-5411"/>
      <path d="M 66.40625 78.90625 
Q 64.453125 75.78125 58.59375 63.28125 
L 80.46875 63.28125 
Q 88.671875 63.28125 95.703125 63.671875 
L 95.703125 56.25 
Q 88.671875 56.640625 82.8125 56.640625 
Q 81.640625 41.015625 78.515625 30.859375 
Q 75.390625 20.703125 71.484375 14.0625 
Q 76.5625 7.8125 82.609375 4.296875 
Q 88.671875 0.78125 96.875 -1.171875 
Q 92.1875 -4.296875 90.625 -8.59375 
Q 82.8125 -5.46875 77.34375 -1.5625 
Q 71.875 2.34375 66.796875 8.203125 
Q 59.375 0 43.359375 -9.765625 
Q 41.40625 -6.640625 35.9375 -3.515625 
Q 51.171875 2.34375 61.71875 14.453125 
Q 58.984375 20.703125 56.4375 27.921875 
Q 53.90625 35.15625 50.78125 46.875 
Q 46.484375 38.28125 44.140625 35.546875 
Q 41.40625 37.5 37.890625 39.453125 
Q 43.359375 47.265625 49.015625 59.953125 
Q 54.6875 72.65625 56.640625 82.03125 
Q 61.328125 80.078125 66.40625 78.90625 
z
M 15.234375 66.796875 
Q 14.453125 61.71875 14.453125 53.90625 
L 14.453125 24.609375 
L 27.734375 26.953125 
L 27.734375 69.140625 
Q 27.734375 74.609375 27.34375 80.46875 
L 35.15625 80.46875 
Q 34.765625 75.78125 34.765625 69.53125 
L 34.765625 4.6875 
Q 34.765625 -0.78125 35.15625 -8.59375 
L 27.34375 -8.59375 
Q 27.734375 -0.390625 27.734375 5.46875 
L 27.734375 21.09375 
Q 9.765625 16.40625 7.8125 14.453125 
Q 5.859375 17.578125 3.515625 21.09375 
Q 7.03125 23.046875 7.03125 28.125 
L 7.03125 55.859375 
Q 7.03125 61.328125 6.640625 66.796875 
L 15.234375 66.796875 
z
M 58.203125 49.21875 
Q 59.375 42.1875 61.90625 34.5625 
Q 64.453125 26.953125 67.1875 21.484375 
Q 73.828125 33.59375 75.390625 56.640625 
L 55.859375 56.640625 
Q 53.125 51.171875 51.5625 48.4375 
z
" id="SimHei-6536"/>
      <path d="M 55.078125 36.328125 
Q 52.734375 39.0625 48.828125 41.796875 
Q 55.078125 49.21875 58.984375 59.953125 
Q 62.890625 70.703125 64.453125 80.859375 
Q 67.96875 79.6875 73.4375 78.125 
Q 72.265625 77.734375 70.890625 73.625 
Q 69.53125 69.53125 67.1875 62.890625 
L 87.5 62.890625 
Q 91.015625 62.890625 95.3125 63.28125 
L 95.3125 55.859375 
Q 89.453125 56.25 86.328125 56.25 
Q 85.15625 44.53125 83.203125 33.78125 
Q 81.25 23.046875 76.5625 12.5 
Q 83.59375 3.90625 96.875 -0.78125 
Q 93.359375 -4.296875 91.40625 -8.984375 
Q 78.90625 -1.171875 72.265625 6.640625 
Q 64.0625 -3.125 50.78125 -10.546875 
Q 48.4375 -5.46875 45.703125 -2.734375 
Q 58.59375 1.171875 67.578125 12.109375 
Q 63.671875 19.140625 60.9375 26.359375 
Q 58.203125 33.59375 57.03125 39.84375 
L 55.078125 36.328125 
z
M 46.484375 45.703125 
Q 41.40625 46.09375 32.421875 46.09375 
Q 22.65625 46.09375 18.359375 45.703125 
L 18.359375 51.953125 
Q 14.0625 46.875 8.984375 42.96875 
Q 6.640625 46.484375 2.734375 48.828125 
Q 11.71875 55.078125 19.328125 65.421875 
Q 26.953125 75.78125 29.296875 82.421875 
Q 33.984375 79.6875 37.5 78.125 
Q 36.328125 76.5625 34.375 73.4375 
Q 44.921875 67.1875 55.078125 60.15625 
Q 51.953125 55.859375 49.609375 52.734375 
Q 46.09375 56.640625 40.8125 60.9375 
Q 35.546875 65.234375 30.859375 68.359375 
Q 25.78125 61.328125 19.140625 52.734375 
Q 23.4375 52.34375 32.421875 52.34375 
Q 41.40625 52.34375 46.484375 52.734375 
z
M 51.953125 38.28125 
Q 49.609375 35.15625 47.65625 26.953125 
Q 45.703125 18.75 43.359375 9.765625 
Q 48.046875 10.546875 54.296875 12.109375 
Q 53.125 8.984375 53.90625 5.078125 
Q 35.9375 2.34375 25 0 
Q 14.0625 -2.34375 11.328125 -3.90625 
Q 10.15625 1.171875 8.59375 5.078125 
Q 17.578125 5.46875 36.328125 8.59375 
Q 38.671875 17.578125 40.625 26.953125 
Q 42.578125 36.328125 42.96875 40.625 
Q 46.875 39.453125 51.953125 38.28125 
z
M 61.328125 46.875 
Q 63.28125 39.0625 66.59375 30.078125 
Q 69.921875 21.09375 71.875 18.359375 
Q 75.390625 26.953125 76.953125 35.734375 
Q 78.515625 44.53125 79.296875 56.25 
L 65.234375 56.25 
Q 64.0625 52.734375 61.328125 46.875 
z
M 16.015625 36.71875 
Q 19.921875 25.390625 22.65625 14.453125 
Q 18.75 13.28125 15.625 12.109375 
Q 11.328125 29.296875 8.984375 33.984375 
Q 12.890625 35.15625 16.015625 36.71875 
z
M 31.25 39.453125 
Q 33.59375 30.859375 35.546875 19.53125 
Q 32.03125 19.140625 28.515625 17.96875 
Q 27.734375 23.828125 24.609375 37.890625 
Q 27.734375 38.671875 31.25 39.453125 
z
" id="SimHei-655b"/>
      <path d="M 81.25 30.859375 
Q 77.34375 25 70.890625 17.765625 
Q 64.453125 10.546875 57.421875 5.859375 
Q 61.328125 3.515625 71.875 1.359375 
Q 82.421875 -0.78125 93.75 -1.171875 
Q 89.0625 -6.25 88.28125 -9.765625 
Q 75.78125 -8.203125 65.8125 -4.875 
Q 55.859375 -1.5625 50.390625 1.953125 
Q 43.75 -1.953125 33.59375 -5.078125 
Q 23.4375 -8.203125 10.9375 -10.546875 
Q 9.375 -6.640625 6.25 -2.734375 
Q 14.84375 -2.34375 26.359375 0.1875 
Q 37.890625 2.734375 44.140625 5.859375 
Q 35.546875 12.109375 26.171875 24.609375 
Q 21.09375 24.609375 15.625 24.21875 
L 15.625 31.25 
Q 22.65625 30.859375 32.421875 30.859375 
z
M 50.390625 82.421875 
Q 53.125 76.5625 55.46875 69.921875 
L 73.046875 69.921875 
Q 84.375 69.921875 93.359375 70.3125 
L 93.359375 62.890625 
Q 83.984375 63.28125 73.828125 63.28125 
L 64.453125 63.28125 
L 64.453125 46.09375 
Q 64.453125 39.84375 64.84375 33.59375 
L 56.25 33.59375 
Q 56.640625 39.84375 56.640625 46.09375 
L 56.640625 63.28125 
L 42.96875 63.28125 
L 42.96875 46.09375 
Q 42.96875 41.796875 43.359375 33.59375 
L 34.765625 33.59375 
Q 35.15625 41.796875 35.15625 46.09375 
L 35.15625 63.28125 
L 26.5625 63.28125 
Q 15.234375 63.28125 6.640625 62.890625 
L 6.640625 70.3125 
Q 14.84375 69.921875 26.5625 69.921875 
L 46.484375 69.921875 
Q 45.703125 73.046875 42.1875 80.078125 
Q 46.09375 80.46875 50.390625 82.421875 
z
M 34.375 24.609375 
Q 41.40625 15.234375 50.78125 9.375 
Q 60.15625 15.625 66.796875 24.609375 
L 34.375 24.609375 
z
M 75.78125 58.59375 
Q 83.984375 51.171875 92.96875 41.796875 
Q 89.84375 39.453125 85.9375 35.9375 
Q 79.296875 43.75 69.53125 53.125 
Q 73.046875 55.859375 75.78125 58.59375 
z
M 28.515625 54.6875 
Q 26.5625 52.734375 22.265625 47.265625 
Q 17.96875 41.796875 12.890625 35.9375 
Q 8.984375 38.671875 5.859375 40.625 
Q 15.234375 49.21875 20.3125 59.765625 
Q 23.828125 57.03125 28.515625 54.6875 
z
" id="SimHei-53d8"/>
      <path d="M 42.96875 75.78125 
Q 52.34375 75.78125 57.421875 76.171875 
L 57.421875 69.140625 
Q 53.125 69.53125 46.09375 69.53125 
L 46.09375 42.1875 
Q 54.296875 42.1875 58.203125 42.578125 
L 58.203125 35.15625 
Q 54.6875 35.546875 46.09375 35.546875 
L 46.09375 7.8125 
Q 46.09375 -0.78125 46.484375 -5.46875 
L 38.671875 -5.46875 
Q 39.0625 0 39.0625 7.421875 
L 39.0625 35.546875 
L 25.78125 35.546875 
Q 25 16.796875 20.703125 6.828125 
Q 16.40625 -3.125 12.890625 -7.8125 
Q 8.59375 -4.6875 4.6875 -3.90625 
Q 10.9375 2.34375 14.640625 11.90625 
Q 18.359375 21.484375 18.75 35.546875 
Q 12.109375 35.546875 6.640625 35.15625 
L 6.640625 42.578125 
Q 12.109375 42.1875 19.140625 42.1875 
L 19.140625 69.53125 
Q 12.5 69.53125 9.375 69.140625 
L 9.375 76.171875 
Q 12.5 75.78125 21.484375 75.78125 
z
M 95.3125 19.921875 
Q 91.40625 16.40625 80.46875 7.21875 
Q 69.53125 -1.953125 59.375 -8.203125 
Q 57.03125 -4.6875 53.125 -1.5625 
Q 63.28125 2.734375 73.828125 11.71875 
Q 84.375 20.703125 87.890625 25.78125 
Q 90.625 22.65625 95.3125 19.921875 
z
M 39.0625 42.1875 
L 39.0625 69.53125 
L 26.171875 69.53125 
L 26.171875 42.1875 
z
M 91.796875 46.484375 
Q 88.28125 44.140625 81.046875 35.9375 
Q 73.828125 27.734375 60.9375 18.359375 
Q 58.59375 21.484375 54.296875 24.21875 
Q 65.234375 30.46875 72.265625 37.6875 
Q 79.296875 44.921875 83.984375 51.953125 
Q 89.0625 47.65625 91.796875 46.484375 
z
M 88.671875 75 
Q 84.765625 71.484375 79.09375 63.859375 
Q 73.4375 56.25 63.671875 46.484375 
Q 60.15625 49.21875 56.640625 51.171875 
Q 65.234375 58.59375 69.921875 64.453125 
Q 74.609375 70.3125 80.078125 79.6875 
Q 82.03125 78.515625 88.671875 75 
z
" id="SimHei-5f62"/>
      <path d="M 46.484375 -3.125 
L 42.1875 -7.421875 
Q 32.421875 1.953125 27.53125 12.109375 
Q 22.65625 22.265625 22.65625 35.15625 
Q 22.65625 48.046875 27.53125 58.203125 
Q 32.421875 68.359375 42.1875 78.125 
L 46.484375 73.828125 
Q 37.5 65.234375 33 56.046875 
Q 28.515625 46.875 28.515625 35.15625 
Q 28.515625 23.4375 33 14.25 
Q 37.5 5.078125 46.484375 -3.125 
z
" id="SimHei-28"/>
      <path d="M 45.703125 35.15625 
Q 45.703125 17.1875 38.078125 9.5625 
Q 30.46875 1.953125 17.578125 1.953125 
L 4.296875 1.953125 
L 4.296875 68.75 
L 17.578125 68.75 
Q 32.03125 68.75 38.859375 60.9375 
Q 45.703125 53.125 45.703125 35.15625 
z
M 36.328125 35.15625 
Q 36.328125 49.609375 31.640625 55.46875 
Q 26.953125 61.328125 17.578125 61.328125 
L 13.28125 61.328125 
L 13.28125 9.375 
L 17.578125 9.375 
Q 26.953125 9.375 31.640625 15.03125 
Q 36.328125 20.703125 36.328125 35.15625 
z
" id="SimHei-44"/>
      <path d="M 46.875 71.09375 
L 5.46875 -2.734375 
L 1.5625 -0.390625 
L 42.96875 73.4375 
z
" id="SimHei-2f"/>
      <path d="M 13.671875 -1.171875 
L 8.984375 1.171875 
L 66.015625 77.734375 
L 70.703125 75.390625 
z
M 83.203125 33.984375 
Q 91.40625 30.078125 92.765625 25.78125 
Q 94.140625 21.484375 94.140625 15.421875 
Q 94.140625 9.375 92.1875 4.484375 
Q 90.234375 -0.390625 86.515625 -1.75 
Q 82.8125 -3.125 78.703125 -1.75 
Q 74.609375 -0.390625 72.453125 4.484375 
Q 70.3125 9.375 70.3125 15.234375 
Q 70.3125 21.09375 72.265625 25.78125 
Q 74.21875 30.46875 78.703125 32.21875 
Q 83.203125 33.984375 91.40625 30.078125 
z
M 86.328125 3.125 
Q 89.0625 9.765625 89.0625 15.625 
Q 89.0625 21.484375 87.6875 24.609375 
Q 86.328125 27.734375 82.609375 27.734375 
Q 78.90625 27.734375 77.140625 24.609375 
Q 75.390625 21.484375 75.390625 15.625 
Q 75.390625 9.765625 77.140625 6.4375 
Q 78.90625 3.125 82.609375 3.125 
Q 86.328125 3.125 89.0625 9.765625 
z
M 19.921875 75 
Q 28.125 71.09375 29.484375 66.796875 
Q 30.859375 62.5 30.859375 56.4375 
Q 30.859375 50.390625 28.90625 45.5 
Q 26.953125 40.625 23.234375 39.25 
Q 19.53125 37.890625 15.421875 39.25 
Q 11.328125 40.625 9.171875 45.5 
Q 7.03125 50.390625 7.03125 56.25 
Q 7.03125 62.109375 8.984375 66.796875 
Q 10.9375 71.484375 15.421875 73.234375 
Q 19.921875 75 28.125 71.09375 
z
M 23.046875 44.140625 
Q 25.78125 50.78125 25.78125 56.640625 
Q 25.78125 62.5 24.40625 65.625 
Q 23.046875 68.75 19.328125 68.75 
Q 15.625 68.75 13.859375 65.625 
Q 12.109375 62.5 12.109375 56.640625 
Q 12.109375 50.78125 13.859375 47.453125 
Q 15.625 44.140625 19.328125 44.140625 
Q 23.046875 44.140625 25.78125 50.78125 
z
M 38.28125 21.09375 
Q 42.1875 30.46875 46.671875 32.21875 
Q 51.171875 33.984375 55.265625 32.03125 
Q 59.375 30.078125 60.734375 25.78125 
Q 62.109375 21.484375 62.109375 15.421875 
Q 62.109375 9.375 60.15625 4.484375 
Q 58.203125 -0.390625 54.484375 -1.75 
Q 50.78125 -3.125 46.671875 -1.75 
Q 42.578125 -0.390625 40.421875 4.484375 
Q 38.28125 9.375 38.28125 15.234375 
Q 38.28125 21.09375 42.1875 30.46875 
z
M 54.296875 3.125 
Q 57.03125 9.765625 57.03125 15.625 
Q 57.03125 21.484375 55.65625 24.609375 
Q 54.296875 27.734375 50.578125 27.734375 
Q 46.875 27.734375 45.109375 24.609375 
Q 43.359375 21.484375 43.359375 15.625 
Q 43.359375 9.765625 45.109375 6.4375 
Q 46.875 3.125 50.578125 3.125 
Q 54.296875 3.125 57.03125 9.765625 
z
" id="SimHei-2030"/>
      <path d="M 26.171875 35.15625 
Q 26.171875 22.265625 21.28125 12.109375 
Q 16.40625 1.953125 6.640625 -7.421875 
L 2.34375 -3.125 
Q 11.328125 5.078125 15.8125 14.25 
Q 20.3125 23.4375 20.3125 35.15625 
Q 20.3125 46.875 15.8125 56.046875 
Q 11.328125 65.234375 2.34375 73.828125 
L 6.640625 78.125 
Q 16.40625 68.359375 21.28125 58.203125 
Q 26.171875 48.046875 26.171875 35.15625 
z
" id="SimHei-29"/>
     </defs>
     <g transform="translate(180.476562 273.825)scale(0.12 -0.12)">
      <use xlink:href="#SimHei-6a2a"/>
      <use x="100" xlink:href="#SimHei-5411"/>
      <use x="200" xlink:href="#SimHei-6536"/>
      <use x="300" xlink:href="#SimHei-655b"/>
      <use x="400" xlink:href="#SimHei-53d8"/>
      <use x="500" xlink:href="#SimHei-5f62"/>
      <use x="600" xlink:href="#SimHei-28"/>
      <use x="650" xlink:href="#SimHei-44"/>
      <use x="700" xlink:href="#SimHei-2f"/>
      <use x="750" xlink:href="#SimHei-2030"/>
      <use x="850" xlink:href="#SimHei-29"/>
     </g>
    </g>
   </g>
   <g id="matplotlib.axis_2">
    <g id="ytick_1">
     <g id="line2d_10">
      <defs>
       <path d="M 0 0 
L -3.5 0 
" id="m97af45a73a" style="stroke:#000000;stroke-width:0.8;"/>
      </defs>
      <g>
       <use style="stroke:#000000;stroke-width:0.8;" x="51.253125" xlink:href="#m97af45a73a" y="233.004261"/>
      </g>
     </g>
     <g id="text_11">
      <!-- 0.0 -->
      <g transform="translate(26.253125 237.129261)scale(0.12 -0.12)">
       <use xlink:href="#SimHei-30"/>
       <use x="50" xlink:href="#SimHei-2e"/>
       <use x="100" xlink:href="#SimHei-30"/>
      </g>
     </g>
    </g>
    <g id="ytick_2">
     <g id="line2d_11">
      <g>
       <use style="stroke:#000000;stroke-width:0.8;" x="51.253125" xlink:href="#m97af45a73a" y="212.175284"/>
      </g>
     </g>
     <g id="text_12">
      <!-- 0.1 -->
      <g transform="translate(26.253125 216.300284)scale(0.12 -0.12)">
       <use xlink:href="#SimHei-30"/>
       <use x="50" xlink:href="#SimHei-2e"/>
       <use x="100" xlink:href="#SimHei-31"/>
      </g>
     </g>
    </g>
    <g id="ytick_3">
     <g id="line2d_12">
      <g>
       <use style="stroke:#000000;stroke-width:0.8;" x="51.253125" xlink:href="#m97af45a73a" y="191.346307"/>
      </g>
     </g>
     <g id="text_13">
      <!-- 0.2 -->
      <g transform="translate(26.253125 195.471307)scale(0.12 -0.12)">
       <use xlink:href="#SimHei-30"/>
       <use x="50" xlink:href="#SimHei-2e"/>
       <use x="100" xlink:href="#SimHei-32"/>
      </g>
     </g>
    </g>
    <g id="ytick_4">
     <g id="line2d_13">
      <g>
       <use style="stroke:#000000;stroke-width:0.8;" x="51.253125" xlink:href="#m97af45a73a" y="170.51733"/>
      </g>
     </g>
     <g id="text_14">
      <!-- 0.3 -->
      <defs>
       <path d="M 3.90625 19.140625 
L 10.9375 20.3125 
Q 12.5 15.234375 16.015625 11.90625 
Q 19.53125 8.59375 24.796875 8.78125 
Q 30.078125 8.984375 33.203125 13.078125 
Q 36.328125 17.1875 35.9375 22.453125 
Q 35.546875 27.734375 31.828125 30.65625 
Q 28.125 33.59375 19.921875 34.765625 
L 19.921875 39.84375 
Q 28.125 40.625 31.828125 44.140625 
Q 35.546875 47.65625 35.15625 53.3125 
Q 34.765625 58.984375 30.078125 61.515625 
Q 25.390625 64.0625 20.109375 62.109375 
Q 14.84375 60.15625 11.71875 51.171875 
L 4.6875 52.34375 
Q 7.03125 59.375 11.125 64.0625 
Q 15.234375 68.75 22.265625 69.53125 
Q 29.296875 70.3125 34.5625 67.765625 
Q 39.84375 65.234375 41.984375 59.953125 
Q 44.140625 54.6875 42.578125 48.4375 
Q 41.015625 42.1875 33.59375 37.5 
Q 39.0625 35.15625 41.984375 30.46875 
Q 44.921875 25.78125 43.9375 18.15625 
Q 42.96875 10.546875 37.109375 5.859375 
Q 31.25 1.171875 23.828125 1.359375 
Q 16.40625 1.5625 10.9375 6.046875 
Q 5.46875 10.546875 3.90625 19.140625 
z
" id="SimHei-33"/>
      </defs>
      <g transform="translate(26.253125 174.64233)scale(0.12 -0.12)">
       <use xlink:href="#SimHei-30"/>
       <use x="50" xlink:href="#SimHei-2e"/>
       <use x="100" xlink:href="#SimHei-33"/>
      </g>
     </g>
    </g>
    <g id="ytick_5">
     <g id="line2d_14">
      <g>
       <use style="stroke:#000000;stroke-width:0.8;" x="51.253125" xlink:href="#m97af45a73a" y="149.688352"/>
      </g>
     </g>
     <g id="text_15">
      <!-- 0.4 -->
      <defs>
       <path d="M 31.25 17.1875 
L 1.171875 17.1875 
L 1.171875 23.828125 
L 32.8125 69.53125 
L 38.671875 69.53125 
L 38.671875 23.828125 
L 48.046875 23.828125 
L 48.046875 17.1875 
L 38.671875 17.1875 
L 38.671875 2.34375 
L 31.25 2.34375 
z
M 31.25 23.828125 
L 31.25 54.6875 
L 9.375 23.828125 
z
" id="SimHei-34"/>
      </defs>
      <g transform="translate(26.253125 153.813352)scale(0.12 -0.12)">
       <use xlink:href="#SimHei-30"/>
       <use x="50" xlink:href="#SimHei-2e"/>
       <use x="100" xlink:href="#SimHei-34"/>
      </g>
     </g>
    </g>
    <g id="ytick_6">
     <g id="line2d_15">
      <g>
       <use style="stroke:#000000;stroke-width:0.8;" x="51.253125" xlink:href="#m97af45a73a" y="128.859375"/>
      </g>
     </g>
     <g id="text_16">
      <!-- 0.5 -->
      <g transform="translate(26.253125 132.984375)scale(0.12 -0.12)">
       <use xlink:href="#SimHei-30"/>
       <use x="50" xlink:href="#SimHei-2e"/>
       <use x="100" xlink:href="#SimHei-35"/>
      </g>
     </g>
    </g>
    <g id="ytick_7">
     <g id="line2d_16">
      <g>
       <use style="stroke:#000000;stroke-width:0.8;" x="51.253125" xlink:href="#m97af45a73a" y="108.030398"/>
      </g>
     </g>
     <g id="text_17">
      <!-- 0.6 -->
      <defs>
       <path d="M 3.515625 19.53125 
Q 4.296875 30.859375 6.046875 34.765625 
Q 7.8125 38.671875 11.328125 44.53125 
L 27.34375 69.53125 
L 36.328125 69.53125 
L 19.921875 43.75 
Q 30.46875 46.484375 36.71875 42.96875 
Q 42.96875 39.453125 45.109375 34.953125 
Q 47.265625 30.46875 47.453125 25.1875 
Q 47.65625 19.921875 45.890625 14.84375 
Q 44.140625 9.765625 39.640625 5.65625 
Q 35.15625 1.5625 27.140625 1.171875 
Q 19.140625 0.78125 13.46875 4.09375 
Q 7.8125 7.421875 5.65625 13.46875 
Q 3.515625 19.53125 4.296875 30.859375 
z
M 12.5 16.015625 
Q 19.53125 8.59375 25.390625 8.203125 
Q 31.25 7.8125 35.15625 12.109375 
Q 39.0625 16.40625 39.0625 24.609375 
Q 39.0625 32.8125 34.171875 35.9375 
Q 29.296875 39.0625 23.234375 38.28125 
Q 17.1875 37.5 14.453125 32.421875 
Q 11.71875 27.34375 12.109375 21.671875 
Q 12.5 16.015625 19.53125 8.59375 
z
" id="SimHei-36"/>
      </defs>
      <g transform="translate(26.253125 112.155398)scale(0.12 -0.12)">
       <use xlink:href="#SimHei-30"/>
       <use x="50" xlink:href="#SimHei-2e"/>
       <use x="100" xlink:href="#SimHei-36"/>
      </g>
     </g>
    </g>
    <g id="ytick_8">
     <g id="line2d_17">
      <g>
       <use style="stroke:#000000;stroke-width:0.8;" x="51.253125" xlink:href="#m97af45a73a" y="87.20142"/>
      </g>
     </g>
     <g id="text_18">
      <!-- 0.7 -->
      <g transform="translate(26.253125 91.32642)scale(0.12 -0.12)">
       <use xlink:href="#SimHei-30"/>
       <use x="50" xlink:href="#SimHei-2e"/>
       <use x="100" xlink:href="#SimHei-37"/>
      </g>
     </g>
    </g>
    <g id="ytick_9">
     <g id="line2d_18">
      <g>
       <use style="stroke:#000000;stroke-width:0.8;" x="51.253125" xlink:href="#m97af45a73a" y="66.372443"/>
      </g>
     </g>
     <g id="text_19">
      <!-- 0.8 -->
      <defs>
       <path d="M 2.734375 16.796875 
Q 2.734375 26.171875 5.078125 30.65625 
Q 7.421875 35.15625 12.890625 37.890625 
Q 8.203125 40.625 6.640625 43.9375 
Q 5.078125 47.265625 4.875 51.5625 
Q 4.6875 55.859375 6.046875 58.984375 
Q 7.421875 62.109375 10.15625 64.84375 
Q 12.890625 67.578125 16.203125 68.546875 
Q 19.53125 69.53125 23.4375 69.53125 
Q 27.34375 69.53125 30.46875 68.75 
Q 33.59375 67.96875 37.109375 65.421875 
Q 40.625 62.890625 42.1875 58.203125 
Q 43.75 53.515625 41.984375 47.265625 
Q 40.234375 41.015625 32.8125 37.5 
Q 39.453125 35.546875 42.1875 31.4375 
Q 44.921875 27.34375 44.921875 21.484375 
Q 44.921875 15.625 43.15625 12.109375 
Q 41.40625 8.59375 39.25 6.25 
Q 37.109375 3.90625 33.390625 2.53125 
Q 29.6875 1.171875 24.015625 1.171875 
Q 18.359375 1.171875 14.25 2.53125 
Q 10.15625 3.90625 7.421875 6.640625 
Q 4.6875 9.375 3.703125 13.078125 
Q 2.734375 16.796875 2.734375 26.171875 
z
M 10.9375 26.5625 
Q 10.546875 17.1875 12.296875 13.671875 
Q 14.0625 10.15625 18.75 9.171875 
Q 23.4375 8.203125 28.515625 9.375 
Q 33.59375 10.546875 35.546875 14.84375 
Q 37.5 19.140625 36.90625 23.4375 
Q 36.328125 27.734375 32.03125 30.65625 
Q 27.734375 33.59375 22.65625 33.203125 
Q 17.578125 32.8125 14.25 29.6875 
Q 10.9375 26.5625 10.546875 17.1875 
z
M 12.109375 56.25 
Q 12.109375 48.4375 14.84375 44.921875 
Q 17.578125 41.40625 23.4375 41.40625 
Q 29.296875 41.40625 32.21875 44.921875 
Q 35.15625 48.4375 34.953125 53.3125 
Q 34.765625 58.203125 31.4375 60.546875 
Q 28.125 62.890625 22.453125 62.5 
Q 16.796875 62.109375 14.453125 59.171875 
Q 12.109375 56.25 12.109375 48.4375 
z
" id="SimHei-38"/>
      </defs>
      <g transform="translate(26.253125 70.497443)scale(0.12 -0.12)">
       <use xlink:href="#SimHei-30"/>
       <use x="50" xlink:href="#SimHei-2e"/>
       <use x="100" xlink:href="#SimHei-38"/>
      </g>
     </g>
    </g>
    <g id="ytick_10">
     <g id="line2d_19">
      <g>
       <use style="stroke:#000000;stroke-width:0.8;" x="51.253125" xlink:href="#m97af45a73a" y="45.543466"/>
      </g>
     </g>
     <g id="text_20">
      <!-- 0.9 -->
      <defs>
       <path d="M 12.5 1.171875 
Q 21.09375 15.625 26.5625 27.34375 
Q 16.796875 25.78125 10.34375 29.875 
Q 3.90625 33.984375 2.53125 41.015625 
Q 1.171875 48.046875 2.734375 53.703125 
Q 4.296875 59.375 7.609375 63.078125 
Q 10.9375 66.796875 15.625 68.359375 
Q 20.3125 69.921875 24.015625 69.921875 
Q 27.734375 69.921875 31.640625 68.359375 
Q 35.546875 66.796875 38.671875 63.671875 
Q 41.796875 60.546875 42.96875 57.21875 
Q 44.140625 53.90625 44.140625 48.625 
Q 44.140625 43.359375 40.234375 35.15625 
Q 36.328125 26.953125 21.09375 1.171875 
z
M 9.765625 50 
Q 10.9375 39.84375 14.640625 36.515625 
Q 18.359375 33.203125 22.65625 33.59375 
Q 26.953125 33.984375 29.484375 35.9375 
Q 32.03125 37.890625 34.375 42.578125 
Q 35.9375 48.4375 35.15625 52.53125 
Q 34.375 56.640625 31.046875 59.375 
Q 27.734375 62.109375 23.828125 62.109375 
Q 21.484375 62.5 17.765625 60.9375 
Q 14.0625 59.375 11.90625 54.6875 
Q 9.765625 50 10.9375 39.84375 
z
" id="SimHei-39"/>
      </defs>
      <g transform="translate(26.253125 49.668466)scale(0.12 -0.12)">
       <use xlink:href="#SimHei-30"/>
       <use x="50" xlink:href="#SimHei-2e"/>
       <use x="100" xlink:href="#SimHei-39"/>
      </g>
     </g>
    </g>
    <g id="ytick_11">
     <g id="line2d_20">
      <g>
       <use style="stroke:#000000;stroke-width:0.8;" x="51.253125" xlink:href="#m97af45a73a" y="24.714489"/>
      </g>
     </g>
     <g id="text_21">
      <!-- 1.0 -->
      <g transform="translate(26.253125 28.839489)scale(0.12 -0.12)">
       <use xlink:href="#SimHei-31"/>
       <use x="50" xlink:href="#SimHei-2e"/>
       <use x="100" xlink:href="#SimHei-30"/>
      </g>
     </g>
    </g>
    <g id="text_22">
     <!-- 隶属度 -->
     <defs>
      <path d="M 52.734375 80.859375 
Q 52.34375 77.34375 52.34375 71.875 
L 80.46875 71.875 
Q 80.078125 64.84375 80.078125 57.03125 
Q 87.109375 57.03125 93.359375 57.421875 
L 93.359375 50.390625 
Q 87.109375 50.78125 80.078125 50.78125 
Q 80.078125 43.359375 80.46875 35.546875 
L 52.34375 35.546875 
L 52.34375 30.078125 
Q 57.421875 22.65625 62.109375 19.140625 
Q 66.796875 21.484375 71.28125 25.390625 
Q 75.78125 29.296875 78.125 32.8125 
Q 83.203125 27.34375 85.9375 25.78125 
Q 81.640625 23.828125 78.125 21.671875 
Q 74.609375 19.53125 66.796875 15.234375 
Q 70.3125 12.5 76.5625 9.765625 
Q 82.8125 7.03125 94.140625 5.859375 
Q 90.625 2.34375 88.28125 -4.296875 
Q 77.34375 -0.390625 71.671875 3.125 
Q 66.015625 6.640625 60.734375 10.734375 
Q 55.46875 14.84375 52.34375 20.3125 
L 52.34375 3.125 
Q 52.734375 -5.859375 48.234375 -7.421875 
Q 43.75 -8.984375 37.890625 -9.765625 
Q 37.109375 -3.515625 34.765625 0 
Q 42.578125 -0.78125 43.9375 0.578125 
Q 45.3125 1.953125 45.3125 4.296875 
L 45.3125 35.546875 
L 28.515625 35.546875 
Q 23.046875 35.546875 16.40625 35.15625 
L 16.40625 42.578125 
Q 23.046875 42.1875 28.515625 42.1875 
L 45.3125 42.1875 
L 45.3125 50.78125 
L 19.53125 50.78125 
Q 13.28125 50.78125 7.03125 50.390625 
L 7.03125 57.421875 
Q 13.671875 57.03125 19.140625 57.03125 
L 45.3125 57.03125 
L 45.3125 65.625 
L 28.125 65.625 
Q 23.828125 65.625 16.40625 65.234375 
L 16.40625 72.265625 
Q 23.4375 71.875 28.125 71.875 
L 45.3125 71.875 
Q 45.3125 77.34375 44.921875 80.859375 
L 52.734375 80.859375 
z
M 6.640625 4.296875 
L 15.234375 7.421875 
Q 19.53125 8.984375 23.625 10.9375 
Q 27.734375 12.890625 32.03125 15.421875 
Q 36.328125 17.96875 40.625 19.921875 
Q 42.1875 17.1875 43.75 12.890625 
Q 39.0625 10.9375 34.953125 8.78125 
Q 30.859375 6.640625 26.953125 4.484375 
Q 23.046875 2.34375 18.9375 0.1875 
Q 14.84375 -1.953125 11.328125 -4.296875 
z
M 72.65625 42.1875 
L 72.65625 50.78125 
L 52.34375 50.78125 
L 52.34375 42.1875 
z
M 72.65625 57.03125 
L 72.65625 65.625 
L 52.34375 65.625 
L 52.34375 57.03125 
z
M 22.65625 32.421875 
Q 29.6875 26.171875 33.59375 21.484375 
Q 31.640625 19.140625 27.734375 16.015625 
Q 23.4375 21.484375 17.1875 27.34375 
Q 20.3125 30.46875 22.65625 32.421875 
z
" id="SimHei-96b6"/>
      <path d="M 86.71875 48.4375 
Q 69.53125 47.65625 59.765625 47.265625 
L 59.765625 41.796875 
L 83.984375 41.796875 
Q 83.59375 37.5 83.59375 33.203125 
Q 83.59375 28.90625 83.984375 24.609375 
L 59.765625 24.609375 
L 59.765625 19.53125 
L 91.796875 19.53125 
Q 91.40625 13.28125 91.40625 8.203125 
L 91.40625 -2.34375 
Q 91.015625 -5.859375 88.859375 -7.21875 
Q 86.71875 -8.59375 78.125 -10.15625 
Q 77.34375 -6.25 74.609375 -2.34375 
Q 79.6875 -2.34375 82.21875 -2.140625 
Q 84.765625 -1.953125 84.375 1.953125 
L 84.375 14.0625 
L 59.765625 14.0625 
L 59.765625 7.03125 
Q 65.625 7.421875 69.140625 7.8125 
Q 67.96875 9.765625 67.1875 10.9375 
Q 70.703125 12.109375 72.65625 13.671875 
Q 76.953125 7.421875 80.078125 1.953125 
Q 77.34375 0.78125 73.828125 -1.171875 
Q 73.046875 0.390625 71.875 2.34375 
Q 68.359375 2.34375 59.375 1.359375 
Q 50.390625 0.390625 40.625 -1.171875 
Q 40.234375 1.953125 38.28125 5.859375 
Q 46.875 5.859375 53.125 6.640625 
L 53.125 14.0625 
L 34.375 14.0625 
L 34.375 -8.59375 
L 27.34375 -8.59375 
Q 27.734375 -3.125 27.734375 5.078125 
Q 27.734375 13.28125 27.34375 19.53125 
L 53.125 19.53125 
L 53.125 24.609375 
L 31.25 24.609375 
Q 31.640625 29.296875 31.640625 33.203125 
Q 31.640625 37.5 31.25 41.796875 
L 53.125 41.796875 
L 53.125 46.875 
Q 38.671875 46.09375 30.46875 45.703125 
Q 29.6875 49.21875 27.734375 52.34375 
Q 42.1875 52.34375 56.4375 53.125 
Q 70.703125 53.90625 82.03125 55.859375 
Q 83.984375 51.953125 86.71875 48.4375 
z
M 86.328125 78.125 
Q 85.9375 71.875 85.9375 67.1875 
Q 85.9375 62.890625 86.328125 58.59375 
L 23.046875 58.59375 
Q 23.046875 47.65625 22.84375 38.859375 
Q 22.65625 30.078125 21.484375 22.453125 
Q 20.3125 14.84375 18.15625 8 
Q 16.015625 1.171875 11.71875 -7.03125 
Q 8.203125 -5.078125 3.90625 -3.515625 
Q 10.546875 7.03125 13.078125 17.1875 
Q 15.625 27.34375 15.8125 38.859375 
Q 16.015625 50.390625 16.015625 57.421875 
Q 16.015625 64.453125 15.625 78.125 
L 86.328125 78.125 
z
M 78.90625 64.0625 
L 78.90625 71.875 
L 23.046875 71.875 
L 23.046875 64.0625 
z
M 77.34375 30.078125 
L 77.34375 36.71875 
L 59.765625 36.71875 
L 59.765625 30.078125 
z
M 53.125 30.078125 
L 53.125 36.71875 
L 37.890625 36.71875 
L 37.890625 30.078125 
z
" id="SimHei-5c5e"/>
      <path d="M 27.34375 26.171875 
Q 38.28125 25.78125 44.921875 25.78125 
L 81.25 25.78125 
Q 77.734375 19.53125 72.65625 13.28125 
Q 67.578125 7.03125 62.890625 3.125 
Q 67.96875 0.78125 77.34375 -0.78125 
Q 86.71875 -2.34375 95.3125 -2.34375 
Q 92.96875 -4.6875 91.015625 -10.15625 
Q 79.6875 -8.59375 71.09375 -6.4375 
Q 62.5 -4.296875 56.640625 -1.5625 
Q 48.4375 -5.078125 40.421875 -7.21875 
Q 32.421875 -9.375 23.828125 -10.546875 
Q 22.65625 -7.421875 19.140625 -3.90625 
Q 26.171875 -3.90625 35.15625 -1.953125 
Q 44.140625 0 50.78125 3.125 
Q 44.140625 8.59375 37.5 19.921875 
L 27.34375 19.53125 
z
M 46.484375 79.296875 
Q 50.78125 80.46875 54.296875 82.03125 
Q 56.640625 77.734375 58.984375 70.703125 
L 73.4375 70.703125 
Q 77.734375 70.703125 89.0625 71.09375 
L 89.0625 64.0625 
Q 78.125 64.453125 72.65625 64.453125 
L 21.484375 64.453125 
Q 21.484375 46.875 21.09375 36.125 
Q 20.703125 25.390625 18.9375 14.84375 
Q 17.1875 4.296875 11.328125 -8.203125 
Q 7.8125 -5.859375 3.90625 -4.6875 
Q 10.15625 6.25 11.90625 16.796875 
Q 13.671875 27.34375 13.859375 43.75 
Q 14.0625 60.15625 13.671875 70.703125 
L 50 70.703125 
Q 48.4375 75.78125 46.484375 79.296875 
z
M 38.671875 51.5625 
Q 38.671875 57.8125 38.28125 61.328125 
L 46.484375 61.328125 
Q 46.09375 58.203125 46.09375 51.5625 
L 67.1875 51.5625 
Q 67.1875 57.8125 66.796875 61.71875 
L 75 61.71875 
Q 74.609375 57.03125 74.609375 51.5625 
Q 83.203125 51.5625 89.453125 51.953125 
L 89.453125 45.3125 
Q 83.59375 45.703125 74.609375 45.703125 
Q 74.609375 35.15625 75 30.46875 
L 38.28125 30.46875 
Q 38.671875 36.71875 38.671875 45.703125 
Q 33.984375 45.703125 25 45.3125 
L 25 51.953125 
Q 33.984375 51.5625 38.671875 51.5625 
z
M 67.1875 36.71875 
L 67.1875 45.703125 
L 46.09375 45.703125 
L 46.09375 36.71875 
z
M 44.921875 19.921875 
Q 50 12.109375 57.03125 6.640625 
Q 62.890625 10.9375 69.140625 19.921875 
L 45.3125 19.921875 
z
" id="SimHei-5ea6"/>
     </defs>
     <g transform="translate(20.753125 146.859375)rotate(-90)scale(0.12 -0.12)">
      <use xlink:href="#SimHei-96b6"/>
      <use x="100" xlink:href="#SimHei-5c5e"/>
      <use x="200" xlink:href="#SimHei-5ea6"/>
     </g>
    </g>
   </g>
   <g id="line2d_21">
    <path clip-path="url(#p85280b817f)" d="M 51.253125 24.714489 
L 160.124492 24.819184 
L 160.784096 25.169608 
L 161.480345 25.804169 
L 162.249883 26.815789 
L 163.129356 28.358717 
L 164.118763 30.564984 
L 165.254748 33.67086 
L 166.573957 37.970951 
L 168.113033 43.79676 
L 169.981912 51.800412 
L 172.473751 63.544843 
L 182.62433 112.524321 
L 185.336037 123.948391 
L 187.901165 133.805748 
L 190.356359 142.372904 
L 192.774908 150.01429 
L 195.156813 156.814546 
L 197.538718 162.951608 
L 199.920622 168.484744 
L 202.339172 173.545282 
L 204.794366 178.167243 
L 207.286204 182.385037 
L 209.814688 186.232364 
L 212.416461 189.78897 
L 215.091523 193.07076 
L 217.839874 196.09448 
L 220.69816 198.911373 
L 223.66638 201.527639 
L 226.781178 203.978502 
L 230.0792 206.288514 
L 233.560445 208.452467 
L 237.261559 210.487781 
L 241.18254 212.389183 
L 245.396679 214.184412 
L 249.940621 215.876731 
L 254.887653 217.47851 
L 260.274422 218.985495 
L 266.174217 220.402279 
L 272.696972 221.736663 
L 279.95262 222.990101 
L 288.08774 224.165199 
L 297.248912 225.259683 
L 307.692648 226.278915 
L 319.712106 227.223305 
L 333.710376 228.094074 
L 350.200486 228.890563 
L 369.951972 229.614572 
L 393.990887 230.265315 
L 417.663355 230.739404 
L 417.663355 230.739404 
" style="fill:none;stroke:#008000;stroke-linecap:square;stroke-width:1.5;"/>
   </g>
   <g id="line2d_22">
    <path clip-path="url(#p85280b817f)" d="M 51.253125 230.521838 
L 68.622707 229.850437 
L 82.474399 229.100067 
L 93.760963 228.273125 
L 103.178647 227.366256 
L 111.130544 226.383493 
L 117.983101 225.317803 
L 123.91954 224.175416 
L 129.159731 222.945338 
L 133.813606 221.628483 
L 137.9911 220.218383 
L 141.765503 218.712186 
L 145.210104 217.099654 
L 148.361547 215.380822 
L 151.293122 213.528283 
L 154.004829 211.552553 
L 156.533312 209.438849 
L 158.951862 207.125453 
L 161.223832 204.644855 
L 163.385869 201.958317 
L 165.474616 199.008377 
L 167.490074 195.775358 
L 169.432242 192.240574 
L 171.337766 188.306807 
L 173.206645 183.928456 
L 175.038879 179.056826 
L 176.834469 173.641123 
L 178.630059 167.496765 
L 180.389004 160.673132 
L 182.147949 152.95141 
L 183.943538 144.038848 
L 185.775773 133.776576 
L 187.681297 121.788132 
L 189.733399 107.39934 
L 192.188593 88.4892 
L 197.465428 47.244745 
L 198.894571 38.157858 
L 199.993912 32.48281 
L 200.910029 28.829037 
L 201.679567 26.611395 
L 202.302527 25.426279 
L 202.815552 24.875704 
L 203.255289 24.714954 
L 203.65838 24.821266 
L 204.061472 25.169492 
L 204.537853 25.889505 
L 205.124168 27.224243 
L 205.820417 29.426424 
L 206.6266 32.758096 
L 207.616007 37.872818 
L 208.825281 45.40549 
L 210.401003 56.768928 
L 213.002776 77.457272 
L 216.6306 105.946775 
L 218.865926 121.699916 
L 220.881383 134.348678 
L 222.786907 144.929679 
L 224.655786 154.076511 
L 226.488021 161.964389 
L 228.320255 168.897661 
L 230.152489 174.989737 
L 232.021368 180.44734 
L 233.926892 185.330446 
L 235.869061 189.697222 
L 237.847874 193.602414 
L 239.863332 197.096495 
L 241.952079 200.277652 
L 244.114115 203.168191 
L 246.349441 205.79072 
L 248.694701 208.202798 
L 251.149895 210.412787 
L 253.751668 212.458078 
L 256.536664 214.363494 
L 259.504884 216.124423 
L 262.729617 217.77574 
L 266.210862 219.306247 
L 270.021909 220.736431 
L 274.236048 222.076174 
L 278.889924 223.319423 
L 284.130114 224.484474 
L 290.029909 225.563932 
L 296.772531 226.566446 
L 304.541205 227.491221 
L 313.629088 228.342405 
L 324.365981 229.117758 
L 337.264911 229.819165 
L 353.095416 230.448899 
L 372.956837 231.006718 
L 398.571473 231.492801 
L 417.663355 231.74847 
L 417.663355 231.74847 
" style="fill:none;stroke:#ffff00;stroke-linecap:square;stroke-width:1.5;"/>
   </g>
   <g id="line2d_23">
    <path clip-path="url(#p85280b817f)" d="M 51.253125 226.256394 
L 66.424026 225.185686 
L 79.616113 224.03656 
L 91.195834 222.80951 
L 101.456347 221.503478 
L 110.654163 220.112178 
L 118.935863 218.63742 
L 126.411379 217.084145 
L 133.227291 215.444766 
L 139.493533 213.711697 
L 145.246748 211.893403 
L 150.596873 209.971845 
L 155.58055 207.947251 
L 160.234426 205.818436 
L 164.595143 203.581932 
L 168.735993 201.208826 
L 172.656975 198.705179 
L 176.394733 196.053542 
L 179.949267 193.259521 
L 183.357223 190.298943 
L 186.655245 187.138262 
L 189.843333 183.773043 
L 192.921487 180.201022 
L 195.926351 176.373749 
L 198.857926 172.280991 
L 201.752857 167.85585 
L 204.611142 163.076329 
L 207.432783 157.921541 
L 210.254424 152.296554 
L 213.076065 146.16612 
L 215.897706 139.498287 
L 218.755992 132.169893 
L 221.687567 124.037907 
L 224.76572 114.832105 
L 228.063742 104.253711 
L 231.87479 91.253319 
L 238.873925 66.360043 
L 242.648328 53.446704 
L 245.250101 45.300331 
L 247.375492 39.351089 
L 249.171082 34.955928 
L 250.746804 31.657986 
L 252.139302 29.229459 
L 253.385221 27.474336 
L 254.521207 26.237211 
L 255.547258 25.428823 
L 256.50002 24.947268 
L 257.416137 24.732135 
L 258.295609 24.755713 
L 259.175082 25.004563 
L 260.091199 25.501573 
L 261.080606 26.306873 
L 262.143302 27.475101 
L 263.315932 29.11599 
L 264.598496 31.312604 
L 266.027638 34.221402 
L 267.640005 38.032848 
L 269.472239 42.959941 
L 271.634276 49.446477 
L 274.309338 58.223427 
L 278.15703 71.696692 
L 286.36544 100.581502 
L 289.993264 112.429227 
L 293.254641 122.338333 
L 296.332795 130.99168 
L 299.301015 138.684117 
L 302.195945 145.584005 
L 305.090875 151.915473 
L 307.949161 157.642403 
L 310.844091 162.949161 
L 313.739022 167.798219 
L 316.670597 172.281889 
L 319.675461 176.472196 
L 322.71697 180.335198 
L 325.831768 183.935628 
L 329.056501 187.32269 
L 332.354523 190.466252 
L 335.799123 193.441197 
L 339.353658 196.217756 
L 343.054772 198.828644 
L 346.939108 201.297739 
L 351.043313 203.641805 
L 355.367387 205.854226 
L 359.947972 207.947517 
L 364.858361 209.944037 
L 370.098551 211.831695 
L 375.741833 213.624815 
L 381.824851 215.321284 
L 388.420895 216.927292 
L 395.639898 218.452216 
L 403.555151 219.892667 
L 412.276586 221.249884 
L 417.663355 221.987334 
L 417.663355 221.987334 
" style="fill:none;stroke:#ffa500;stroke-linecap:square;stroke-width:1.5;"/>
   </g>
   <g id="line2d_24">
    <path clip-path="url(#p85280b817f)" d="M 51.253125 233.004261 
L 277.057689 232.910854 
L 277.53407 232.556875 
L 278.047096 231.883594 
L 278.670056 230.667374 
L 279.402949 228.697073 
L 280.245777 225.752817 
L 281.235184 221.454881 
L 282.444458 215.139463 
L 283.946891 206.016953 
L 286.035638 191.830189 
L 292.558392 146.642703 
L 294.830363 132.907604 
L 296.91911 121.590672 
L 298.934568 111.856328 
L 300.913381 103.368119 
L 302.892194 95.849743 
L 304.871007 89.20228 
L 306.84982 83.326933 
L 308.828633 78.130542 
L 310.844091 73.448116 
L 312.896194 69.231291 
L 314.984941 65.434117 
L 317.146977 61.958382 
L 319.382303 58.783962 
L 321.690919 55.889812 
L 324.109468 53.216668 
L 326.637952 50.757242 
L 329.276369 48.501829 
L 332.061365 46.41336 
L 335.029585 44.466641 
L 338.217673 42.645321 
L 341.625629 40.956346 
L 345.326742 39.372621 
L 349.357658 37.892207 
L 353.791665 36.504015 
L 358.702053 35.203975 
L 364.162112 33.992271 
L 370.318419 32.858825 
L 377.28091 31.807801 
L 385.269452 30.832251 
L 394.503913 29.934124 
L 405.35074 29.109118 
L 417.663355 28.388094 
L 417.663355 28.388094 
" style="fill:none;stroke:#ff0000;stroke-linecap:square;stroke-width:1.5;"/>
   </g>
   <g id="line2d_25">
    <path clip-path="url(#p85280b817f)" d="M 51.253125 128.859375 
L 60.04082 128.859375 
L 68.828515 128.859375 
L 77.61621 128.859375 
L 86.403904 128.859375 
L 95.191599 128.859375 
L 103.979294 128.859375 
L 112.766989 128.859375 
L 121.554684 128.859375 
L 130.342379 128.859375 
L 139.130073 128.859375 
L 147.917768 128.859375 
L 156.705463 128.859375 
L 165.493158 128.859375 
L 174.280853 128.859375 
L 183.068548 128.859375 
L 191.856243 128.859375 
L 200.643937 128.859375 
L 209.431632 128.859375 
L 218.219327 128.859375 
L 227.007022 128.859375 
L 235.794717 128.859375 
L 244.582412 128.859375 
L 253.370106 128.859375 
L 262.157801 128.859375 
L 270.945496 128.859375 
L 279.733191 128.859375 
L 288.520886 128.859375 
L 297.308581 128.859375 
L 306.096275 128.859375 
L 314.88397 128.859375 
L 323.671665 128.859375 
L 332.45936 128.859375 
L 341.247055 128.859375 
L 350.03475 128.859375 
L 358.822445 128.859375 
L 367.610139 128.859375 
L 376.397834 128.859375 
L 385.185529 128.859375 
L 393.973224 128.859375 
L 402.760919 128.859375 
L 411.548614 128.859375 
L 420.336308 128.859375 
" style="fill:none;stroke:#2f4f4f;stroke-dasharray:5.55,2.4;stroke-dashoffset:0;stroke-width:1.5;"/>
   </g>
   <g id="patch_3">
    <path d="M 51.253125 243.41875 
L 51.253125 14.3 
" style="fill:none;stroke:#000000;stroke-linecap:square;stroke-linejoin:miter;stroke-width:0.8;"/>
   </g>
   <g id="patch_4">
    <path d="M 417.7 243.41875 
L 417.7 14.3 
" style="fill:none;stroke:#000000;stroke-linecap:square;stroke-linejoin:miter;stroke-width:0.8;"/>
   </g>
   <g id="patch_5">
    <path d="M 51.253125 243.41875 
L 417.7 243.41875 
" style="fill:none;stroke:#000000;stroke-linecap:square;stroke-linejoin:miter;stroke-width:0.8;"/>
   </g>
   <g id="patch_6">
    <path d="M 51.253125 14.3 
L 417.7 14.3 
" style="fill:none;stroke:#000000;stroke-linecap:square;stroke-linejoin:miter;stroke-width:0.8;"/>
   </g>
   <g id="legend_1">
    <g id="patch_7">
     <path d="M 353.7 159.109375 
L 410.7 159.109375 
Q 412.7 159.109375 412.7 157.109375 
L 412.7 100.609375 
Q 412.7 98.609375 410.7 98.609375 
L 353.7 98.609375 
Q 351.7 98.609375 351.7 100.609375 
L 351.7 157.109375 
Q 351.7 159.109375 353.7 159.109375 
z
" style="fill:#ba55d3;opacity:0.8;stroke:#cccccc;stroke-linejoin:miter;"/>
    </g>
    <g id="line2d_26">
     <path d="M 355.7 107.234375 
L 375.7 107.234375 
" style="fill:none;stroke:#008000;stroke-linecap:square;stroke-width:1.5;"/>
    </g>
    <g id="line2d_27"/>
    <g id="text_23">
     <!-- 等级1 -->
     <defs>
      <path d="M 45.703125 53.90625 
Q 45.703125 56.640625 45.3125 61.71875 
L 53.90625 61.71875 
Q 53.515625 56.640625 53.515625 53.90625 
L 69.921875 53.90625 
Q 75.78125 53.90625 83.59375 54.296875 
L 83.59375 47.65625 
Q 76.171875 48.046875 70.3125 48.046875 
L 53.515625 48.046875 
L 53.515625 37.5 
L 81.640625 37.5 
Q 87.890625 37.5 95.703125 37.890625 
L 95.703125 30.859375 
Q 88.28125 31.25 81.640625 31.25 
L 73.4375 31.25 
L 73.4375 21.09375 
Q 83.203125 21.09375 89.84375 21.484375 
L 89.84375 14.453125 
Q 82.03125 14.84375 73.4375 14.84375 
L 73.4375 1.953125 
Q 73.828125 -5.078125 69.328125 -6.828125 
Q 64.84375 -8.59375 55.46875 -9.765625 
Q 54.6875 -5.078125 52.34375 -1.171875 
Q 58.984375 -1.5625 62.109375 -1.171875 
Q 65.234375 -0.78125 65.234375 4.296875 
L 65.234375 14.84375 
L 24.21875 14.84375 
Q 19.140625 14.84375 10.9375 14.453125 
L 10.9375 21.484375 
Q 18.75 21.09375 25.78125 21.09375 
L 65.234375 21.09375 
L 65.234375 31.25 
L 16.796875 31.25 
Q 11.71875 31.25 3.125 30.859375 
L 3.125 37.890625 
Q 11.71875 37.5 16.796875 37.5 
L 45.703125 37.5 
L 45.703125 48.046875 
L 30.078125 48.046875 
Q 24.609375 48.046875 16.40625 47.65625 
L 16.40625 54.296875 
Q 26.953125 53.90625 30.078125 53.90625 
z
M 28.515625 79.6875 
Q 26.171875 78.125 23.4375 73.828125 
L 37.5 73.828125 
Q 45.703125 73.828125 51.171875 74.21875 
L 51.171875 67.96875 
Q 46.875 68.359375 40.234375 68.359375 
L 35.546875 68.359375 
Q 37.5 65.234375 40.234375 60.15625 
Q 35.546875 58.59375 31.640625 57.421875 
Q 31.640625 58.203125 27.734375 68.359375 
L 20.703125 68.359375 
Q 17.578125 63.671875 11.71875 56.640625 
Q 8.203125 59.375 4.296875 60.9375 
Q 9.765625 65.234375 13.28125 70.703125 
Q 16.796875 76.171875 19.53125 82.8125 
Q 24.21875 80.859375 28.515625 79.6875 
z
M 57.8125 60.546875 
Q 54.6875 62.5 50.390625 63.671875 
Q 54.296875 66.796875 57.03125 71.484375 
Q 59.765625 76.171875 62.109375 82.03125 
Q 66.40625 80.46875 71.09375 78.90625 
Q 67.96875 76.171875 66.40625 73.4375 
L 82.421875 73.4375 
Q 85.15625 73.4375 95.703125 73.828125 
L 95.703125 67.578125 
Q 88.28125 67.96875 81.25 67.96875 
Q 85.546875 60.9375 87.5 58.203125 
Q 82.03125 57.03125 78.515625 55.859375 
Q 77.734375 59.375 73.4375 67.96875 
L 63.28125 67.96875 
Q 61.328125 64.84375 57.8125 60.546875 
z
M 40.234375 1.171875 
Q 36.71875 -0.78125 33.203125 -3.125 
Q 29.6875 3.515625 23.828125 9.765625 
Q 26.5625 11.328125 30.078125 14.0625 
Q 35.9375 7.8125 40.234375 1.171875 
z
" id="SimHei-7b49"/>
      <path d="M 83.59375 74.21875 
Q 80.078125 61.328125 76.5625 46.484375 
L 90.234375 46.484375 
Q 88.28125 36.328125 85.34375 27.34375 
Q 82.421875 18.359375 76.5625 8.984375 
Q 80.46875 5.078125 85.34375 1.75 
Q 90.234375 -1.5625 96.09375 -3.90625 
Q 91.796875 -7.421875 90.625 -10.9375 
Q 80.859375 -5.46875 71.875 3.90625 
Q 69.140625 1.171875 63.46875 -2.921875 
Q 57.8125 -7.03125 48.828125 -10.9375 
Q 46.875 -7.8125 43.359375 -5.46875 
Q 51.5625 -2.734375 57.421875 1.171875 
Q 63.28125 5.078125 67.578125 9.375 
Q 62.890625 14.84375 54.6875 30.46875 
Q 53.515625 21.875 48.828125 12.5 
Q 44.53125 2.734375 33.203125 -7.421875 
Q 30.859375 -5.46875 26.5625 -3.125 
Q 34.375 2.34375 39.453125 9.953125 
Q 44.53125 17.578125 46.671875 26.359375 
Q 48.828125 35.15625 49.21875 45.5 
Q 49.609375 55.859375 49.609375 67.96875 
Q 45.3125 67.96875 39.453125 67.578125 
L 39.453125 74.609375 
Q 46.484375 74.21875 58.203125 74.21875 
z
M 29.6875 75.78125 
Q 27.34375 72.65625 23.625 65.8125 
Q 19.921875 58.984375 14.0625 50.78125 
L 27.734375 51.5625 
Q 31.640625 57.8125 33.984375 64.453125 
Q 35.9375 62.890625 41.015625 59.765625 
Q 38.671875 55.859375 33.984375 48.4375 
Q 29.296875 41.015625 18.75 26.953125 
Q 30.46875 28.515625 37.5 29.6875 
Q 36.328125 25 36.328125 22.65625 
Q 32.421875 22.265625 24.40625 21.09375 
Q 16.40625 19.921875 8.984375 17.96875 
Q 7.8125 21.875 6.25 25 
Q 9.765625 26.953125 14.453125 31.828125 
Q 19.140625 36.71875 24.21875 45.3125 
Q 19.921875 44.921875 15.8125 44.53125 
Q 11.71875 44.140625 7.8125 42.578125 
Q 6.640625 46.09375 4.6875 50.78125 
Q 9.765625 53.90625 14.640625 62.890625 
Q 19.53125 71.875 21.875 80.078125 
Q 24.609375 78.125 29.6875 75.78125 
z
M 55.859375 48.828125 
Q 55.859375 46.09375 55.859375 43.359375 
Q 58.59375 36.328125 64.0625 27.34375 
Q 69.53125 17.96875 71.875 15.234375 
Q 78.515625 25.390625 81.640625 40.234375 
L 67.578125 40.234375 
Q 71.484375 53.125 74.21875 67.96875 
L 56.25 67.96875 
Q 56.25 58.59375 55.859375 48.828125 
z
M 37.109375 15.625 
Q 35.9375 11.71875 36.328125 8.59375 
Q 28.515625 6.640625 22.265625 4.875 
Q 16.015625 3.125 8.59375 0.78125 
Q 7.421875 4.6875 5.078125 8.203125 
Q 10.546875 9.375 17.375 10.734375 
Q 24.21875 12.109375 37.109375 15.625 
z
" id="SimHei-7ea7"/>
     </defs>
     <g transform="translate(383.7 110.734375)scale(0.1 -0.1)">
      <use xlink:href="#SimHei-7b49"/>
      <use x="100" xlink:href="#SimHei-7ea7"/>
      <use x="200" xlink:href="#SimHei-31"/>
     </g>
    </g>
    <g id="line2d_28">
     <path d="M 355.7 121.609375 
L 375.7 121.609375 
" style="fill:none;stroke:#ffff00;stroke-linecap:square;stroke-width:1.5;"/>
    </g>
    <g id="line2d_29"/>
    <g id="text_24">
     <!-- 等级2 -->
     <g transform="translate(383.7 125.109375)scale(0.1 -0.1)">
      <use xlink:href="#SimHei-7b49"/>
      <use x="100" xlink:href="#SimHei-7ea7"/>
      <use x="200" xlink:href="#SimHei-32"/>
     </g>
    </g>
    <g id="line2d_30">
     <path d="M 355.7 135.984375 
L 375.7 135.984375 
" style="fill:none;stroke:#ffa500;stroke-linecap:square;stroke-width:1.5;"/>
    </g>
    <g id="line2d_31"/>
    <g id="text_25">
     <!-- 等级3 -->
     <g transform="translate(383.7 139.484375)scale(0.1 -0.1)">
      <use xlink:href="#SimHei-7b49"/>
      <use x="100" xlink:href="#SimHei-7ea7"/>
      <use x="200" xlink:href="#SimHei-33"/>
     </g>
    </g>
    <g id="line2d_32">
     <path d="M 355.7 150.359375 
L 375.7 150.359375 
" style="fill:none;stroke:#ff0000;stroke-linecap:square;stroke-width:1.5;"/>
    </g>
    <g id="line2d_33"/>
    <g id="text_26">
     <!-- 等级4 -->
     <g transform="translate(383.7 153.859375)scale(0.1 -0.1)">
      <use xlink:href="#SimHei-7b49"/>
      <use x="100" xlink:href="#SimHei-7ea7"/>
      <use x="200" xlink:href="#SimHei-34"/>
     </g>
    </g>
   </g>
  </g>
 </g>
 <defs>
  <clipPath id="p85280b817f">
   <rect height="229.11875" width="366.446875" x="51.253125" y="14.3"/>
  </clipPath>
 </defs>
</svg>
