<?xml version="1.0" encoding="utf-8" standalone="no"?>
<!DOCTYPE svg PUBLIC "-//W3C//DTD SVG 1.1//EN"
  "http://www.w3.org/Graphics/SVG/1.1/DTD/svg11.dtd">
<!-- Created with matplotlib (http://matplotlib.org/) -->
<svg height="288pt" version="1.1" viewBox="0 0 432 288" width="432pt" xmlns="http://www.w3.org/2000/svg" xmlns:xlink="http://www.w3.org/1999/xlink">
 <defs>
  <style type="text/css">
*{stroke-linecap:butt;stroke-linejoin:round;}
  </style>
 </defs>
 <g id="figure_1">
  <g id="patch_1">
   <path d="M 0 288 
L 432 288 
L 432 0 
L 0 0 
z
" style="fill:#ba55d3;"/>
  </g>
  <g id="axes_1">
   <g id="patch_2">
    <path d="M 51.253125 243.121875 
L 409.2625 243.121875 
L 409.2625 14.3 
L 51.253125 14.3 
z
" style="fill:#ba55d3;"/>
   </g>
   <g id="matplotlib.axis_1">
    <g id="xtick_1">
     <g id="line2d_1">
      <defs>
       <path d="M 0 0 
L 0 3.5 
" id="m4f3eddd91e" style="stroke:#000000;stroke-width:0.8;"/>
      </defs>
      <g>
       <use style="stroke:#000000;stroke-width:0.8;" x="51.253125" xlink:href="#m4f3eddd91e" y="243.121875"/>
      </g>
     </g>
     <g id="text_1">
      <!-- 0.0 -->
      <defs>
       <path d="M 3.125 29.296875 
Q 3.90625 50 6.4375 56.046875 
Q 8.984375 62.109375 13.671875 66.015625 
Q 18.359375 69.921875 25.1875 69.921875 
Q 32.03125 69.921875 37.109375 64.25 
Q 42.1875 58.59375 43.75 50 
Q 45.3125 41.40625 44.71875 30.265625 
Q 44.140625 19.140625 40.8125 12.109375 
Q 37.5 5.078125 30.859375 2.34375 
Q 24.21875 -0.390625 17.578125 2.921875 
Q 10.9375 6.25 8.203125 11.71875 
Q 5.46875 17.1875 4.296875 23.234375 
Q 3.125 29.296875 3.90625 50 
z
M 12.890625 52.734375 
Q 10.546875 31.25 12.5 22.84375 
Q 14.453125 14.453125 18.9375 10.9375 
Q 23.4375 7.421875 28.125 9.5625 
Q 32.8125 11.71875 34.953125 18.15625 
Q 37.109375 24.609375 37.109375 32.21875 
Q 37.109375 39.84375 36.515625 46.09375 
Q 35.9375 52.34375 33 57.421875 
Q 30.078125 62.5 25.1875 62.6875 
Q 20.3125 62.890625 16.59375 57.8125 
Q 12.890625 52.734375 10.546875 31.25 
z
" id="SimHei-30"/>
       <path d="M 16.796875 1.953125 
L 7.8125 1.953125 
L 7.8125 10.546875 
L 16.796875 10.546875 
z
" id="SimHei-2e"/>
      </defs>
      <g transform="translate(42.253125 258.371875)scale(0.12 -0.12)">
       <use xlink:href="#SimHei-30"/>
       <use x="50" xlink:href="#SimHei-2e"/>
       <use x="100" xlink:href="#SimHei-30"/>
      </g>
     </g>
    </g>
    <g id="xtick_2">
     <g id="line2d_2">
      <g>
       <use style="stroke:#000000;stroke-width:0.8;" x="91.031944" xlink:href="#m4f3eddd91e" y="243.121875"/>
      </g>
     </g>
     <g id="text_2">
      <!-- 2.5 -->
      <defs>
       <path d="M 4.6875 3.90625 
Q 5.078125 9.765625 10.15625 14.453125 
Q 15.234375 19.140625 23.046875 29.09375 
Q 30.859375 39.0625 33.203125 44.53125 
Q 35.546875 50 34.953125 53.90625 
Q 34.375 57.8125 31.25 60.34375 
Q 28.125 62.890625 24.015625 62.5 
Q 19.921875 62.109375 16.203125 59.375 
Q 12.5 56.640625 10.546875 51.171875 
L 3.125 52.34375 
Q 6.25 61.328125 11.125 65.421875 
Q 16.015625 69.53125 22.65625 69.921875 
Q 26.5625 70.3125 29.6875 69.71875 
Q 32.8125 69.140625 36.125 66.984375 
Q 39.453125 64.84375 41.59375 60.546875 
Q 43.75 56.25 43.15625 50.1875 
Q 42.578125 44.140625 37.109375 35.734375 
Q 31.640625 27.34375 16.015625 9.375 
L 44.140625 9.375 
L 44.140625 2.34375 
L 4.6875 2.34375 
z
" id="SimHei-32"/>
       <path d="M 8.59375 20.703125 
Q 11.328125 10.15625 17.96875 8.984375 
Q 24.609375 7.8125 28.703125 10.34375 
Q 32.8125 12.890625 34.5625 16.984375 
Q 36.328125 21.09375 36.125 26.171875 
Q 35.9375 31.25 33.390625 34.765625 
Q 30.859375 38.28125 26.953125 39.453125 
Q 23.046875 40.625 18.15625 39.453125 
Q 13.28125 38.28125 10.15625 33.984375 
L 3.515625 34.765625 
Q 4.296875 37.109375 10.9375 68.359375 
L 41.796875 68.359375 
L 41.796875 61.328125 
L 16.796875 61.328125 
Q 14.84375 50.78125 12.890625 44.53125 
Q 18.75 47.265625 23.828125 47.0625 
Q 28.90625 46.875 33.59375 44.71875 
Q 38.28125 42.578125 40.421875 38.859375 
Q 42.578125 35.15625 43.546875 31.4375 
Q 44.53125 27.734375 44.328125 23.4375 
Q 44.140625 19.140625 42.578125 14.640625 
Q 41.015625 10.15625 37.890625 7.21875 
Q 34.765625 4.296875 30.265625 2.53125 
Q 25.78125 0.78125 19.921875 1.171875 
Q 14.0625 1.5625 8.78125 5.46875 
Q 3.515625 9.375 1.5625 18.75 
z
" id="SimHei-35"/>
      </defs>
      <g transform="translate(82.031944 258.371875)scale(0.12 -0.12)">
       <use xlink:href="#SimHei-32"/>
       <use x="50" xlink:href="#SimHei-2e"/>
       <use x="100" xlink:href="#SimHei-35"/>
      </g>
     </g>
    </g>
    <g id="xtick_3">
     <g id="line2d_3">
      <g>
       <use style="stroke:#000000;stroke-width:0.8;" x="130.810764" xlink:href="#m4f3eddd91e" y="243.121875"/>
      </g>
     </g>
     <g id="text_3">
      <!-- 5.0 -->
      <g transform="translate(121.810764 258.371875)scale(0.12 -0.12)">
       <use xlink:href="#SimHei-35"/>
       <use x="50" xlink:href="#SimHei-2e"/>
       <use x="100" xlink:href="#SimHei-30"/>
      </g>
     </g>
    </g>
    <g id="xtick_4">
     <g id="line2d_4">
      <g>
       <use style="stroke:#000000;stroke-width:0.8;" x="170.589583" xlink:href="#m4f3eddd91e" y="243.121875"/>
      </g>
     </g>
     <g id="text_4">
      <!-- 7.5 -->
      <defs>
       <path d="M 13.28125 2.34375 
Q 20.3125 32.03125 37.890625 61.328125 
L 4.296875 61.328125 
L 4.296875 68.359375 
L 46.09375 68.359375 
L 46.09375 61.71875 
Q 27.734375 32.03125 21.875 2.34375 
L 13.28125 2.34375 
z
" id="SimHei-37"/>
      </defs>
      <g transform="translate(161.589583 258.371875)scale(0.12 -0.12)">
       <use xlink:href="#SimHei-37"/>
       <use x="50" xlink:href="#SimHei-2e"/>
       <use x="100" xlink:href="#SimHei-35"/>
      </g>
     </g>
    </g>
    <g id="xtick_5">
     <g id="line2d_5">
      <g>
       <use style="stroke:#000000;stroke-width:0.8;" x="210.368403" xlink:href="#m4f3eddd91e" y="243.121875"/>
      </g>
     </g>
     <g id="text_5">
      <!-- 10.0 -->
      <defs>
       <path d="M 21.875 56.25 
Q 16.796875 51.171875 8.984375 46.484375 
L 8.984375 53.90625 
Q 18.75 60.546875 25 69.53125 
L 29.6875 69.53125 
L 29.6875 2.34375 
L 21.875 2.34375 
z
" id="SimHei-31"/>
      </defs>
      <g transform="translate(198.368403 258.371875)scale(0.12 -0.12)">
       <use xlink:href="#SimHei-31"/>
       <use x="50" xlink:href="#SimHei-30"/>
       <use x="100" xlink:href="#SimHei-2e"/>
       <use x="150" xlink:href="#SimHei-30"/>
      </g>
     </g>
    </g>
    <g id="xtick_6">
     <g id="line2d_6">
      <g>
       <use style="stroke:#000000;stroke-width:0.8;" x="250.147222" xlink:href="#m4f3eddd91e" y="243.121875"/>
      </g>
     </g>
     <g id="text_6">
      <!-- 12.5 -->
      <g transform="translate(238.147222 258.371875)scale(0.12 -0.12)">
       <use xlink:href="#SimHei-31"/>
       <use x="50" xlink:href="#SimHei-32"/>
       <use x="100" xlink:href="#SimHei-2e"/>
       <use x="150" xlink:href="#SimHei-35"/>
      </g>
     </g>
    </g>
    <g id="xtick_7">
     <g id="line2d_7">
      <g>
       <use style="stroke:#000000;stroke-width:0.8;" x="289.926042" xlink:href="#m4f3eddd91e" y="243.121875"/>
      </g>
     </g>
     <g id="text_7">
      <!-- 15.0 -->
      <g transform="translate(277.926042 258.371875)scale(0.12 -0.12)">
       <use xlink:href="#SimHei-31"/>
       <use x="50" xlink:href="#SimHei-35"/>
       <use x="100" xlink:href="#SimHei-2e"/>
       <use x="150" xlink:href="#SimHei-30"/>
      </g>
     </g>
    </g>
    <g id="xtick_8">
     <g id="line2d_8">
      <g>
       <use style="stroke:#000000;stroke-width:0.8;" x="329.704861" xlink:href="#m4f3eddd91e" y="243.121875"/>
      </g>
     </g>
     <g id="text_8">
      <!-- 17.5 -->
      <g transform="translate(317.704861 258.371875)scale(0.12 -0.12)">
       <use xlink:href="#SimHei-31"/>
       <use x="50" xlink:href="#SimHei-37"/>
       <use x="100" xlink:href="#SimHei-2e"/>
       <use x="150" xlink:href="#SimHei-35"/>
      </g>
     </g>
    </g>
    <g id="xtick_9">
     <g id="line2d_9">
      <g>
       <use style="stroke:#000000;stroke-width:0.8;" x="369.483681" xlink:href="#m4f3eddd91e" y="243.121875"/>
      </g>
     </g>
     <g id="text_9">
      <!-- 20.0 -->
      <g transform="translate(357.483681 258.371875)scale(0.12 -0.12)">
       <use xlink:href="#SimHei-32"/>
       <use x="50" xlink:href="#SimHei-30"/>
       <use x="100" xlink:href="#SimHei-2e"/>
       <use x="150" xlink:href="#SimHei-30"/>
      </g>
     </g>
    </g>
    <g id="xtick_10">
     <g id="line2d_10">
      <g>
       <use style="stroke:#000000;stroke-width:0.8;" x="409.2625" xlink:href="#m4f3eddd91e" y="243.121875"/>
      </g>
     </g>
     <g id="text_10">
      <!-- 22.5 -->
      <g transform="translate(397.2625 258.371875)scale(0.12 -0.12)">
       <use xlink:href="#SimHei-32"/>
       <use x="50" xlink:href="#SimHei-32"/>
       <use x="100" xlink:href="#SimHei-2e"/>
       <use x="150" xlink:href="#SimHei-35"/>
      </g>
     </g>
    </g>
    <g id="text_11">
     <!-- 沉降速率(mm/year) -->
     <defs>
      <path d="M 76.5625 50 
Q 76.171875 42.96875 76.171875 35.9375 
L 76.171875 3.515625 
Q 76.171875 1.171875 78.125 0.78125 
Q 80.078125 0.390625 82.8125 0.578125 
Q 85.546875 0.78125 86.328125 2.53125 
Q 87.109375 4.296875 87.890625 12.5 
Q 92.1875 10.546875 96.484375 9.765625 
Q 94.53125 -0.390625 92.578125 -3.3125 
Q 90.625 -6.25 85.546875 -6.25 
L 76.953125 -6.25 
Q 68.75 -6.25 68.75 1.171875 
L 68.75 42.96875 
L 53.90625 42.96875 
Q 53.90625 32.8125 53.125 24.21875 
Q 52.34375 15.625 49.015625 7.609375 
Q 45.703125 -0.390625 35.9375 -9.375 
Q 32.8125 -6.25 27.734375 -3.515625 
Q 35.9375 1.5625 39.84375 7.609375 
Q 43.75 13.671875 44.71875 19.53125 
Q 45.703125 25.390625 46.09375 33.59375 
Q 46.484375 41.796875 46.09375 50 
L 76.5625 50 
z
M 92.1875 73.828125 
Q 91.796875 68.75 91.796875 63.671875 
Q 91.796875 58.59375 92.1875 53.515625 
L 83.59375 53.515625 
L 83.59375 66.796875 
L 40.234375 66.796875 
L 40.234375 53.125 
L 32.03125 53.125 
Q 32.421875 58.59375 32.421875 63.671875 
Q 32.421875 68.75 32.03125 73.828125 
L 92.1875 73.828125 
z
M 32.421875 25.78125 
Q 30.078125 22.65625 23.234375 9.953125 
Q 16.40625 -2.734375 14.0625 -7.421875 
Q 10.15625 -3.90625 4.6875 -0.78125 
Q 10.15625 4.296875 16.203125 14.84375 
Q 22.265625 25.390625 25 30.859375 
Q 28.125 28.125 32.421875 25.78125 
z
M 8.59375 52.734375 
Q 19.921875 46.875 26.5625 42.96875 
Q 23.4375 38.671875 21.484375 35.15625 
Q 14.0625 41.40625 4.296875 45.3125 
Q 6.640625 48.4375 8.59375 52.734375 
z
M 14.84375 78.90625 
Q 22.65625 72.65625 29.6875 67.1875 
Q 25.78125 63.671875 23.828125 60.15625 
Q 17.1875 67.1875 8.984375 71.875 
Q 12.5 75.390625 14.84375 78.90625 
z
" id="SimHei-6c89"/>
      <path d="M 63.671875 78.90625 
Q 60.15625 75 58.984375 72.265625 
L 88.28125 72.265625 
Q 84.765625 65.234375 81.046875 59.953125 
Q 77.34375 54.6875 72.65625 50 
Q 76.5625 47.265625 82.421875 45.703125 
Q 88.28125 44.140625 96.875 43.75 
Q 94.140625 39.453125 93.359375 35.9375 
Q 83.984375 37.5 77.34375 40.03125 
Q 70.703125 42.578125 66.796875 45.3125 
Q 61.71875 42.1875 55.46875 39.0625 
Q 49.21875 35.9375 39.453125 33.203125 
Q 38.28125 36.71875 35.15625 39.84375 
Q 43.359375 41.40625 50.1875 44.140625 
Q 57.03125 46.875 60.546875 50 
Q 55.46875 55.078125 51.953125 60.546875 
Q 46.875 53.90625 44.140625 51.171875 
Q 41.40625 53.90625 38.28125 55.46875 
Q 43.359375 60.15625 48.046875 67.578125 
Q 52.734375 75 55.859375 82.8125 
Q 61.71875 79.6875 63.671875 78.90625 
z
M 36.71875 77.734375 
Q 34.765625 72.65625 31.640625 63.46875 
Q 28.515625 54.296875 26.171875 46.484375 
Q 32.421875 38.28125 34.375 33.984375 
Q 36.328125 29.6875 35.734375 24.21875 
Q 35.15625 18.75 31.4375 15.8125 
Q 27.734375 12.890625 21.09375 12.109375 
Q 20.3125 16.015625 17.96875 20.703125 
Q 25.78125 20.3125 27.140625 23.625 
Q 28.515625 26.953125 27.921875 30.65625 
Q 27.34375 34.375 18.75 45.703125 
L 22.65625 56.25 
Q 25 62.890625 26.953125 71.09375 
L 15.234375 71.09375 
L 15.234375 -9.375 
L 7.8125 -9.375 
Q 8.203125 5.078125 8.203125 13.671875 
L 8.203125 58.59375 
Q 8.203125 67.578125 7.8125 77.734375 
L 36.71875 77.734375 
z
M 79.6875 32.421875 
Q 82.421875 32.421875 89.453125 32.8125 
L 89.453125 25.78125 
Q 85.15625 26.171875 80.46875 26.171875 
L 71.484375 26.171875 
L 71.484375 14.0625 
L 81.25 14.0625 
Q 88.671875 14.0625 94.53125 14.453125 
L 94.53125 7.421875 
Q 89.0625 7.8125 81.640625 7.8125 
L 71.484375 7.8125 
L 71.484375 1.953125 
Q 71.484375 -3.90625 71.875 -9.375 
L 64.0625 -9.375 
Q 64.453125 -3.515625 64.453125 1.5625 
L 64.453125 7.8125 
L 37.109375 7.8125 
Q 39.0625 17.1875 39.0625 21.875 
L 47.265625 20.703125 
Q 45.703125 16.015625 45.703125 14.0625 
L 64.453125 14.0625 
L 64.453125 26.171875 
L 54.296875 26.171875 
Q 48.4375 26.171875 43.359375 25.78125 
L 43.359375 32.8125 
Q 50.390625 32.421875 54.296875 32.421875 
L 64.453125 32.421875 
Q 64.453125 37.109375 64.0625 41.015625 
L 71.484375 41.015625 
Q 71.09375 34.765625 71.09375 32.421875 
z
M 66.796875 54.296875 
Q 71.875 58.203125 76.953125 66.40625 
L 55.46875 66.40625 
Q 62.890625 57.03125 66.796875 54.296875 
z
" id="SimHei-964d"/>
      <path d="M 58.203125 71.875 
Q 58.203125 77.734375 57.8125 82.03125 
L 65.234375 82.03125 
Q 64.84375 78.125 64.84375 71.875 
L 80.859375 71.875 
Q 86.71875 71.875 92.578125 72.265625 
L 92.578125 65.234375 
Q 86.71875 65.625 80.859375 65.625 
L 64.84375 65.625 
L 64.84375 58.203125 
L 89.0625 58.203125 
Q 88.671875 51.953125 88.671875 46.09375 
Q 88.671875 40.234375 89.0625 34.375 
L 64.84375 34.375 
Q 64.84375 11.328125 65.234375 3.515625 
L 57.8125 3.515625 
Q 58.203125 11.328125 58.203125 30.078125 
Q 53.515625 23.046875 48.4375 17.578125 
Q 43.359375 12.109375 35.9375 6.640625 
Q 33.203125 9.765625 28.515625 12.109375 
Q 35.546875 14.84375 42.375 21.671875 
Q 49.21875 28.515625 51.953125 34.375 
L 34.375 34.375 
Q 34.765625 41.015625 34.765625 46.09375 
Q 34.765625 51.5625 34.375 58.203125 
L 58.203125 58.203125 
L 58.203125 65.625 
L 41.796875 65.625 
Q 36.328125 65.625 30.078125 65.234375 
L 30.078125 72.265625 
Q 36.328125 71.875 41.796875 71.875 
z
M 23.4375 44.921875 
Q 23.046875 37.5 23.046875 30.078125 
L 23.046875 8.59375 
Q 33.59375 -0.390625 58.203125 -0.578125 
Q 82.8125 -0.78125 96.875 1.5625 
Q 94.140625 -2.734375 93.75 -8.203125 
Q 61.328125 -8.59375 48.234375 -7.421875 
Q 35.15625 -6.25 28.125 -2.140625 
Q 21.09375 1.953125 17.375 -0.96875 
Q 13.671875 -3.90625 9.375 -9.375 
Q 7.421875 -5.859375 3.125 -3.125 
Q 7.421875 0.390625 15.625 6.25 
L 15.625 38.28125 
Q 10.546875 38.28125 4.296875 37.890625 
L 4.296875 45.3125 
Q 10.9375 44.921875 15.625 44.921875 
z
M 71.09375 32.03125 
Q 77.34375 26.5625 92.578125 14.453125 
Q 89.453125 12.109375 86.71875 8.59375 
Q 79.296875 15.625 66.40625 26.171875 
Q 68.75 28.515625 71.09375 32.03125 
z
M 58.203125 40.234375 
L 58.203125 51.953125 
L 41.796875 51.953125 
L 41.796875 40.234375 
z
M 81.25 40.234375 
L 81.25 51.953125 
L 64.84375 51.953125 
L 64.84375 40.234375 
z
M 17.1875 77.34375 
Q 22.265625 67.96875 25 60.15625 
Q 21.09375 58.59375 16.40625 56.640625 
Q 15.234375 63.28125 10.15625 75 
Q 14.0625 75.78125 17.1875 77.34375 
z
" id="SimHei-901f"/>
      <path d="M 51.953125 80.46875 
Q 53.515625 76.5625 55.46875 70.703125 
L 75 70.703125 
Q 82.03125 70.703125 90.625 71.09375 
L 90.625 64.453125 
Q 82.03125 65.234375 74.609375 65.234375 
L 43.75 65.234375 
Q 46.484375 63.28125 51.5625 60.9375 
Q 48.046875 58.59375 44.921875 55.265625 
Q 41.796875 51.953125 38.671875 48.828125 
L 51.171875 48.828125 
Q 55.859375 53.515625 58.984375 58.984375 
Q 62.5 56.25 66.796875 53.515625 
Q 61.71875 50.78125 56.25 44.921875 
Q 50.78125 39.0625 41.015625 31.25 
L 60.15625 32.8125 
Q 58.203125 35.15625 56.25 37.890625 
Q 58.59375 38.671875 62.5 41.40625 
Q 66.40625 36.71875 73.4375 26.5625 
Q 69.921875 25.390625 66.015625 22.65625 
Q 65.234375 25 62.890625 27.734375 
Q 57.8125 27.34375 53.515625 27.34375 
L 53.515625 16.40625 
L 80.46875 16.40625 
Q 88.671875 16.40625 95.3125 16.796875 
L 95.3125 10.15625 
Q 89.0625 10.546875 80.078125 10.546875 
L 53.515625 10.546875 
L 53.515625 2.734375 
Q 53.515625 -4.6875 53.90625 -9.765625 
L 45.3125 -9.765625 
Q 45.703125 -4.6875 45.703125 2.734375 
L 45.703125 10.546875 
L 20.703125 10.546875 
Q 12.890625 10.546875 5.078125 10.15625 
L 5.078125 16.796875 
Q 12.890625 16.40625 21.09375 16.40625 
L 45.703125 16.40625 
L 45.703125 26.5625 
Q 42.1875 26.171875 38.671875 25.578125 
Q 35.15625 25 31.640625 23.828125 
Q 30.46875 27.734375 28.90625 31.25 
Q 32.421875 31.640625 36.328125 34.375 
Q 40.234375 37.109375 46.484375 43.75 
Q 35.9375 42.578125 31.640625 41.015625 
Q 30.859375 44.921875 28.90625 49.609375 
Q 32.421875 49.609375 36.328125 54.484375 
Q 40.234375 59.375 42.96875 65.234375 
L 26.5625 65.234375 
Q 17.96875 65.234375 10.15625 64.453125 
L 10.15625 71.09375 
Q 17.96875 70.703125 24.21875 70.703125 
L 46.484375 70.703125 
Q 45.3125 75.390625 43.75 78.515625 
Q 47.265625 79.296875 51.953125 80.46875 
z
M 25.390625 40.234375 
Q 26.953125 37.5 28.515625 34.375 
Q 24.609375 32.03125 20.703125 29.09375 
Q 16.796875 26.171875 12.5 22.265625 
Q 9.765625 26.171875 7.421875 29.296875 
Q 12.5 31.640625 17.1875 34.5625 
Q 21.875 37.5 25.390625 40.234375 
z
M 75.78125 41.40625 
Q 80.078125 38.671875 83.390625 36.515625 
Q 86.71875 34.375 91.796875 30.46875 
Q 88.671875 28.125 85.9375 25 
Q 82.8125 27.734375 79.09375 30.859375 
Q 75.390625 33.984375 71.484375 36.328125 
Q 73.828125 38.671875 75.78125 41.40625 
z
M 89.453125 55.078125 
Q 86.71875 53.90625 82.8125 50.96875 
Q 78.90625 48.046875 75 44.140625 
Q 72.265625 47.65625 69.921875 49.609375 
Q 73.4375 51.953125 76.171875 54.484375 
Q 78.90625 57.03125 82.8125 61.328125 
Q 86.328125 57.8125 89.453125 55.078125 
z
M 16.40625 60.15625 
Q 22.265625 56.25 27.734375 51.171875 
Q 24.609375 48.4375 22.265625 45.703125 
Q 16.796875 51.5625 10.546875 55.078125 
Q 13.671875 57.8125 16.40625 60.15625 
z
" id="SimHei-7387"/>
      <path d="M 46.484375 -3.125 
L 42.1875 -7.421875 
Q 32.421875 1.953125 27.53125 12.109375 
Q 22.65625 22.265625 22.65625 35.15625 
Q 22.65625 48.046875 27.53125 58.203125 
Q 32.421875 68.359375 42.1875 78.125 
L 46.484375 73.828125 
Q 37.5 65.234375 33 56.046875 
Q 28.515625 46.875 28.515625 35.15625 
Q 28.515625 23.4375 33 14.25 
Q 37.5 5.078125 46.484375 -3.125 
z
" id="SimHei-28"/>
      <path d="M 47.65625 1.953125 
L 39.84375 1.953125 
L 39.84375 33.59375 
Q 39.84375 35.9375 39.0625 37.5 
Q 38.28125 39.0625 35.9375 39.0625 
Q 33.203125 39.0625 30.859375 36.125 
Q 28.515625 33.203125 28.515625 28.515625 
L 28.515625 1.953125 
L 20.703125 1.953125 
L 20.703125 33.59375 
Q 20.703125 35.9375 19.921875 37.5 
Q 19.140625 39.0625 16.796875 39.0625 
Q 14.0625 39.0625 11.71875 36.125 
Q 9.375 33.203125 9.375 28.515625 
L 9.375 1.953125 
L 1.5625 1.953125 
L 1.5625 45.703125 
L 9.375 45.703125 
L 9.375 39.84375 
Q 11.328125 42.96875 14.0625 44.71875 
Q 16.796875 46.484375 19.921875 46.484375 
Q 23.046875 46.484375 25.1875 44.71875 
Q 27.34375 42.96875 28.125 39.84375 
Q 30.078125 42.96875 32.609375 44.71875 
Q 35.15625 46.484375 38.28125 46.484375 
Q 42.96875 46.484375 45.3125 43.9375 
Q 47.65625 41.40625 47.65625 36.71875 
z
" id="SimHei-6d"/>
      <path d="M 46.875 71.09375 
L 5.46875 -2.734375 
L 1.5625 -0.390625 
L 42.96875 73.4375 
z
" id="SimHei-2f"/>
      <path d="M 45.3125 45.703125 
L 27.34375 -1.5625 
Q 25.78125 -7.03125 22.65625 -9.765625 
Q 19.53125 -12.5 14.84375 -12.5 
Q 12.890625 -12.5 11.125 -12.296875 
Q 9.375 -12.109375 7.8125 -11.328125 
L 7.8125 -3.515625 
Q 9.375 -4.296875 10.9375 -4.6875 
Q 12.5 -5.078125 13.671875 -5.078125 
Q 16.796875 -5.078125 17.96875 -4.09375 
Q 19.140625 -3.125 20.3125 0.390625 
L 3.125 45.703125 
L 11.71875 45.703125 
L 24.21875 11.328125 
L 24.609375 11.328125 
L 36.71875 45.703125 
z
" id="SimHei-79"/>
      <path d="M 44.53125 16.796875 
Q 43.75 9.765625 38.28125 5.46875 
Q 32.8125 1.171875 25.390625 1.171875 
Q 16.015625 1.171875 9.953125 7.21875 
Q 3.90625 13.28125 3.90625 23.828125 
Q 3.90625 34.375 9.953125 40.421875 
Q 16.015625 46.484375 25.390625 46.484375 
Q 33.59375 46.484375 38.859375 41.203125 
Q 44.140625 35.9375 44.140625 23.828125 
L 12.5 23.828125 
Q 12.5 15.234375 16.203125 11.71875 
Q 19.921875 8.203125 25.390625 8.203125 
Q 29.6875 8.203125 32.421875 10.34375 
Q 35.15625 12.5 35.9375 16.796875 
z
M 35.15625 30.078125 
Q 34.375 35.546875 31.640625 37.6875 
Q 28.90625 39.84375 24.609375 39.84375 
Q 20.703125 39.84375 17.578125 37.6875 
Q 14.453125 35.546875 12.890625 30.078125 
z
" id="SimHei-65"/>
      <path d="M 44.921875 1.953125 
L 35.546875 1.953125 
Q 34.765625 2.734375 34.375 4.09375 
Q 33.984375 5.46875 33.984375 7.421875 
Q 31.25 4.296875 27.34375 2.734375 
Q 23.4375 1.171875 19.140625 1.171875 
Q 12.890625 1.171875 8.59375 4.296875 
Q 4.296875 7.421875 4.296875 13.28125 
Q 4.296875 19.140625 8.203125 22.65625 
Q 12.109375 26.171875 20.3125 27.34375 
Q 25.78125 28.125 29.875 29.296875 
Q 33.984375 30.46875 33.984375 32.421875 
Q 33.984375 34.765625 32.21875 37.109375 
Q 30.46875 39.453125 24.609375 39.453125 
Q 19.921875 39.453125 17.765625 37.6875 
Q 15.625 35.9375 14.84375 32.8125 
L 6.25 32.8125 
Q 7.03125 39.0625 11.90625 42.765625 
Q 16.796875 46.484375 24.609375 46.484375 
Q 33.203125 46.484375 37.5 42.578125 
Q 41.796875 38.671875 41.796875 31.640625 
L 41.796875 10.15625 
Q 41.796875 7.8125 42.578125 5.859375 
Q 43.359375 3.90625 44.921875 1.953125 
z
M 33.984375 16.40625 
L 33.984375 24.21875 
Q 31.640625 23.4375 29.484375 22.84375 
Q 27.34375 22.265625 22.265625 21.484375 
Q 16.40625 20.703125 14.640625 18.75 
Q 12.890625 16.796875 12.890625 14.0625 
Q 12.890625 11.71875 14.640625 9.953125 
Q 16.40625 8.203125 19.921875 8.203125 
Q 23.4375 8.203125 27.53125 10.15625 
Q 31.640625 12.109375 33.984375 16.40625 
z
" id="SimHei-61"/>
      <path d="M 39.0625 37.890625 
Q 31.640625 39.0625 26.5625 35.734375 
Q 21.484375 32.421875 17.96875 24.21875 
L 17.96875 1.953125 
L 10.15625 1.953125 
L 10.15625 45.703125 
L 17.96875 45.703125 
L 17.96875 34.375 
Q 21.484375 40.625 26.75 43.546875 
Q 32.03125 46.484375 39.0625 46.484375 
z
" id="SimHei-72"/>
      <path d="M 26.171875 35.15625 
Q 26.171875 22.265625 21.28125 12.109375 
Q 16.40625 1.953125 6.640625 -7.421875 
L 2.34375 -3.125 
Q 11.328125 5.078125 15.8125 14.25 
Q 20.3125 23.4375 20.3125 35.15625 
Q 20.3125 46.875 15.8125 56.046875 
Q 11.328125 65.234375 2.34375 73.828125 
L 6.640625 78.125 
Q 16.40625 68.359375 21.28125 58.203125 
Q 26.171875 48.046875 26.171875 35.15625 
z
" id="SimHei-29"/>
     </defs>
     <g transform="translate(179.257813 273.809375)scale(0.12 -0.12)">
      <use xlink:href="#SimHei-6c89"/>
      <use x="100" xlink:href="#SimHei-964d"/>
      <use x="200" xlink:href="#SimHei-901f"/>
      <use x="300" xlink:href="#SimHei-7387"/>
      <use x="400" xlink:href="#SimHei-28"/>
      <use x="450" xlink:href="#SimHei-6d"/>
      <use x="500" xlink:href="#SimHei-6d"/>
      <use x="550" xlink:href="#SimHei-2f"/>
      <use x="600" xlink:href="#SimHei-79"/>
      <use x="650" xlink:href="#SimHei-65"/>
      <use x="700" xlink:href="#SimHei-61"/>
      <use x="750" xlink:href="#SimHei-72"/>
      <use x="800" xlink:href="#SimHei-29"/>
     </g>
    </g>
   </g>
   <g id="matplotlib.axis_2">
    <g id="ytick_1">
     <g id="line2d_11">
      <defs>
       <path d="M 0 0 
L -3.5 0 
" id="m4b6ca4b4c2" style="stroke:#000000;stroke-width:0.8;"/>
      </defs>
      <g>
       <use style="stroke:#000000;stroke-width:0.8;" x="51.253125" xlink:href="#m4b6ca4b4c2" y="232.720881"/>
      </g>
     </g>
     <g id="text_12">
      <!-- 0.0 -->
      <g transform="translate(26.253125 236.845881)scale(0.12 -0.12)">
       <use xlink:href="#SimHei-30"/>
       <use x="50" xlink:href="#SimHei-2e"/>
       <use x="100" xlink:href="#SimHei-30"/>
      </g>
     </g>
    </g>
    <g id="ytick_2">
     <g id="line2d_12">
      <g>
       <use style="stroke:#000000;stroke-width:0.8;" x="51.253125" xlink:href="#m4b6ca4b4c2" y="211.918892"/>
      </g>
     </g>
     <g id="text_13">
      <!-- 0.1 -->
      <g transform="translate(26.253125 216.043892)scale(0.12 -0.12)">
       <use xlink:href="#SimHei-30"/>
       <use x="50" xlink:href="#SimHei-2e"/>
       <use x="100" xlink:href="#SimHei-31"/>
      </g>
     </g>
    </g>
    <g id="ytick_3">
     <g id="line2d_13">
      <g>
       <use style="stroke:#000000;stroke-width:0.8;" x="51.253125" xlink:href="#m4b6ca4b4c2" y="191.116903"/>
      </g>
     </g>
     <g id="text_14">
      <!-- 0.2 -->
      <g transform="translate(26.253125 195.241903)scale(0.12 -0.12)">
       <use xlink:href="#SimHei-30"/>
       <use x="50" xlink:href="#SimHei-2e"/>
       <use x="100" xlink:href="#SimHei-32"/>
      </g>
     </g>
    </g>
    <g id="ytick_4">
     <g id="line2d_14">
      <g>
       <use style="stroke:#000000;stroke-width:0.8;" x="51.253125" xlink:href="#m4b6ca4b4c2" y="170.314915"/>
      </g>
     </g>
     <g id="text_15">
      <!-- 0.3 -->
      <defs>
       <path d="M 3.90625 19.140625 
L 10.9375 20.3125 
Q 12.5 15.234375 16.015625 11.90625 
Q 19.53125 8.59375 24.796875 8.78125 
Q 30.078125 8.984375 33.203125 13.078125 
Q 36.328125 17.1875 35.9375 22.453125 
Q 35.546875 27.734375 31.828125 30.65625 
Q 28.125 33.59375 19.921875 34.765625 
L 19.921875 39.84375 
Q 28.125 40.625 31.828125 44.140625 
Q 35.546875 47.65625 35.15625 53.3125 
Q 34.765625 58.984375 30.078125 61.515625 
Q 25.390625 64.0625 20.109375 62.109375 
Q 14.84375 60.15625 11.71875 51.171875 
L 4.6875 52.34375 
Q 7.03125 59.375 11.125 64.0625 
Q 15.234375 68.75 22.265625 69.53125 
Q 29.296875 70.3125 34.5625 67.765625 
Q 39.84375 65.234375 41.984375 59.953125 
Q 44.140625 54.6875 42.578125 48.4375 
Q 41.015625 42.1875 33.59375 37.5 
Q 39.0625 35.15625 41.984375 30.46875 
Q 44.921875 25.78125 43.9375 18.15625 
Q 42.96875 10.546875 37.109375 5.859375 
Q 31.25 1.171875 23.828125 1.359375 
Q 16.40625 1.5625 10.9375 6.046875 
Q 5.46875 10.546875 3.90625 19.140625 
z
" id="SimHei-33"/>
      </defs>
      <g transform="translate(26.253125 174.439915)scale(0.12 -0.12)">
       <use xlink:href="#SimHei-30"/>
       <use x="50" xlink:href="#SimHei-2e"/>
       <use x="100" xlink:href="#SimHei-33"/>
      </g>
     </g>
    </g>
    <g id="ytick_5">
     <g id="line2d_15">
      <g>
       <use style="stroke:#000000;stroke-width:0.8;" x="51.253125" xlink:href="#m4b6ca4b4c2" y="149.512926"/>
      </g>
     </g>
     <g id="text_16">
      <!-- 0.4 -->
      <defs>
       <path d="M 31.25 17.1875 
L 1.171875 17.1875 
L 1.171875 23.828125 
L 32.8125 69.53125 
L 38.671875 69.53125 
L 38.671875 23.828125 
L 48.046875 23.828125 
L 48.046875 17.1875 
L 38.671875 17.1875 
L 38.671875 2.34375 
L 31.25 2.34375 
z
M 31.25 23.828125 
L 31.25 54.6875 
L 9.375 23.828125 
z
" id="SimHei-34"/>
      </defs>
      <g transform="translate(26.253125 153.637926)scale(0.12 -0.12)">
       <use xlink:href="#SimHei-30"/>
       <use x="50" xlink:href="#SimHei-2e"/>
       <use x="100" xlink:href="#SimHei-34"/>
      </g>
     </g>
    </g>
    <g id="ytick_6">
     <g id="line2d_16">
      <g>
       <use style="stroke:#000000;stroke-width:0.8;" x="51.253125" xlink:href="#m4b6ca4b4c2" y="128.710938"/>
      </g>
     </g>
     <g id="text_17">
      <!-- 0.5 -->
      <g transform="translate(26.253125 132.835938)scale(0.12 -0.12)">
       <use xlink:href="#SimHei-30"/>
       <use x="50" xlink:href="#SimHei-2e"/>
       <use x="100" xlink:href="#SimHei-35"/>
      </g>
     </g>
    </g>
    <g id="ytick_7">
     <g id="line2d_17">
      <g>
       <use style="stroke:#000000;stroke-width:0.8;" x="51.253125" xlink:href="#m4b6ca4b4c2" y="107.908949"/>
      </g>
     </g>
     <g id="text_18">
      <!-- 0.6 -->
      <defs>
       <path d="M 3.515625 19.53125 
Q 4.296875 30.859375 6.046875 34.765625 
Q 7.8125 38.671875 11.328125 44.53125 
L 27.34375 69.53125 
L 36.328125 69.53125 
L 19.921875 43.75 
Q 30.46875 46.484375 36.71875 42.96875 
Q 42.96875 39.453125 45.109375 34.953125 
Q 47.265625 30.46875 47.453125 25.1875 
Q 47.65625 19.921875 45.890625 14.84375 
Q 44.140625 9.765625 39.640625 5.65625 
Q 35.15625 1.5625 27.140625 1.171875 
Q 19.140625 0.78125 13.46875 4.09375 
Q 7.8125 7.421875 5.65625 13.46875 
Q 3.515625 19.53125 4.296875 30.859375 
z
M 12.5 16.015625 
Q 19.53125 8.59375 25.390625 8.203125 
Q 31.25 7.8125 35.15625 12.109375 
Q 39.0625 16.40625 39.0625 24.609375 
Q 39.0625 32.8125 34.171875 35.9375 
Q 29.296875 39.0625 23.234375 38.28125 
Q 17.1875 37.5 14.453125 32.421875 
Q 11.71875 27.34375 12.109375 21.671875 
Q 12.5 16.015625 19.53125 8.59375 
z
" id="SimHei-36"/>
      </defs>
      <g transform="translate(26.253125 112.033949)scale(0.12 -0.12)">
       <use xlink:href="#SimHei-30"/>
       <use x="50" xlink:href="#SimHei-2e"/>
       <use x="100" xlink:href="#SimHei-36"/>
      </g>
     </g>
    </g>
    <g id="ytick_8">
     <g id="line2d_18">
      <g>
       <use style="stroke:#000000;stroke-width:0.8;" x="51.253125" xlink:href="#m4b6ca4b4c2" y="87.10696"/>
      </g>
     </g>
     <g id="text_19">
      <!-- 0.7 -->
      <g transform="translate(26.253125 91.23196)scale(0.12 -0.12)">
       <use xlink:href="#SimHei-30"/>
       <use x="50" xlink:href="#SimHei-2e"/>
       <use x="100" xlink:href="#SimHei-37"/>
      </g>
     </g>
    </g>
    <g id="ytick_9">
     <g id="line2d_19">
      <g>
       <use style="stroke:#000000;stroke-width:0.8;" x="51.253125" xlink:href="#m4b6ca4b4c2" y="66.304972"/>
      </g>
     </g>
     <g id="text_20">
      <!-- 0.8 -->
      <defs>
       <path d="M 2.734375 16.796875 
Q 2.734375 26.171875 5.078125 30.65625 
Q 7.421875 35.15625 12.890625 37.890625 
Q 8.203125 40.625 6.640625 43.9375 
Q 5.078125 47.265625 4.875 51.5625 
Q 4.6875 55.859375 6.046875 58.984375 
Q 7.421875 62.109375 10.15625 64.84375 
Q 12.890625 67.578125 16.203125 68.546875 
Q 19.53125 69.53125 23.4375 69.53125 
Q 27.34375 69.53125 30.46875 68.75 
Q 33.59375 67.96875 37.109375 65.421875 
Q 40.625 62.890625 42.1875 58.203125 
Q 43.75 53.515625 41.984375 47.265625 
Q 40.234375 41.015625 32.8125 37.5 
Q 39.453125 35.546875 42.1875 31.4375 
Q 44.921875 27.34375 44.921875 21.484375 
Q 44.921875 15.625 43.15625 12.109375 
Q 41.40625 8.59375 39.25 6.25 
Q 37.109375 3.90625 33.390625 2.53125 
Q 29.6875 1.171875 24.015625 1.171875 
Q 18.359375 1.171875 14.25 2.53125 
Q 10.15625 3.90625 7.421875 6.640625 
Q 4.6875 9.375 3.703125 13.078125 
Q 2.734375 16.796875 2.734375 26.171875 
z
M 10.9375 26.5625 
Q 10.546875 17.1875 12.296875 13.671875 
Q 14.0625 10.15625 18.75 9.171875 
Q 23.4375 8.203125 28.515625 9.375 
Q 33.59375 10.546875 35.546875 14.84375 
Q 37.5 19.140625 36.90625 23.4375 
Q 36.328125 27.734375 32.03125 30.65625 
Q 27.734375 33.59375 22.65625 33.203125 
Q 17.578125 32.8125 14.25 29.6875 
Q 10.9375 26.5625 10.546875 17.1875 
z
M 12.109375 56.25 
Q 12.109375 48.4375 14.84375 44.921875 
Q 17.578125 41.40625 23.4375 41.40625 
Q 29.296875 41.40625 32.21875 44.921875 
Q 35.15625 48.4375 34.953125 53.3125 
Q 34.765625 58.203125 31.4375 60.546875 
Q 28.125 62.890625 22.453125 62.5 
Q 16.796875 62.109375 14.453125 59.171875 
Q 12.109375 56.25 12.109375 48.4375 
z
" id="SimHei-38"/>
      </defs>
      <g transform="translate(26.253125 70.429972)scale(0.12 -0.12)">
       <use xlink:href="#SimHei-30"/>
       <use x="50" xlink:href="#SimHei-2e"/>
       <use x="100" xlink:href="#SimHei-38"/>
      </g>
     </g>
    </g>
    <g id="ytick_10">
     <g id="line2d_20">
      <g>
       <use style="stroke:#000000;stroke-width:0.8;" x="51.253125" xlink:href="#m4b6ca4b4c2" y="45.502983"/>
      </g>
     </g>
     <g id="text_21">
      <!-- 0.9 -->
      <defs>
       <path d="M 12.5 1.171875 
Q 21.09375 15.625 26.5625 27.34375 
Q 16.796875 25.78125 10.34375 29.875 
Q 3.90625 33.984375 2.53125 41.015625 
Q 1.171875 48.046875 2.734375 53.703125 
Q 4.296875 59.375 7.609375 63.078125 
Q 10.9375 66.796875 15.625 68.359375 
Q 20.3125 69.921875 24.015625 69.921875 
Q 27.734375 69.921875 31.640625 68.359375 
Q 35.546875 66.796875 38.671875 63.671875 
Q 41.796875 60.546875 42.96875 57.21875 
Q 44.140625 53.90625 44.140625 48.625 
Q 44.140625 43.359375 40.234375 35.15625 
Q 36.328125 26.953125 21.09375 1.171875 
z
M 9.765625 50 
Q 10.9375 39.84375 14.640625 36.515625 
Q 18.359375 33.203125 22.65625 33.59375 
Q 26.953125 33.984375 29.484375 35.9375 
Q 32.03125 37.890625 34.375 42.578125 
Q 35.9375 48.4375 35.15625 52.53125 
Q 34.375 56.640625 31.046875 59.375 
Q 27.734375 62.109375 23.828125 62.109375 
Q 21.484375 62.5 17.765625 60.9375 
Q 14.0625 59.375 11.90625 54.6875 
Q 9.765625 50 10.9375 39.84375 
z
" id="SimHei-39"/>
      </defs>
      <g transform="translate(26.253125 49.627983)scale(0.12 -0.12)">
       <use xlink:href="#SimHei-30"/>
       <use x="50" xlink:href="#SimHei-2e"/>
       <use x="100" xlink:href="#SimHei-39"/>
      </g>
     </g>
    </g>
    <g id="ytick_11">
     <g id="line2d_21">
      <g>
       <use style="stroke:#000000;stroke-width:0.8;" x="51.253125" xlink:href="#m4b6ca4b4c2" y="24.700994"/>
      </g>
     </g>
     <g id="text_22">
      <!-- 1.0 -->
      <g transform="translate(26.253125 28.825994)scale(0.12 -0.12)">
       <use xlink:href="#SimHei-31"/>
       <use x="50" xlink:href="#SimHei-2e"/>
       <use x="100" xlink:href="#SimHei-30"/>
      </g>
     </g>
    </g>
    <g id="text_23">
     <!-- 隶属度 -->
     <defs>
      <path d="M 52.734375 80.859375 
Q 52.34375 77.34375 52.34375 71.875 
L 80.46875 71.875 
Q 80.078125 64.84375 80.078125 57.03125 
Q 87.109375 57.03125 93.359375 57.421875 
L 93.359375 50.390625 
Q 87.109375 50.78125 80.078125 50.78125 
Q 80.078125 43.359375 80.46875 35.546875 
L 52.34375 35.546875 
L 52.34375 30.078125 
Q 57.421875 22.65625 62.109375 19.140625 
Q 66.796875 21.484375 71.28125 25.390625 
Q 75.78125 29.296875 78.125 32.8125 
Q 83.203125 27.34375 85.9375 25.78125 
Q 81.640625 23.828125 78.125 21.671875 
Q 74.609375 19.53125 66.796875 15.234375 
Q 70.3125 12.5 76.5625 9.765625 
Q 82.8125 7.03125 94.140625 5.859375 
Q 90.625 2.34375 88.28125 -4.296875 
Q 77.34375 -0.390625 71.671875 3.125 
Q 66.015625 6.640625 60.734375 10.734375 
Q 55.46875 14.84375 52.34375 20.3125 
L 52.34375 3.125 
Q 52.734375 -5.859375 48.234375 -7.421875 
Q 43.75 -8.984375 37.890625 -9.765625 
Q 37.109375 -3.515625 34.765625 0 
Q 42.578125 -0.78125 43.9375 0.578125 
Q 45.3125 1.953125 45.3125 4.296875 
L 45.3125 35.546875 
L 28.515625 35.546875 
Q 23.046875 35.546875 16.40625 35.15625 
L 16.40625 42.578125 
Q 23.046875 42.1875 28.515625 42.1875 
L 45.3125 42.1875 
L 45.3125 50.78125 
L 19.53125 50.78125 
Q 13.28125 50.78125 7.03125 50.390625 
L 7.03125 57.421875 
Q 13.671875 57.03125 19.140625 57.03125 
L 45.3125 57.03125 
L 45.3125 65.625 
L 28.125 65.625 
Q 23.828125 65.625 16.40625 65.234375 
L 16.40625 72.265625 
Q 23.4375 71.875 28.125 71.875 
L 45.3125 71.875 
Q 45.3125 77.34375 44.921875 80.859375 
L 52.734375 80.859375 
z
M 6.640625 4.296875 
L 15.234375 7.421875 
Q 19.53125 8.984375 23.625 10.9375 
Q 27.734375 12.890625 32.03125 15.421875 
Q 36.328125 17.96875 40.625 19.921875 
Q 42.1875 17.1875 43.75 12.890625 
Q 39.0625 10.9375 34.953125 8.78125 
Q 30.859375 6.640625 26.953125 4.484375 
Q 23.046875 2.34375 18.9375 0.1875 
Q 14.84375 -1.953125 11.328125 -4.296875 
z
M 72.65625 42.1875 
L 72.65625 50.78125 
L 52.34375 50.78125 
L 52.34375 42.1875 
z
M 72.65625 57.03125 
L 72.65625 65.625 
L 52.34375 65.625 
L 52.34375 57.03125 
z
M 22.65625 32.421875 
Q 29.6875 26.171875 33.59375 21.484375 
Q 31.640625 19.140625 27.734375 16.015625 
Q 23.4375 21.484375 17.1875 27.34375 
Q 20.3125 30.46875 22.65625 32.421875 
z
" id="SimHei-96b6"/>
      <path d="M 86.71875 48.4375 
Q 69.53125 47.65625 59.765625 47.265625 
L 59.765625 41.796875 
L 83.984375 41.796875 
Q 83.59375 37.5 83.59375 33.203125 
Q 83.59375 28.90625 83.984375 24.609375 
L 59.765625 24.609375 
L 59.765625 19.53125 
L 91.796875 19.53125 
Q 91.40625 13.28125 91.40625 8.203125 
L 91.40625 -2.34375 
Q 91.015625 -5.859375 88.859375 -7.21875 
Q 86.71875 -8.59375 78.125 -10.15625 
Q 77.34375 -6.25 74.609375 -2.34375 
Q 79.6875 -2.34375 82.21875 -2.140625 
Q 84.765625 -1.953125 84.375 1.953125 
L 84.375 14.0625 
L 59.765625 14.0625 
L 59.765625 7.03125 
Q 65.625 7.421875 69.140625 7.8125 
Q 67.96875 9.765625 67.1875 10.9375 
Q 70.703125 12.109375 72.65625 13.671875 
Q 76.953125 7.421875 80.078125 1.953125 
Q 77.34375 0.78125 73.828125 -1.171875 
Q 73.046875 0.390625 71.875 2.34375 
Q 68.359375 2.34375 59.375 1.359375 
Q 50.390625 0.390625 40.625 -1.171875 
Q 40.234375 1.953125 38.28125 5.859375 
Q 46.875 5.859375 53.125 6.640625 
L 53.125 14.0625 
L 34.375 14.0625 
L 34.375 -8.59375 
L 27.34375 -8.59375 
Q 27.734375 -3.125 27.734375 5.078125 
Q 27.734375 13.28125 27.34375 19.53125 
L 53.125 19.53125 
L 53.125 24.609375 
L 31.25 24.609375 
Q 31.640625 29.296875 31.640625 33.203125 
Q 31.640625 37.5 31.25 41.796875 
L 53.125 41.796875 
L 53.125 46.875 
Q 38.671875 46.09375 30.46875 45.703125 
Q 29.6875 49.21875 27.734375 52.34375 
Q 42.1875 52.34375 56.4375 53.125 
Q 70.703125 53.90625 82.03125 55.859375 
Q 83.984375 51.953125 86.71875 48.4375 
z
M 86.328125 78.125 
Q 85.9375 71.875 85.9375 67.1875 
Q 85.9375 62.890625 86.328125 58.59375 
L 23.046875 58.59375 
Q 23.046875 47.65625 22.84375 38.859375 
Q 22.65625 30.078125 21.484375 22.453125 
Q 20.3125 14.84375 18.15625 8 
Q 16.015625 1.171875 11.71875 -7.03125 
Q 8.203125 -5.078125 3.90625 -3.515625 
Q 10.546875 7.03125 13.078125 17.1875 
Q 15.625 27.34375 15.8125 38.859375 
Q 16.015625 50.390625 16.015625 57.421875 
Q 16.015625 64.453125 15.625 78.125 
L 86.328125 78.125 
z
M 78.90625 64.0625 
L 78.90625 71.875 
L 23.046875 71.875 
L 23.046875 64.0625 
z
M 77.34375 30.078125 
L 77.34375 36.71875 
L 59.765625 36.71875 
L 59.765625 30.078125 
z
M 53.125 30.078125 
L 53.125 36.71875 
L 37.890625 36.71875 
L 37.890625 30.078125 
z
" id="SimHei-5c5e"/>
      <path d="M 27.34375 26.171875 
Q 38.28125 25.78125 44.921875 25.78125 
L 81.25 25.78125 
Q 77.734375 19.53125 72.65625 13.28125 
Q 67.578125 7.03125 62.890625 3.125 
Q 67.96875 0.78125 77.34375 -0.78125 
Q 86.71875 -2.34375 95.3125 -2.34375 
Q 92.96875 -4.6875 91.015625 -10.15625 
Q 79.6875 -8.59375 71.09375 -6.4375 
Q 62.5 -4.296875 56.640625 -1.5625 
Q 48.4375 -5.078125 40.421875 -7.21875 
Q 32.421875 -9.375 23.828125 -10.546875 
Q 22.65625 -7.421875 19.140625 -3.90625 
Q 26.171875 -3.90625 35.15625 -1.953125 
Q 44.140625 0 50.78125 3.125 
Q 44.140625 8.59375 37.5 19.921875 
L 27.34375 19.53125 
z
M 46.484375 79.296875 
Q 50.78125 80.46875 54.296875 82.03125 
Q 56.640625 77.734375 58.984375 70.703125 
L 73.4375 70.703125 
Q 77.734375 70.703125 89.0625 71.09375 
L 89.0625 64.0625 
Q 78.125 64.453125 72.65625 64.453125 
L 21.484375 64.453125 
Q 21.484375 46.875 21.09375 36.125 
Q 20.703125 25.390625 18.9375 14.84375 
Q 17.1875 4.296875 11.328125 -8.203125 
Q 7.8125 -5.859375 3.90625 -4.6875 
Q 10.15625 6.25 11.90625 16.796875 
Q 13.671875 27.34375 13.859375 43.75 
Q 14.0625 60.15625 13.671875 70.703125 
L 50 70.703125 
Q 48.4375 75.78125 46.484375 79.296875 
z
M 38.671875 51.5625 
Q 38.671875 57.8125 38.28125 61.328125 
L 46.484375 61.328125 
Q 46.09375 58.203125 46.09375 51.5625 
L 67.1875 51.5625 
Q 67.1875 57.8125 66.796875 61.71875 
L 75 61.71875 
Q 74.609375 57.03125 74.609375 51.5625 
Q 83.203125 51.5625 89.453125 51.953125 
L 89.453125 45.3125 
Q 83.59375 45.703125 74.609375 45.703125 
Q 74.609375 35.15625 75 30.46875 
L 38.28125 30.46875 
Q 38.671875 36.71875 38.671875 45.703125 
Q 33.984375 45.703125 25 45.3125 
L 25 51.953125 
Q 33.984375 51.5625 38.671875 51.5625 
z
M 67.1875 36.71875 
L 67.1875 45.703125 
L 46.09375 45.703125 
L 46.09375 36.71875 
z
M 44.921875 19.921875 
Q 50 12.109375 57.03125 6.640625 
Q 62.890625 10.9375 69.140625 19.921875 
L 45.3125 19.921875 
z
" id="SimHei-5ea6"/>
     </defs>
     <g transform="translate(20.753125 146.710937)rotate(-90)scale(0.12 -0.12)">
      <use xlink:href="#SimHei-96b6"/>
      <use x="100" xlink:href="#SimHei-5c5e"/>
      <use x="200" xlink:href="#SimHei-5ea6"/>
     </g>
    </g>
   </g>
   <g id="line2d_22">
    <path clip-path="url(#p9b164c685c)" d="M 51.253125 24.700994 
L 115.265201 24.810979 
L 115.659012 25.174214 
L 116.124424 25.927075 
L 116.697239 27.323711 
L 117.377457 29.627643 
L 118.200878 33.287833 
L 119.167503 38.664888 
L 120.384735 46.798362 
L 121.995778 59.214241 
L 125.217862 86.284953 
L 128.010335 108.824002 
L 130.12259 124.115324 
L 132.055841 136.532187 
L 133.91749 147.067437 
L 135.743337 156.133168 
L 137.533384 163.920002 
L 139.323431 170.740565 
L 141.113478 176.715082 
L 142.939326 182.052602 
L 144.800975 186.816393 
L 146.698424 191.066937 
L 148.631675 194.860534 
L 150.636527 198.306233 
L 152.677181 201.378722 
L 154.825237 204.210694 
L 157.044895 206.769896 
L 159.371956 209.114515 
L 161.80642 211.25496 
L 164.419888 213.254482 
L 167.176561 215.083871 
L 170.148038 216.78862 
L 173.370123 218.378428 
L 176.878615 219.858688 
L 180.745116 221.243993 
L 185.005427 222.53024 
L 189.766952 223.731015 
L 195.101292 224.843321 
L 201.187451 225.880131 
L 208.168634 226.837984 
L 216.259646 227.718008 
L 225.782695 228.523841 
L 237.167393 229.256637 
L 250.986555 229.91547 
L 268.135204 230.50192 
L 290.009577 231.017413 
L 318.793531 231.461719 
L 358.317766 231.835827 
L 409.226699 232.114703 
L 409.226699 232.114703 
" style="fill:none;stroke:#008000;stroke-linecap:square;stroke-width:1.5;"/>
   </g>
   <g id="line2d_23">
    <path clip-path="url(#p9b164c685c)" d="M 51.253125 211.918892 
L 56.945474 210.01594 
L 62.244013 208.011151 
L 67.184542 205.905211 
L 71.802863 203.697316 
L 76.170578 201.364141 
L 80.287685 198.914946 
L 84.225788 196.313511 
L 87.984887 193.562483 
L 91.564981 190.667602 
L 95.001871 187.604699 
L 98.331358 184.340475 
L 101.553442 180.870944 
L 104.703925 177.150064 
L 107.782805 173.166246 
L 110.790084 168.909355 
L 113.761562 164.313493 
L 116.697239 159.357759 
L 119.597115 154.022876 
L 122.496991 148.217695 
L 125.396867 141.911181 
L 128.332543 134.989279 
L 131.339822 127.318407 
L 134.454504 118.749282 
L 137.74819 109.018463 
L 141.399886 97.508034 
L 145.982406 82.272477 
L 154.037617 55.401868 
L 156.865891 46.827012 
L 159.12135 40.664152 
L 161.0546 36.0036 
L 162.737244 32.502843 
L 164.240884 29.868093 
L 165.601319 27.921497 
L 166.818551 26.553826 
L 167.92838 25.627862 
L 168.966608 25.046697 
L 169.933233 24.757612 
L 170.864057 24.710898 
L 171.794882 24.8918 
L 172.725706 25.299134 
L 173.728132 25.98795 
L 174.80216 27.008025 
L 175.983591 28.45687 
L 177.272425 30.410989 
L 178.704463 33.012076 
L 180.279704 36.353616 
L 182.069751 40.694836 
L 184.146205 46.347288 
L 186.61647 53.752626 
L 189.838554 64.168975 
L 203.621915 109.600439 
L 207.058805 119.698673 
L 210.245088 128.388007 
L 213.323969 136.152519 
L 216.331248 143.144783 
L 219.302726 149.501114 
L 222.274203 155.337726 
L 225.245681 160.688741 
L 228.25296 165.646688 
L 231.260239 170.181738 
L 234.339119 174.424682 
L 237.453801 178.342636 
L 240.640084 181.998191 
L 243.933771 185.439319 
L 247.33486 188.669389 
L 250.843352 191.693796 
L 254.495047 194.546116 
L 258.289947 197.226859 
L 262.263851 199.760349 
L 266.416759 202.144474 
L 270.820275 204.414573 
L 275.474397 206.562053 
L 280.414926 208.595833 
L 285.713465 210.534021 
L 291.405814 212.375809 
L 297.527774 214.119641 
L 304.150947 215.772149 
L 311.346936 217.335912 
L 319.223142 218.817139 
L 327.886969 220.217047 
L 337.48162 221.538351 
L 348.1503 222.779486 
L 360.143614 223.94631 
L 373.676368 225.034975 
L 389.106572 226.048518 
L 406.899638 226.988841 
L 409.226699 227.09708 
L 409.226699 227.09708 
" style="fill:none;stroke:#ffff00;stroke-linecap:square;stroke-width:1.5;"/>
   </g>
   <g id="line2d_24">
    <path clip-path="url(#p9b164c685c)" d="M 51.253125 224.720116 
L 64.82168 223.559168 
L 76.779193 222.31717 
L 87.376271 220.997253 
L 96.863519 219.595514 
L 105.419943 218.109897 
L 113.152946 216.545713 
L 120.241532 214.887746 
L 126.721501 213.146901 
L 132.700258 211.313615 
L 138.249403 209.381869 
L 143.404738 207.354568 
L 148.237865 205.217143 
L 152.784584 202.964415 
L 157.080696 200.587946 
L 161.126202 198.098197 
L 164.992703 195.45867 
L 168.6802 192.673189 
L 172.224493 189.71748 
L 175.625582 186.592928 
L 178.919268 183.265911 
L 182.105552 179.733122 
L 185.220233 175.948085 
L 188.263313 171.899954 
L 191.270592 167.52511 
L 194.206268 162.861155 
L 197.141945 157.773783 
L 200.041821 152.298505 
L 202.941697 146.3431 
L 205.841573 139.877675 
L 208.813051 132.698279 
L 211.856131 124.748276 
L 215.006613 115.881741 
L 218.371901 105.730927 
L 222.202602 93.437978 
L 227.680145 75.010465 
L 233.193489 56.678471 
L 236.129166 47.680388 
L 238.456227 41.240533 
L 240.425279 36.425957 
L 242.143724 32.79431 
L 243.647363 30.1106 
L 245.007799 28.116384 
L 246.225031 26.703883 
L 247.33486 25.735608 
L 248.373087 25.113958 
L 249.339712 24.786682 
L 250.270537 24.702993 
L 251.201361 24.846974 
L 252.132185 25.217679 
L 253.134612 25.867649 
L 254.20864 26.847107 
L 255.35427 28.205329 
L 256.607303 30.046285 
L 258.003539 32.510452 
L 259.542979 35.693252 
L 261.297225 39.854164 
L 263.302078 45.207883 
L 265.700741 52.286051 
L 268.74382 62.010758 
L 273.863354 79.25214 
L 279.770509 98.909728 
L 283.601209 110.878087 
L 287.002298 120.78608 
L 290.188582 129.395138 
L 293.267463 137.082016 
L 296.274741 144.000637 
L 299.246219 150.287682 
L 302.217697 156.059247 
L 305.189175 161.349834 
L 308.196453 166.251435 
L 311.239533 170.785899 
L 314.318414 174.976304 
L 317.468896 178.88854 
L 320.690981 182.534507 
L 323.984667 185.927293 
L 327.385756 189.11266 
L 330.894248 192.095916 
L 334.545943 194.910158 
L 338.376644 197.579561 
L 342.386349 200.099692 
L 346.575058 202.468991 
L 351.014375 204.722738 
L 355.704297 206.852886 
L 360.716429 208.882273 
L 366.050768 210.800163 
L 371.778918 212.621427 
L 377.972481 214.354203 
L 384.667256 215.993505 
L 391.970647 217.549532 
L 399.954256 219.019818 
L 408.761287 220.411545 
L 409.226699 220.479233 
L 409.226699 220.479233 
" style="fill:none;stroke:#ffa500;stroke-linecap:square;stroke-width:1.5;"/>
   </g>
   <g id="line2d_25">
    <path clip-path="url(#p9b164c685c)" d="M 51.253125 232.720881 
L 270.462265 232.62566 
L 270.963478 232.270132 
L 271.500493 231.600116 
L 272.144909 230.409539 
L 272.896729 228.506501 
L 273.755952 225.692412 
L 274.758378 221.622622 
L 275.97561 215.691769 
L 277.479249 207.170475 
L 279.519903 194.189632 
L 287.360308 142.985446 
L 289.651568 130.156178 
L 291.799624 119.372811 
L 293.876078 110.072538 
L 295.916732 101.942177 
L 297.921584 94.845183 
L 299.926437 88.541955 
L 301.96709 82.850815 
L 304.007744 77.804356 
L 306.084198 73.249395 
L 308.196453 69.139946 
L 310.380311 65.374313 
L 312.599969 61.983216 
L 314.891229 58.881471 
L 317.289892 56.008424 
L 319.760156 53.393392 
L 322.373625 50.951992 
L 325.094496 48.713639 
L 327.994372 46.617674 
L 331.073253 44.669242 
L 334.366939 42.850689 
L 337.911232 41.150665 
L 341.741932 39.562246 
L 345.930642 38.069598 
L 350.513162 36.675612 
L 355.596895 35.365682 
L 361.253443 34.142183 
L 367.590209 33.002841 
L 374.786197 31.939723 
L 383.020413 30.953618 
L 392.543462 30.043302 
L 403.677554 29.208697 
L 409.226699 28.86349 
L 409.226699 28.86349 
" style="fill:none;stroke:#ff0000;stroke-linecap:square;stroke-width:1.5;"/>
   </g>
   <g id="line2d_26">
    <path clip-path="url(#p9b164c685c)" d="M 51.253125 128.710938 
L 59.208889 128.710938 
L 67.164653 128.710938 
L 75.120417 128.710938 
L 83.076181 128.710938 
L 91.031944 128.710938 
L 98.987708 128.710938 
L 106.943472 128.710938 
L 114.899236 128.710938 
L 122.855 128.710938 
L 130.810764 128.710938 
L 138.766528 128.710938 
L 146.722292 128.710938 
L 154.678056 128.710938 
L 162.633819 128.710938 
L 170.589583 128.710938 
L 178.545347 128.710938 
L 186.501111 128.710938 
L 194.456875 128.710938 
L 202.412639 128.710938 
L 210.368403 128.710938 
L 218.324167 128.710938 
L 226.279931 128.710938 
L 234.235694 128.710938 
L 242.191458 128.710938 
L 250.147222 128.710938 
L 258.102986 128.710938 
L 266.05875 128.710938 
L 274.014514 128.710938 
L 281.970278 128.710938 
L 289.926042 128.710938 
L 297.881806 128.710938 
L 305.837569 128.710938 
L 313.793333 128.710938 
L 321.749097 128.710938 
L 329.704861 128.710938 
L 337.660625 128.710938 
L 345.616389 128.710938 
L 353.572153 128.710938 
L 361.527917 128.710938 
L 369.483681 128.710938 
L 377.439444 128.710938 
L 385.395208 128.710938 
L 393.350972 128.710938 
L 401.306736 128.710938 
L 409.2625 128.710938 
" style="fill:none;stroke:#2f4f4f;stroke-dasharray:5.55,2.4;stroke-dashoffset:0;stroke-width:1.5;"/>
   </g>
   <g id="patch_3">
    <path d="M 51.253125 243.121875 
L 51.253125 14.3 
" style="fill:none;stroke:#000000;stroke-linecap:square;stroke-linejoin:miter;stroke-width:0.8;"/>
   </g>
   <g id="patch_4">
    <path d="M 409.2625 243.121875 
L 409.2625 14.3 
" style="fill:none;stroke:#000000;stroke-linecap:square;stroke-linejoin:miter;stroke-width:0.8;"/>
   </g>
   <g id="patch_5">
    <path d="M 51.253125 243.121875 
L 409.2625 243.121875 
" style="fill:none;stroke:#000000;stroke-linecap:square;stroke-linejoin:miter;stroke-width:0.8;"/>
   </g>
   <g id="patch_6">
    <path d="M 51.253125 14.3 
L 409.2625 14.3 
" style="fill:none;stroke:#000000;stroke-linecap:square;stroke-linejoin:miter;stroke-width:0.8;"/>
   </g>
   <g id="legend_1">
    <g id="patch_7">
     <path d="M 345.2625 158.960937 
L 402.2625 158.960937 
Q 404.2625 158.960937 404.2625 156.960937 
L 404.2625 100.460937 
Q 404.2625 98.460937 402.2625 98.460937 
L 345.2625 98.460937 
Q 343.2625 98.460937 343.2625 100.460937 
L 343.2625 156.960937 
Q 343.2625 158.960937 345.2625 158.960937 
z
" style="fill:#ba55d3;opacity:0.8;stroke:#cccccc;stroke-linejoin:miter;"/>
    </g>
    <g id="line2d_27">
     <path d="M 347.2625 107.085937 
L 367.2625 107.085937 
" style="fill:none;stroke:#008000;stroke-linecap:square;stroke-width:1.5;"/>
    </g>
    <g id="line2d_28"/>
    <g id="text_24">
     <!-- 等级1 -->
     <defs>
      <path d="M 45.703125 53.90625 
Q 45.703125 56.640625 45.3125 61.71875 
L 53.90625 61.71875 
Q 53.515625 56.640625 53.515625 53.90625 
L 69.921875 53.90625 
Q 75.78125 53.90625 83.59375 54.296875 
L 83.59375 47.65625 
Q 76.171875 48.046875 70.3125 48.046875 
L 53.515625 48.046875 
L 53.515625 37.5 
L 81.640625 37.5 
Q 87.890625 37.5 95.703125 37.890625 
L 95.703125 30.859375 
Q 88.28125 31.25 81.640625 31.25 
L 73.4375 31.25 
L 73.4375 21.09375 
Q 83.203125 21.09375 89.84375 21.484375 
L 89.84375 14.453125 
Q 82.03125 14.84375 73.4375 14.84375 
L 73.4375 1.953125 
Q 73.828125 -5.078125 69.328125 -6.828125 
Q 64.84375 -8.59375 55.46875 -9.765625 
Q 54.6875 -5.078125 52.34375 -1.171875 
Q 58.984375 -1.5625 62.109375 -1.171875 
Q 65.234375 -0.78125 65.234375 4.296875 
L 65.234375 14.84375 
L 24.21875 14.84375 
Q 19.140625 14.84375 10.9375 14.453125 
L 10.9375 21.484375 
Q 18.75 21.09375 25.78125 21.09375 
L 65.234375 21.09375 
L 65.234375 31.25 
L 16.796875 31.25 
Q 11.71875 31.25 3.125 30.859375 
L 3.125 37.890625 
Q 11.71875 37.5 16.796875 37.5 
L 45.703125 37.5 
L 45.703125 48.046875 
L 30.078125 48.046875 
Q 24.609375 48.046875 16.40625 47.65625 
L 16.40625 54.296875 
Q 26.953125 53.90625 30.078125 53.90625 
z
M 28.515625 79.6875 
Q 26.171875 78.125 23.4375 73.828125 
L 37.5 73.828125 
Q 45.703125 73.828125 51.171875 74.21875 
L 51.171875 67.96875 
Q 46.875 68.359375 40.234375 68.359375 
L 35.546875 68.359375 
Q 37.5 65.234375 40.234375 60.15625 
Q 35.546875 58.59375 31.640625 57.421875 
Q 31.640625 58.203125 27.734375 68.359375 
L 20.703125 68.359375 
Q 17.578125 63.671875 11.71875 56.640625 
Q 8.203125 59.375 4.296875 60.9375 
Q 9.765625 65.234375 13.28125 70.703125 
Q 16.796875 76.171875 19.53125 82.8125 
Q 24.21875 80.859375 28.515625 79.6875 
z
M 57.8125 60.546875 
Q 54.6875 62.5 50.390625 63.671875 
Q 54.296875 66.796875 57.03125 71.484375 
Q 59.765625 76.171875 62.109375 82.03125 
Q 66.40625 80.46875 71.09375 78.90625 
Q 67.96875 76.171875 66.40625 73.4375 
L 82.421875 73.4375 
Q 85.15625 73.4375 95.703125 73.828125 
L 95.703125 67.578125 
Q 88.28125 67.96875 81.25 67.96875 
Q 85.546875 60.9375 87.5 58.203125 
Q 82.03125 57.03125 78.515625 55.859375 
Q 77.734375 59.375 73.4375 67.96875 
L 63.28125 67.96875 
Q 61.328125 64.84375 57.8125 60.546875 
z
M 40.234375 1.171875 
Q 36.71875 -0.78125 33.203125 -3.125 
Q 29.6875 3.515625 23.828125 9.765625 
Q 26.5625 11.328125 30.078125 14.0625 
Q 35.9375 7.8125 40.234375 1.171875 
z
" id="SimHei-7b49"/>
      <path d="M 83.59375 74.21875 
Q 80.078125 61.328125 76.5625 46.484375 
L 90.234375 46.484375 
Q 88.28125 36.328125 85.34375 27.34375 
Q 82.421875 18.359375 76.5625 8.984375 
Q 80.46875 5.078125 85.34375 1.75 
Q 90.234375 -1.5625 96.09375 -3.90625 
Q 91.796875 -7.421875 90.625 -10.9375 
Q 80.859375 -5.46875 71.875 3.90625 
Q 69.140625 1.171875 63.46875 -2.921875 
Q 57.8125 -7.03125 48.828125 -10.9375 
Q 46.875 -7.8125 43.359375 -5.46875 
Q 51.5625 -2.734375 57.421875 1.171875 
Q 63.28125 5.078125 67.578125 9.375 
Q 62.890625 14.84375 54.6875 30.46875 
Q 53.515625 21.875 48.828125 12.5 
Q 44.53125 2.734375 33.203125 -7.421875 
Q 30.859375 -5.46875 26.5625 -3.125 
Q 34.375 2.34375 39.453125 9.953125 
Q 44.53125 17.578125 46.671875 26.359375 
Q 48.828125 35.15625 49.21875 45.5 
Q 49.609375 55.859375 49.609375 67.96875 
Q 45.3125 67.96875 39.453125 67.578125 
L 39.453125 74.609375 
Q 46.484375 74.21875 58.203125 74.21875 
z
M 29.6875 75.78125 
Q 27.34375 72.65625 23.625 65.8125 
Q 19.921875 58.984375 14.0625 50.78125 
L 27.734375 51.5625 
Q 31.640625 57.8125 33.984375 64.453125 
Q 35.9375 62.890625 41.015625 59.765625 
Q 38.671875 55.859375 33.984375 48.4375 
Q 29.296875 41.015625 18.75 26.953125 
Q 30.46875 28.515625 37.5 29.6875 
Q 36.328125 25 36.328125 22.65625 
Q 32.421875 22.265625 24.40625 21.09375 
Q 16.40625 19.921875 8.984375 17.96875 
Q 7.8125 21.875 6.25 25 
Q 9.765625 26.953125 14.453125 31.828125 
Q 19.140625 36.71875 24.21875 45.3125 
Q 19.921875 44.921875 15.8125 44.53125 
Q 11.71875 44.140625 7.8125 42.578125 
Q 6.640625 46.09375 4.6875 50.78125 
Q 9.765625 53.90625 14.640625 62.890625 
Q 19.53125 71.875 21.875 80.078125 
Q 24.609375 78.125 29.6875 75.78125 
z
M 55.859375 48.828125 
Q 55.859375 46.09375 55.859375 43.359375 
Q 58.59375 36.328125 64.0625 27.34375 
Q 69.53125 17.96875 71.875 15.234375 
Q 78.515625 25.390625 81.640625 40.234375 
L 67.578125 40.234375 
Q 71.484375 53.125 74.21875 67.96875 
L 56.25 67.96875 
Q 56.25 58.59375 55.859375 48.828125 
z
M 37.109375 15.625 
Q 35.9375 11.71875 36.328125 8.59375 
Q 28.515625 6.640625 22.265625 4.875 
Q 16.015625 3.125 8.59375 0.78125 
Q 7.421875 4.6875 5.078125 8.203125 
Q 10.546875 9.375 17.375 10.734375 
Q 24.21875 12.109375 37.109375 15.625 
z
" id="SimHei-7ea7"/>
     </defs>
     <g transform="translate(375.2625 110.585937)scale(0.1 -0.1)">
      <use xlink:href="#SimHei-7b49"/>
      <use x="100" xlink:href="#SimHei-7ea7"/>
      <use x="200" xlink:href="#SimHei-31"/>
     </g>
    </g>
    <g id="line2d_29">
     <path d="M 347.2625 121.460937 
L 367.2625 121.460937 
" style="fill:none;stroke:#ffff00;stroke-linecap:square;stroke-width:1.5;"/>
    </g>
    <g id="line2d_30"/>
    <g id="text_25">
     <!-- 等级2 -->
     <g transform="translate(375.2625 124.960937)scale(0.1 -0.1)">
      <use xlink:href="#SimHei-7b49"/>
      <use x="100" xlink:href="#SimHei-7ea7"/>
      <use x="200" xlink:href="#SimHei-32"/>
     </g>
    </g>
    <g id="line2d_31">
     <path d="M 347.2625 135.835937 
L 367.2625 135.835937 
" style="fill:none;stroke:#ffa500;stroke-linecap:square;stroke-width:1.5;"/>
    </g>
    <g id="line2d_32"/>
    <g id="text_26">
     <!-- 等级3 -->
     <g transform="translate(375.2625 139.335937)scale(0.1 -0.1)">
      <use xlink:href="#SimHei-7b49"/>
      <use x="100" xlink:href="#SimHei-7ea7"/>
      <use x="200" xlink:href="#SimHei-33"/>
     </g>
    </g>
    <g id="line2d_33">
     <path d="M 347.2625 150.210937 
L 367.2625 150.210937 
" style="fill:none;stroke:#ff0000;stroke-linecap:square;stroke-width:1.5;"/>
    </g>
    <g id="line2d_34"/>
    <g id="text_27">
     <!-- 等级4 -->
     <g transform="translate(375.2625 153.710937)scale(0.1 -0.1)">
      <use xlink:href="#SimHei-7b49"/>
      <use x="100" xlink:href="#SimHei-7ea7"/>
      <use x="200" xlink:href="#SimHei-34"/>
     </g>
    </g>
   </g>
  </g>
 </g>
 <defs>
  <clipPath id="p9b164c685c">
   <rect height="228.821875" width="358.009375" x="51.253125" y="14.3"/>
  </clipPath>
 </defs>
</svg>
