<?xml version="1.0" encoding="utf-8" standalone="no"?>
<!DOCTYPE svg PUBLIC "-//W3C//DTD SVG 1.1//EN"
  "http://www.w3.org/Graphics/SVG/1.1/DTD/svg11.dtd">
<!-- Created with matplotlib (http://matplotlib.org/) -->
<svg height="288pt" version="1.1" viewBox="0 0 432 288" width="432pt" xmlns="http://www.w3.org/2000/svg" xmlns:xlink="http://www.w3.org/1999/xlink">
 <defs>
  <style type="text/css">
*{stroke-linecap:butt;stroke-linejoin:round;}
  </style>
 </defs>
 <g id="figure_1">
  <g id="patch_1">
   <path d="M 0 288 
L 432 288 
L 432 0 
L 0 0 
z
" style="fill:#ba55d3;"/>
  </g>
  <g id="axes_1">
   <g id="patch_2">
    <path d="M 51.253125 243.621875 
L 417.7 243.621875 
L 417.7 14.3 
L 51.253125 14.3 
z
" style="fill:#ba55d3;"/>
   </g>
   <g id="matplotlib.axis_1">
    <g id="xtick_1">
     <g id="line2d_1">
      <defs>
       <path d="M 0 0 
L 0 3.5 
" id="m256f46dfc0" style="stroke:#000000;stroke-width:0.8;"/>
      </defs>
      <g>
       <use style="stroke:#000000;stroke-width:0.8;" x="51.253125" xlink:href="#m256f46dfc0" y="243.621875"/>
      </g>
     </g>
     <g id="text_1">
      <!-- 0 -->
      <defs>
       <path d="M 3.125 29.296875 
Q 3.90625 50 6.4375 56.046875 
Q 8.984375 62.109375 13.671875 66.015625 
Q 18.359375 69.921875 25.1875 69.921875 
Q 32.03125 69.921875 37.109375 64.25 
Q 42.1875 58.59375 43.75 50 
Q 45.3125 41.40625 44.71875 30.265625 
Q 44.140625 19.140625 40.8125 12.109375 
Q 37.5 5.078125 30.859375 2.34375 
Q 24.21875 -0.390625 17.578125 2.921875 
Q 10.9375 6.25 8.203125 11.71875 
Q 5.46875 17.1875 4.296875 23.234375 
Q 3.125 29.296875 3.90625 50 
z
M 12.890625 52.734375 
Q 10.546875 31.25 12.5 22.84375 
Q 14.453125 14.453125 18.9375 10.9375 
Q 23.4375 7.421875 28.125 9.5625 
Q 32.8125 11.71875 34.953125 18.15625 
Q 37.109375 24.609375 37.109375 32.21875 
Q 37.109375 39.84375 36.515625 46.09375 
Q 35.9375 52.34375 33 57.421875 
Q 30.078125 62.5 25.1875 62.6875 
Q 20.3125 62.890625 16.59375 57.8125 
Q 12.890625 52.734375 10.546875 31.25 
z
" id="SimHei-30"/>
      </defs>
      <g transform="translate(48.253125 258.871875)scale(0.12 -0.12)">
       <use xlink:href="#SimHei-30"/>
      </g>
     </g>
    </g>
    <g id="xtick_2">
     <g id="line2d_2">
      <g>
       <use style="stroke:#000000;stroke-width:0.8;" x="100.112708" xlink:href="#m256f46dfc0" y="243.621875"/>
      </g>
     </g>
     <g id="text_2">
      <!-- 1 -->
      <defs>
       <path d="M 21.875 56.25 
Q 16.796875 51.171875 8.984375 46.484375 
L 8.984375 53.90625 
Q 18.75 60.546875 25 69.53125 
L 29.6875 69.53125 
L 29.6875 2.34375 
L 21.875 2.34375 
z
" id="SimHei-31"/>
      </defs>
      <g transform="translate(97.112708 258.871875)scale(0.12 -0.12)">
       <use xlink:href="#SimHei-31"/>
      </g>
     </g>
    </g>
    <g id="xtick_3">
     <g id="line2d_3">
      <g>
       <use style="stroke:#000000;stroke-width:0.8;" x="148.972292" xlink:href="#m256f46dfc0" y="243.621875"/>
      </g>
     </g>
     <g id="text_3">
      <!-- 2 -->
      <defs>
       <path d="M 4.6875 3.90625 
Q 5.078125 9.765625 10.15625 14.453125 
Q 15.234375 19.140625 23.046875 29.09375 
Q 30.859375 39.0625 33.203125 44.53125 
Q 35.546875 50 34.953125 53.90625 
Q 34.375 57.8125 31.25 60.34375 
Q 28.125 62.890625 24.015625 62.5 
Q 19.921875 62.109375 16.203125 59.375 
Q 12.5 56.640625 10.546875 51.171875 
L 3.125 52.34375 
Q 6.25 61.328125 11.125 65.421875 
Q 16.015625 69.53125 22.65625 69.921875 
Q 26.5625 70.3125 29.6875 69.71875 
Q 32.8125 69.140625 36.125 66.984375 
Q 39.453125 64.84375 41.59375 60.546875 
Q 43.75 56.25 43.15625 50.1875 
Q 42.578125 44.140625 37.109375 35.734375 
Q 31.640625 27.34375 16.015625 9.375 
L 44.140625 9.375 
L 44.140625 2.34375 
L 4.6875 2.34375 
z
" id="SimHei-32"/>
      </defs>
      <g transform="translate(145.972292 258.871875)scale(0.12 -0.12)">
       <use xlink:href="#SimHei-32"/>
      </g>
     </g>
    </g>
    <g id="xtick_4">
     <g id="line2d_4">
      <g>
       <use style="stroke:#000000;stroke-width:0.8;" x="197.831875" xlink:href="#m256f46dfc0" y="243.621875"/>
      </g>
     </g>
     <g id="text_4">
      <!-- 3 -->
      <defs>
       <path d="M 3.90625 19.140625 
L 10.9375 20.3125 
Q 12.5 15.234375 16.015625 11.90625 
Q 19.53125 8.59375 24.796875 8.78125 
Q 30.078125 8.984375 33.203125 13.078125 
Q 36.328125 17.1875 35.9375 22.453125 
Q 35.546875 27.734375 31.828125 30.65625 
Q 28.125 33.59375 19.921875 34.765625 
L 19.921875 39.84375 
Q 28.125 40.625 31.828125 44.140625 
Q 35.546875 47.65625 35.15625 53.3125 
Q 34.765625 58.984375 30.078125 61.515625 
Q 25.390625 64.0625 20.109375 62.109375 
Q 14.84375 60.15625 11.71875 51.171875 
L 4.6875 52.34375 
Q 7.03125 59.375 11.125 64.0625 
Q 15.234375 68.75 22.265625 69.53125 
Q 29.296875 70.3125 34.5625 67.765625 
Q 39.84375 65.234375 41.984375 59.953125 
Q 44.140625 54.6875 42.578125 48.4375 
Q 41.015625 42.1875 33.59375 37.5 
Q 39.0625 35.15625 41.984375 30.46875 
Q 44.921875 25.78125 43.9375 18.15625 
Q 42.96875 10.546875 37.109375 5.859375 
Q 31.25 1.171875 23.828125 1.359375 
Q 16.40625 1.5625 10.9375 6.046875 
Q 5.46875 10.546875 3.90625 19.140625 
z
" id="SimHei-33"/>
      </defs>
      <g transform="translate(194.831875 258.871875)scale(0.12 -0.12)">
       <use xlink:href="#SimHei-33"/>
      </g>
     </g>
    </g>
    <g id="xtick_5">
     <g id="line2d_5">
      <g>
       <use style="stroke:#000000;stroke-width:0.8;" x="246.691458" xlink:href="#m256f46dfc0" y="243.621875"/>
      </g>
     </g>
     <g id="text_5">
      <!-- 4 -->
      <defs>
       <path d="M 31.25 17.1875 
L 1.171875 17.1875 
L 1.171875 23.828125 
L 32.8125 69.53125 
L 38.671875 69.53125 
L 38.671875 23.828125 
L 48.046875 23.828125 
L 48.046875 17.1875 
L 38.671875 17.1875 
L 38.671875 2.34375 
L 31.25 2.34375 
z
M 31.25 23.828125 
L 31.25 54.6875 
L 9.375 23.828125 
z
" id="SimHei-34"/>
      </defs>
      <g transform="translate(243.691458 258.871875)scale(0.12 -0.12)">
       <use xlink:href="#SimHei-34"/>
      </g>
     </g>
    </g>
    <g id="xtick_6">
     <g id="line2d_6">
      <g>
       <use style="stroke:#000000;stroke-width:0.8;" x="295.551042" xlink:href="#m256f46dfc0" y="243.621875"/>
      </g>
     </g>
     <g id="text_6">
      <!-- 5 -->
      <defs>
       <path d="M 8.59375 20.703125 
Q 11.328125 10.15625 17.96875 8.984375 
Q 24.609375 7.8125 28.703125 10.34375 
Q 32.8125 12.890625 34.5625 16.984375 
Q 36.328125 21.09375 36.125 26.171875 
Q 35.9375 31.25 33.390625 34.765625 
Q 30.859375 38.28125 26.953125 39.453125 
Q 23.046875 40.625 18.15625 39.453125 
Q 13.28125 38.28125 10.15625 33.984375 
L 3.515625 34.765625 
Q 4.296875 37.109375 10.9375 68.359375 
L 41.796875 68.359375 
L 41.796875 61.328125 
L 16.796875 61.328125 
Q 14.84375 50.78125 12.890625 44.53125 
Q 18.75 47.265625 23.828125 47.0625 
Q 28.90625 46.875 33.59375 44.71875 
Q 38.28125 42.578125 40.421875 38.859375 
Q 42.578125 35.15625 43.546875 31.4375 
Q 44.53125 27.734375 44.328125 23.4375 
Q 44.140625 19.140625 42.578125 14.640625 
Q 41.015625 10.15625 37.890625 7.21875 
Q 34.765625 4.296875 30.265625 2.53125 
Q 25.78125 0.78125 19.921875 1.171875 
Q 14.0625 1.5625 8.78125 5.46875 
Q 3.515625 9.375 1.5625 18.75 
z
" id="SimHei-35"/>
      </defs>
      <g transform="translate(292.551042 258.871875)scale(0.12 -0.12)">
       <use xlink:href="#SimHei-35"/>
      </g>
     </g>
    </g>
    <g id="xtick_7">
     <g id="line2d_7">
      <g>
       <use style="stroke:#000000;stroke-width:0.8;" x="344.410625" xlink:href="#m256f46dfc0" y="243.621875"/>
      </g>
     </g>
     <g id="text_7">
      <!-- 6 -->
      <defs>
       <path d="M 3.515625 19.53125 
Q 4.296875 30.859375 6.046875 34.765625 
Q 7.8125 38.671875 11.328125 44.53125 
L 27.34375 69.53125 
L 36.328125 69.53125 
L 19.921875 43.75 
Q 30.46875 46.484375 36.71875 42.96875 
Q 42.96875 39.453125 45.109375 34.953125 
Q 47.265625 30.46875 47.453125 25.1875 
Q 47.65625 19.921875 45.890625 14.84375 
Q 44.140625 9.765625 39.640625 5.65625 
Q 35.15625 1.5625 27.140625 1.171875 
Q 19.140625 0.78125 13.46875 4.09375 
Q 7.8125 7.421875 5.65625 13.46875 
Q 3.515625 19.53125 4.296875 30.859375 
z
M 12.5 16.015625 
Q 19.53125 8.59375 25.390625 8.203125 
Q 31.25 7.8125 35.15625 12.109375 
Q 39.0625 16.40625 39.0625 24.609375 
Q 39.0625 32.8125 34.171875 35.9375 
Q 29.296875 39.0625 23.234375 38.28125 
Q 17.1875 37.5 14.453125 32.421875 
Q 11.71875 27.34375 12.109375 21.671875 
Q 12.5 16.015625 19.53125 8.59375 
z
" id="SimHei-36"/>
      </defs>
      <g transform="translate(341.410625 258.871875)scale(0.12 -0.12)">
       <use xlink:href="#SimHei-36"/>
      </g>
     </g>
    </g>
    <g id="xtick_8">
     <g id="line2d_8">
      <g>
       <use style="stroke:#000000;stroke-width:0.8;" x="393.270208" xlink:href="#m256f46dfc0" y="243.621875"/>
      </g>
     </g>
     <g id="text_8">
      <!-- 7 -->
      <defs>
       <path d="M 13.28125 2.34375 
Q 20.3125 32.03125 37.890625 61.328125 
L 4.296875 61.328125 
L 4.296875 68.359375 
L 46.09375 68.359375 
L 46.09375 61.71875 
Q 27.734375 32.03125 21.875 2.34375 
L 13.28125 2.34375 
z
" id="SimHei-37"/>
      </defs>
      <g transform="translate(390.270208 258.871875)scale(0.12 -0.12)">
       <use xlink:href="#SimHei-37"/>
      </g>
     </g>
    </g>
    <g id="text_9">
     <!-- 裂缝宽度(mm) -->
     <defs>
      <path d="M 49.21875 29.296875 
Q 47.265625 33.984375 44.140625 39.0625 
Q 47.265625 40.625 50.390625 42.96875 
Q 53.515625 37.5 56.25 32.421875 
Q 53.125 30.859375 50 29.296875 
L 80.46875 29.296875 
Q 86.328125 29.296875 93.75 29.6875 
L 93.75 23.4375 
Q 87.109375 23.828125 80.859375 23.828125 
L 50.78125 23.828125 
Q 45.703125 18.75 38.28125 14.0625 
L 38.28125 0 
Q 44.53125 2.734375 53.90625 7.8125 
Q 54.296875 4.6875 55.46875 0.78125 
Q 49.609375 -1.953125 44.71875 -4.09375 
Q 39.84375 -6.25 32.421875 -10.546875 
Q 30.46875 -7.421875 28.515625 -5.078125 
Q 31.640625 -3.515625 31.640625 2.734375 
L 31.640625 10.15625 
Q 26.953125 7.03125 9.765625 0.390625 
Q 8.59375 3.515625 5.078125 7.03125 
Q 10.546875 8.203125 16.203125 10.15625 
Q 21.875 12.109375 27.921875 15.421875 
Q 33.984375 18.75 40.625 23.828125 
L 21.875 23.828125 
Q 15.234375 23.828125 6.640625 23.4375 
L 6.640625 29.6875 
Q 15.234375 29.296875 21.875 29.296875 
z
M 45.703125 77.34375 
Q 52.34375 77.34375 57.8125 77.734375 
L 57.8125 71.484375 
Q 53.90625 71.875 45.703125 71.875 
L 36.328125 71.875 
Q 33.59375 67.1875 31.640625 64.453125 
L 57.03125 64.453125 
Q 54.6875 56.640625 49.40625 50 
Q 44.140625 43.359375 35.15625 38.078125 
Q 26.171875 32.8125 16.015625 30.078125 
Q 15.234375 33.203125 10.9375 36.71875 
Q 17.96875 37.890625 22.265625 39.453125 
Q 26.5625 41.015625 30.859375 43.359375 
Q 27.734375 46.875 23.828125 50.390625 
Q 26.5625 52.34375 29.296875 55.078125 
L 37.109375 47.265625 
Q 42.96875 52.34375 46.875 58.984375 
L 28.515625 58.984375 
Q 22.65625 51.953125 11.71875 44.921875 
Q 10.15625 47.65625 6.640625 50.78125 
Q 14.84375 54.296875 20.109375 59.765625 
Q 25.390625 65.234375 28.125 71.875 
L 20.3125 71.875 
Q 15.234375 71.875 8.984375 71.484375 
L 8.984375 77.734375 
Q 15.234375 77.34375 19.921875 77.34375 
z
M 82.8125 16.40625 
Q 80.078125 14.453125 77.734375 11.90625 
Q 75.390625 9.375 72.65625 6.640625 
Q 82.8125 0.78125 95.3125 -1.171875 
Q 92.1875 -5.078125 91.015625 -8.59375 
Q 77.734375 -4.6875 67.1875 2.34375 
Q 56.640625 9.375 50.78125 19.140625 
L 55.859375 21.875 
Q 60.9375 14.453125 67.578125 9.375 
Q 74.21875 17.1875 76.171875 21.484375 
Q 79.296875 18.75 82.8125 16.40625 
z
M 89.0625 80.078125 
Q 88.28125 75.390625 88.28125 72.265625 
L 88.28125 41.796875 
Q 88.28125 37.109375 85.734375 35.34375 
Q 83.203125 33.59375 71.484375 32.8125 
Q 71.484375 36.328125 68.75 40.234375 
Q 78.125 40.234375 79.6875 40.8125 
Q 81.25 41.40625 81.640625 43.75 
L 81.640625 67.96875 
Q 81.640625 75.390625 81.25 80.078125 
L 89.0625 80.078125 
z
M 71.875 73.046875 
Q 71.484375 70.703125 71.484375 64.453125 
L 71.484375 55.859375 
Q 71.484375 51.171875 71.875 45.3125 
L 64.453125 45.3125 
Q 64.84375 51.5625 64.84375 55.859375 
L 64.84375 64.453125 
Q 64.84375 70.3125 64.453125 73.046875 
L 71.875 73.046875 
z
" id="SimHei-88c2"/>
      <path d="M 48.828125 8.203125 
Q 52.734375 4.6875 56.640625 2.921875 
Q 60.546875 1.171875 69.53125 0.78125 
L 69.53125 9.375 
Q 60.546875 9.375 54.296875 8.984375 
L 54.296875 15.625 
Q 60.546875 15.234375 69.53125 15.234375 
L 69.53125 21.484375 
Q 61.71875 21.484375 55.859375 21.09375 
L 55.859375 27.734375 
Q 61.71875 26.953125 69.53125 26.953125 
L 69.53125 34.375 
Q 61.328125 34.375 55.46875 33.984375 
L 55.46875 40.234375 
Q 61.328125 39.84375 69.53125 39.84375 
Q 69.53125 42.1875 69.140625 45.703125 
L 76.5625 45.703125 
Q 76.171875 42.1875 76.171875 39.84375 
Q 83.203125 39.84375 90.625 40.234375 
L 90.625 33.984375 
Q 83.203125 34.375 76.171875 34.375 
L 76.171875 26.953125 
Q 83.203125 26.953125 90.234375 27.734375 
L 90.234375 21.09375 
Q 83.203125 21.484375 76.171875 21.484375 
L 76.171875 15.234375 
Q 84.375 15.234375 91.796875 15.625 
L 91.796875 8.984375 
Q 84.375 9.375 76.171875 9.375 
L 76.171875 0.78125 
Q 87.5 0.78125 96.875 1.953125 
Q 94.921875 -2.34375 94.53125 -6.25 
Q 86.328125 -6.25 77.921875 -6.046875 
Q 69.53125 -5.859375 62.5 -5.078125 
Q 55.46875 -4.296875 51.171875 -0.390625 
Q 46.875 3.515625 43.9375 0.1875 
Q 41.015625 -3.125 38.28125 -8.59375 
Q 34.765625 -4.6875 30.859375 -2.734375 
Q 36.328125 1.953125 42.1875 7.03125 
L 42.1875 39.453125 
Q 39.0625 39.453125 34.765625 39.0625 
L 34.765625 46.09375 
L 49.21875 46.09375 
Q 48.828125 40.625 48.828125 35.15625 
z
M 56.640625 55.859375 
Q 53.515625 58.59375 50.78125 60.15625 
Q 55.078125 64.453125 58.390625 70.109375 
Q 61.71875 75.78125 64.0625 82.421875 
Q 67.96875 80.859375 71.875 79.6875 
Q 69.921875 76.953125 67.96875 73.4375 
L 91.40625 73.4375 
Q 89.0625 67.96875 85.9375 63.28125 
Q 82.8125 58.59375 78.90625 54.6875 
Q 83.203125 53.125 86.90625 52.34375 
Q 90.625 51.5625 96.875 51.171875 
Q 94.921875 48.4375 93.359375 43.75 
Q 89.84375 44.921875 85.15625 46.28125 
Q 80.46875 47.65625 73.828125 50.78125 
Q 68.75 47.65625 63.859375 45.703125 
Q 58.984375 43.75 54.296875 42.1875 
Q 52.734375 46.484375 50.390625 49.609375 
Q 55.46875 49.609375 61.125 51.359375 
Q 66.796875 53.125 69.140625 54.6875 
Q 64.453125 59.375 61.71875 63.28125 
Q 58.984375 58.984375 56.640625 55.859375 
z
M 4.6875 50.390625 
Q 7.8125 51.171875 12.890625 61.328125 
Q 17.96875 71.484375 19.53125 80.078125 
Q 23.828125 77.34375 28.125 76.171875 
Q 25.390625 73.4375 21.484375 64.84375 
Q 17.578125 56.25 14.0625 50.390625 
Q 21.484375 50.78125 25 50.78125 
Q 28.125 56.640625 28.90625 61.71875 
Q 32.03125 60.15625 37.890625 58.203125 
Q 35.546875 56.640625 31.640625 49.21875 
Q 27.734375 41.796875 19.921875 26.171875 
Q 21.875 26.5625 34.375 28.90625 
Q 33.59375 25.390625 33.59375 21.484375 
Q 28.90625 21.484375 23.4375 20.5 
Q 17.96875 19.53125 10.9375 17.1875 
Q 9.375 21.875 7.8125 25.390625 
Q 12.5 26.5625 15.234375 31.25 
Q 17.96875 35.9375 22.265625 44.921875 
Q 19.53125 44.921875 15.03125 44.140625 
Q 10.546875 43.359375 7.8125 42.1875 
Q 6.640625 46.484375 4.6875 50.390625 
z
M 34.375 6.640625 
Q 28.125 4.6875 20.703125 2.140625 
Q 13.28125 -0.390625 9.375 -2.734375 
Q 7.8125 1.171875 5.46875 5.078125 
Q 10.9375 6.25 17.96875 8.59375 
Q 25 10.9375 33.203125 14.0625 
Q 33.59375 9.375 34.375 6.640625 
z
M 43.359375 78.125 
Q 48.046875 68.75 50 64.453125 
Q 46.875 63.28125 42.96875 60.546875 
Q 40.625 67.96875 35.9375 74.609375 
Q 39.84375 75.78125 43.359375 78.125 
z
M 74.21875 57.8125 
Q 78.515625 61.71875 81.640625 67.578125 
L 66.015625 67.578125 
Q 68.359375 62.890625 74.21875 57.8125 
z
" id="SimHei-7f1d"/>
      <path d="M 34.765625 55.078125 
Q 34.765625 57.8125 34.375 61.328125 
L 42.1875 61.328125 
Q 41.796875 57.8125 41.796875 55.078125 
L 57.03125 55.078125 
Q 57.03125 57.421875 56.640625 61.71875 
L 64.453125 61.71875 
Q 64.0625 57.421875 64.0625 55.078125 
Q 72.265625 55.078125 79.6875 55.46875 
L 79.6875 48.046875 
Q 71.484375 48.828125 64.0625 48.828125 
L 64.0625 38.671875 
L 78.515625 38.671875 
Q 78.125 33.984375 78.125 29.296875 
L 78.125 23.046875 
Q 78.125 19.140625 78.515625 12.890625 
L 70.703125 12.890625 
L 70.703125 32.8125 
L 28.125 32.8125 
L 28.125 11.71875 
L 20.3125 11.71875 
Q 20.703125 18.75 20.703125 22.65625 
L 20.703125 28.90625 
Q 20.703125 33.984375 20.3125 38.671875 
L 34.765625 38.671875 
L 34.765625 48.828125 
L 29.296875 48.828125 
Q 26.5625 48.828125 19.140625 47.65625 
L 19.140625 55.46875 
Q 26.5625 55.078125 29.296875 55.078125 
L 34.765625 55.078125 
z
M 83.984375 54.6875 
L 83.984375 65.234375 
L 14.84375 65.234375 
L 14.84375 53.125 
L 6.640625 53.125 
Q 7.03125 58.203125 7.03125 61.71875 
Q 7.03125 65.625 6.640625 71.484375 
L 47.265625 71.484375 
Q 46.484375 73.4375 42.578125 80.078125 
Q 47.65625 81.25 51.5625 82.8125 
Q 54.6875 76.5625 56.640625 71.484375 
L 92.1875 71.484375 
Q 91.796875 66.40625 91.796875 62.109375 
Q 91.796875 57.8125 92.1875 54.6875 
z
M 51.953125 28.515625 
Q 48.4375 14.0625 44.53125 7.21875 
Q 40.625 0.390625 33 -3.703125 
Q 25.390625 -7.8125 10.15625 -10.9375 
Q 8.59375 -5.46875 6.25 -1.5625 
Q 16.015625 -1.171875 22.65625 0.578125 
Q 29.296875 2.34375 33.59375 6.046875 
Q 37.890625 9.765625 39.84375 15.421875 
Q 41.796875 21.09375 42.578125 30.46875 
Q 48.4375 28.90625 51.953125 28.515625 
z
M 62.109375 19.53125 
Q 61.71875 14.453125 61.71875 10.546875 
L 61.71875 2.34375 
Q 61.71875 -1.171875 65.625 -1.5625 
L 77.34375 -1.5625 
Q 82.03125 -1.5625 84.375 0 
Q 86.71875 1.5625 88.28125 8.59375 
Q 91.796875 6.25 95.703125 4.6875 
Q 92.578125 -7.8125 80.859375 -8.203125 
L 62.890625 -8.203125 
Q 54.6875 -7.8125 53.90625 -0.390625 
L 53.90625 11.328125 
Q 53.90625 14.453125 53.515625 19.53125 
L 62.109375 19.53125 
z
M 57.03125 38.671875 
L 57.03125 48.828125 
L 41.796875 48.828125 
L 41.796875 38.671875 
z
" id="SimHei-5bbd"/>
      <path d="M 27.34375 26.171875 
Q 38.28125 25.78125 44.921875 25.78125 
L 81.25 25.78125 
Q 77.734375 19.53125 72.65625 13.28125 
Q 67.578125 7.03125 62.890625 3.125 
Q 67.96875 0.78125 77.34375 -0.78125 
Q 86.71875 -2.34375 95.3125 -2.34375 
Q 92.96875 -4.6875 91.015625 -10.15625 
Q 79.6875 -8.59375 71.09375 -6.4375 
Q 62.5 -4.296875 56.640625 -1.5625 
Q 48.4375 -5.078125 40.421875 -7.21875 
Q 32.421875 -9.375 23.828125 -10.546875 
Q 22.65625 -7.421875 19.140625 -3.90625 
Q 26.171875 -3.90625 35.15625 -1.953125 
Q 44.140625 0 50.78125 3.125 
Q 44.140625 8.59375 37.5 19.921875 
L 27.34375 19.53125 
z
M 46.484375 79.296875 
Q 50.78125 80.46875 54.296875 82.03125 
Q 56.640625 77.734375 58.984375 70.703125 
L 73.4375 70.703125 
Q 77.734375 70.703125 89.0625 71.09375 
L 89.0625 64.0625 
Q 78.125 64.453125 72.65625 64.453125 
L 21.484375 64.453125 
Q 21.484375 46.875 21.09375 36.125 
Q 20.703125 25.390625 18.9375 14.84375 
Q 17.1875 4.296875 11.328125 -8.203125 
Q 7.8125 -5.859375 3.90625 -4.6875 
Q 10.15625 6.25 11.90625 16.796875 
Q 13.671875 27.34375 13.859375 43.75 
Q 14.0625 60.15625 13.671875 70.703125 
L 50 70.703125 
Q 48.4375 75.78125 46.484375 79.296875 
z
M 38.671875 51.5625 
Q 38.671875 57.8125 38.28125 61.328125 
L 46.484375 61.328125 
Q 46.09375 58.203125 46.09375 51.5625 
L 67.1875 51.5625 
Q 67.1875 57.8125 66.796875 61.71875 
L 75 61.71875 
Q 74.609375 57.03125 74.609375 51.5625 
Q 83.203125 51.5625 89.453125 51.953125 
L 89.453125 45.3125 
Q 83.59375 45.703125 74.609375 45.703125 
Q 74.609375 35.15625 75 30.46875 
L 38.28125 30.46875 
Q 38.671875 36.71875 38.671875 45.703125 
Q 33.984375 45.703125 25 45.3125 
L 25 51.953125 
Q 33.984375 51.5625 38.671875 51.5625 
z
M 67.1875 36.71875 
L 67.1875 45.703125 
L 46.09375 45.703125 
L 46.09375 36.71875 
z
M 44.921875 19.921875 
Q 50 12.109375 57.03125 6.640625 
Q 62.890625 10.9375 69.140625 19.921875 
L 45.3125 19.921875 
z
" id="SimHei-5ea6"/>
      <path d="M 46.484375 -3.125 
L 42.1875 -7.421875 
Q 32.421875 1.953125 27.53125 12.109375 
Q 22.65625 22.265625 22.65625 35.15625 
Q 22.65625 48.046875 27.53125 58.203125 
Q 32.421875 68.359375 42.1875 78.125 
L 46.484375 73.828125 
Q 37.5 65.234375 33 56.046875 
Q 28.515625 46.875 28.515625 35.15625 
Q 28.515625 23.4375 33 14.25 
Q 37.5 5.078125 46.484375 -3.125 
z
" id="SimHei-28"/>
      <path d="M 47.65625 1.953125 
L 39.84375 1.953125 
L 39.84375 33.59375 
Q 39.84375 35.9375 39.0625 37.5 
Q 38.28125 39.0625 35.9375 39.0625 
Q 33.203125 39.0625 30.859375 36.125 
Q 28.515625 33.203125 28.515625 28.515625 
L 28.515625 1.953125 
L 20.703125 1.953125 
L 20.703125 33.59375 
Q 20.703125 35.9375 19.921875 37.5 
Q 19.140625 39.0625 16.796875 39.0625 
Q 14.0625 39.0625 11.71875 36.125 
Q 9.375 33.203125 9.375 28.515625 
L 9.375 1.953125 
L 1.5625 1.953125 
L 1.5625 45.703125 
L 9.375 45.703125 
L 9.375 39.84375 
Q 11.328125 42.96875 14.0625 44.71875 
Q 16.796875 46.484375 19.921875 46.484375 
Q 23.046875 46.484375 25.1875 44.71875 
Q 27.34375 42.96875 28.125 39.84375 
Q 30.078125 42.96875 32.609375 44.71875 
Q 35.15625 46.484375 38.28125 46.484375 
Q 42.96875 46.484375 45.3125 43.9375 
Q 47.65625 41.40625 47.65625 36.71875 
z
" id="SimHei-6d"/>
      <path d="M 26.171875 35.15625 
Q 26.171875 22.265625 21.28125 12.109375 
Q 16.40625 1.953125 6.640625 -7.421875 
L 2.34375 -3.125 
Q 11.328125 5.078125 15.8125 14.25 
Q 20.3125 23.4375 20.3125 35.15625 
Q 20.3125 46.875 15.8125 56.046875 
Q 11.328125 65.234375 2.34375 73.828125 
L 6.640625 78.125 
Q 16.40625 68.359375 21.28125 58.203125 
Q 26.171875 48.046875 26.171875 35.15625 
z
" id="SimHei-29"/>
     </defs>
     <g transform="translate(198.476562 274.121875)scale(0.12 -0.12)">
      <use xlink:href="#SimHei-88c2"/>
      <use x="100" xlink:href="#SimHei-7f1d"/>
      <use x="200" xlink:href="#SimHei-5bbd"/>
      <use x="300" xlink:href="#SimHei-5ea6"/>
      <use x="400" xlink:href="#SimHei-28"/>
      <use x="450" xlink:href="#SimHei-6d"/>
      <use x="500" xlink:href="#SimHei-6d"/>
      <use x="550" xlink:href="#SimHei-29"/>
     </g>
    </g>
   </g>
   <g id="matplotlib.axis_2">
    <g id="ytick_1">
     <g id="line2d_9">
      <defs>
       <path d="M 0 0 
L -3.5 0 
" id="m714cc1965c" style="stroke:#000000;stroke-width:0.8;"/>
      </defs>
      <g>
       <use style="stroke:#000000;stroke-width:0.8;" x="51.253125" xlink:href="#m714cc1965c" y="233.198153"/>
      </g>
     </g>
     <g id="text_10">
      <!-- 0.0 -->
      <defs>
       <path d="M 16.796875 1.953125 
L 7.8125 1.953125 
L 7.8125 10.546875 
L 16.796875 10.546875 
z
" id="SimHei-2e"/>
      </defs>
      <g transform="translate(26.253125 237.323153)scale(0.12 -0.12)">
       <use xlink:href="#SimHei-30"/>
       <use x="50" xlink:href="#SimHei-2e"/>
       <use x="100" xlink:href="#SimHei-30"/>
      </g>
     </g>
    </g>
    <g id="ytick_2">
     <g id="line2d_10">
      <g>
       <use style="stroke:#000000;stroke-width:0.8;" x="51.253125" xlink:href="#m714cc1965c" y="212.35071"/>
      </g>
     </g>
     <g id="text_11">
      <!-- 0.1 -->
      <g transform="translate(26.253125 216.47571)scale(0.12 -0.12)">
       <use xlink:href="#SimHei-30"/>
       <use x="50" xlink:href="#SimHei-2e"/>
       <use x="100" xlink:href="#SimHei-31"/>
      </g>
     </g>
    </g>
    <g id="ytick_3">
     <g id="line2d_11">
      <g>
       <use style="stroke:#000000;stroke-width:0.8;" x="51.253125" xlink:href="#m714cc1965c" y="191.503267"/>
      </g>
     </g>
     <g id="text_12">
      <!-- 0.2 -->
      <g transform="translate(26.253125 195.628267)scale(0.12 -0.12)">
       <use xlink:href="#SimHei-30"/>
       <use x="50" xlink:href="#SimHei-2e"/>
       <use x="100" xlink:href="#SimHei-32"/>
      </g>
     </g>
    </g>
    <g id="ytick_4">
     <g id="line2d_12">
      <g>
       <use style="stroke:#000000;stroke-width:0.8;" x="51.253125" xlink:href="#m714cc1965c" y="170.655824"/>
      </g>
     </g>
     <g id="text_13">
      <!-- 0.3 -->
      <g transform="translate(26.253125 174.780824)scale(0.12 -0.12)">
       <use xlink:href="#SimHei-30"/>
       <use x="50" xlink:href="#SimHei-2e"/>
       <use x="100" xlink:href="#SimHei-33"/>
      </g>
     </g>
    </g>
    <g id="ytick_5">
     <g id="line2d_13">
      <g>
       <use style="stroke:#000000;stroke-width:0.8;" x="51.253125" xlink:href="#m714cc1965c" y="149.808381"/>
      </g>
     </g>
     <g id="text_14">
      <!-- 0.4 -->
      <g transform="translate(26.253125 153.933381)scale(0.12 -0.12)">
       <use xlink:href="#SimHei-30"/>
       <use x="50" xlink:href="#SimHei-2e"/>
       <use x="100" xlink:href="#SimHei-34"/>
      </g>
     </g>
    </g>
    <g id="ytick_6">
     <g id="line2d_14">
      <g>
       <use style="stroke:#000000;stroke-width:0.8;" x="51.253125" xlink:href="#m714cc1965c" y="128.960938"/>
      </g>
     </g>
     <g id="text_15">
      <!-- 0.5 -->
      <g transform="translate(26.253125 133.085938)scale(0.12 -0.12)">
       <use xlink:href="#SimHei-30"/>
       <use x="50" xlink:href="#SimHei-2e"/>
       <use x="100" xlink:href="#SimHei-35"/>
      </g>
     </g>
    </g>
    <g id="ytick_7">
     <g id="line2d_15">
      <g>
       <use style="stroke:#000000;stroke-width:0.8;" x="51.253125" xlink:href="#m714cc1965c" y="108.113494"/>
      </g>
     </g>
     <g id="text_16">
      <!-- 0.6 -->
      <g transform="translate(26.253125 112.238494)scale(0.12 -0.12)">
       <use xlink:href="#SimHei-30"/>
       <use x="50" xlink:href="#SimHei-2e"/>
       <use x="100" xlink:href="#SimHei-36"/>
      </g>
     </g>
    </g>
    <g id="ytick_8">
     <g id="line2d_16">
      <g>
       <use style="stroke:#000000;stroke-width:0.8;" x="51.253125" xlink:href="#m714cc1965c" y="87.266051"/>
      </g>
     </g>
     <g id="text_17">
      <!-- 0.7 -->
      <g transform="translate(26.253125 91.391051)scale(0.12 -0.12)">
       <use xlink:href="#SimHei-30"/>
       <use x="50" xlink:href="#SimHei-2e"/>
       <use x="100" xlink:href="#SimHei-37"/>
      </g>
     </g>
    </g>
    <g id="ytick_9">
     <g id="line2d_17">
      <g>
       <use style="stroke:#000000;stroke-width:0.8;" x="51.253125" xlink:href="#m714cc1965c" y="66.418608"/>
      </g>
     </g>
     <g id="text_18">
      <!-- 0.8 -->
      <defs>
       <path d="M 2.734375 16.796875 
Q 2.734375 26.171875 5.078125 30.65625 
Q 7.421875 35.15625 12.890625 37.890625 
Q 8.203125 40.625 6.640625 43.9375 
Q 5.078125 47.265625 4.875 51.5625 
Q 4.6875 55.859375 6.046875 58.984375 
Q 7.421875 62.109375 10.15625 64.84375 
Q 12.890625 67.578125 16.203125 68.546875 
Q 19.53125 69.53125 23.4375 69.53125 
Q 27.34375 69.53125 30.46875 68.75 
Q 33.59375 67.96875 37.109375 65.421875 
Q 40.625 62.890625 42.1875 58.203125 
Q 43.75 53.515625 41.984375 47.265625 
Q 40.234375 41.015625 32.8125 37.5 
Q 39.453125 35.546875 42.1875 31.4375 
Q 44.921875 27.34375 44.921875 21.484375 
Q 44.921875 15.625 43.15625 12.109375 
Q 41.40625 8.59375 39.25 6.25 
Q 37.109375 3.90625 33.390625 2.53125 
Q 29.6875 1.171875 24.015625 1.171875 
Q 18.359375 1.171875 14.25 2.53125 
Q 10.15625 3.90625 7.421875 6.640625 
Q 4.6875 9.375 3.703125 13.078125 
Q 2.734375 16.796875 2.734375 26.171875 
z
M 10.9375 26.5625 
Q 10.546875 17.1875 12.296875 13.671875 
Q 14.0625 10.15625 18.75 9.171875 
Q 23.4375 8.203125 28.515625 9.375 
Q 33.59375 10.546875 35.546875 14.84375 
Q 37.5 19.140625 36.90625 23.4375 
Q 36.328125 27.734375 32.03125 30.65625 
Q 27.734375 33.59375 22.65625 33.203125 
Q 17.578125 32.8125 14.25 29.6875 
Q 10.9375 26.5625 10.546875 17.1875 
z
M 12.109375 56.25 
Q 12.109375 48.4375 14.84375 44.921875 
Q 17.578125 41.40625 23.4375 41.40625 
Q 29.296875 41.40625 32.21875 44.921875 
Q 35.15625 48.4375 34.953125 53.3125 
Q 34.765625 58.203125 31.4375 60.546875 
Q 28.125 62.890625 22.453125 62.5 
Q 16.796875 62.109375 14.453125 59.171875 
Q 12.109375 56.25 12.109375 48.4375 
z
" id="SimHei-38"/>
      </defs>
      <g transform="translate(26.253125 70.543608)scale(0.12 -0.12)">
       <use xlink:href="#SimHei-30"/>
       <use x="50" xlink:href="#SimHei-2e"/>
       <use x="100" xlink:href="#SimHei-38"/>
      </g>
     </g>
    </g>
    <g id="ytick_10">
     <g id="line2d_18">
      <g>
       <use style="stroke:#000000;stroke-width:0.8;" x="51.253125" xlink:href="#m714cc1965c" y="45.571165"/>
      </g>
     </g>
     <g id="text_19">
      <!-- 0.9 -->
      <defs>
       <path d="M 12.5 1.171875 
Q 21.09375 15.625 26.5625 27.34375 
Q 16.796875 25.78125 10.34375 29.875 
Q 3.90625 33.984375 2.53125 41.015625 
Q 1.171875 48.046875 2.734375 53.703125 
Q 4.296875 59.375 7.609375 63.078125 
Q 10.9375 66.796875 15.625 68.359375 
Q 20.3125 69.921875 24.015625 69.921875 
Q 27.734375 69.921875 31.640625 68.359375 
Q 35.546875 66.796875 38.671875 63.671875 
Q 41.796875 60.546875 42.96875 57.21875 
Q 44.140625 53.90625 44.140625 48.625 
Q 44.140625 43.359375 40.234375 35.15625 
Q 36.328125 26.953125 21.09375 1.171875 
z
M 9.765625 50 
Q 10.9375 39.84375 14.640625 36.515625 
Q 18.359375 33.203125 22.65625 33.59375 
Q 26.953125 33.984375 29.484375 35.9375 
Q 32.03125 37.890625 34.375 42.578125 
Q 35.9375 48.4375 35.15625 52.53125 
Q 34.375 56.640625 31.046875 59.375 
Q 27.734375 62.109375 23.828125 62.109375 
Q 21.484375 62.5 17.765625 60.9375 
Q 14.0625 59.375 11.90625 54.6875 
Q 9.765625 50 10.9375 39.84375 
z
" id="SimHei-39"/>
      </defs>
      <g transform="translate(26.253125 49.696165)scale(0.12 -0.12)">
       <use xlink:href="#SimHei-30"/>
       <use x="50" xlink:href="#SimHei-2e"/>
       <use x="100" xlink:href="#SimHei-39"/>
      </g>
     </g>
    </g>
    <g id="ytick_11">
     <g id="line2d_19">
      <g>
       <use style="stroke:#000000;stroke-width:0.8;" x="51.253125" xlink:href="#m714cc1965c" y="24.723722"/>
      </g>
     </g>
     <g id="text_20">
      <!-- 1.0 -->
      <g transform="translate(26.253125 28.848722)scale(0.12 -0.12)">
       <use xlink:href="#SimHei-31"/>
       <use x="50" xlink:href="#SimHei-2e"/>
       <use x="100" xlink:href="#SimHei-30"/>
      </g>
     </g>
    </g>
    <g id="text_21">
     <!-- 隶属度 -->
     <defs>
      <path d="M 52.734375 80.859375 
Q 52.34375 77.34375 52.34375 71.875 
L 80.46875 71.875 
Q 80.078125 64.84375 80.078125 57.03125 
Q 87.109375 57.03125 93.359375 57.421875 
L 93.359375 50.390625 
Q 87.109375 50.78125 80.078125 50.78125 
Q 80.078125 43.359375 80.46875 35.546875 
L 52.34375 35.546875 
L 52.34375 30.078125 
Q 57.421875 22.65625 62.109375 19.140625 
Q 66.796875 21.484375 71.28125 25.390625 
Q 75.78125 29.296875 78.125 32.8125 
Q 83.203125 27.34375 85.9375 25.78125 
Q 81.640625 23.828125 78.125 21.671875 
Q 74.609375 19.53125 66.796875 15.234375 
Q 70.3125 12.5 76.5625 9.765625 
Q 82.8125 7.03125 94.140625 5.859375 
Q 90.625 2.34375 88.28125 -4.296875 
Q 77.34375 -0.390625 71.671875 3.125 
Q 66.015625 6.640625 60.734375 10.734375 
Q 55.46875 14.84375 52.34375 20.3125 
L 52.34375 3.125 
Q 52.734375 -5.859375 48.234375 -7.421875 
Q 43.75 -8.984375 37.890625 -9.765625 
Q 37.109375 -3.515625 34.765625 0 
Q 42.578125 -0.78125 43.9375 0.578125 
Q 45.3125 1.953125 45.3125 4.296875 
L 45.3125 35.546875 
L 28.515625 35.546875 
Q 23.046875 35.546875 16.40625 35.15625 
L 16.40625 42.578125 
Q 23.046875 42.1875 28.515625 42.1875 
L 45.3125 42.1875 
L 45.3125 50.78125 
L 19.53125 50.78125 
Q 13.28125 50.78125 7.03125 50.390625 
L 7.03125 57.421875 
Q 13.671875 57.03125 19.140625 57.03125 
L 45.3125 57.03125 
L 45.3125 65.625 
L 28.125 65.625 
Q 23.828125 65.625 16.40625 65.234375 
L 16.40625 72.265625 
Q 23.4375 71.875 28.125 71.875 
L 45.3125 71.875 
Q 45.3125 77.34375 44.921875 80.859375 
L 52.734375 80.859375 
z
M 6.640625 4.296875 
L 15.234375 7.421875 
Q 19.53125 8.984375 23.625 10.9375 
Q 27.734375 12.890625 32.03125 15.421875 
Q 36.328125 17.96875 40.625 19.921875 
Q 42.1875 17.1875 43.75 12.890625 
Q 39.0625 10.9375 34.953125 8.78125 
Q 30.859375 6.640625 26.953125 4.484375 
Q 23.046875 2.34375 18.9375 0.1875 
Q 14.84375 -1.953125 11.328125 -4.296875 
z
M 72.65625 42.1875 
L 72.65625 50.78125 
L 52.34375 50.78125 
L 52.34375 42.1875 
z
M 72.65625 57.03125 
L 72.65625 65.625 
L 52.34375 65.625 
L 52.34375 57.03125 
z
M 22.65625 32.421875 
Q 29.6875 26.171875 33.59375 21.484375 
Q 31.640625 19.140625 27.734375 16.015625 
Q 23.4375 21.484375 17.1875 27.34375 
Q 20.3125 30.46875 22.65625 32.421875 
z
" id="SimHei-96b6"/>
      <path d="M 86.71875 48.4375 
Q 69.53125 47.65625 59.765625 47.265625 
L 59.765625 41.796875 
L 83.984375 41.796875 
Q 83.59375 37.5 83.59375 33.203125 
Q 83.59375 28.90625 83.984375 24.609375 
L 59.765625 24.609375 
L 59.765625 19.53125 
L 91.796875 19.53125 
Q 91.40625 13.28125 91.40625 8.203125 
L 91.40625 -2.34375 
Q 91.015625 -5.859375 88.859375 -7.21875 
Q 86.71875 -8.59375 78.125 -10.15625 
Q 77.34375 -6.25 74.609375 -2.34375 
Q 79.6875 -2.34375 82.21875 -2.140625 
Q 84.765625 -1.953125 84.375 1.953125 
L 84.375 14.0625 
L 59.765625 14.0625 
L 59.765625 7.03125 
Q 65.625 7.421875 69.140625 7.8125 
Q 67.96875 9.765625 67.1875 10.9375 
Q 70.703125 12.109375 72.65625 13.671875 
Q 76.953125 7.421875 80.078125 1.953125 
Q 77.34375 0.78125 73.828125 -1.171875 
Q 73.046875 0.390625 71.875 2.34375 
Q 68.359375 2.34375 59.375 1.359375 
Q 50.390625 0.390625 40.625 -1.171875 
Q 40.234375 1.953125 38.28125 5.859375 
Q 46.875 5.859375 53.125 6.640625 
L 53.125 14.0625 
L 34.375 14.0625 
L 34.375 -8.59375 
L 27.34375 -8.59375 
Q 27.734375 -3.125 27.734375 5.078125 
Q 27.734375 13.28125 27.34375 19.53125 
L 53.125 19.53125 
L 53.125 24.609375 
L 31.25 24.609375 
Q 31.640625 29.296875 31.640625 33.203125 
Q 31.640625 37.5 31.25 41.796875 
L 53.125 41.796875 
L 53.125 46.875 
Q 38.671875 46.09375 30.46875 45.703125 
Q 29.6875 49.21875 27.734375 52.34375 
Q 42.1875 52.34375 56.4375 53.125 
Q 70.703125 53.90625 82.03125 55.859375 
Q 83.984375 51.953125 86.71875 48.4375 
z
M 86.328125 78.125 
Q 85.9375 71.875 85.9375 67.1875 
Q 85.9375 62.890625 86.328125 58.59375 
L 23.046875 58.59375 
Q 23.046875 47.65625 22.84375 38.859375 
Q 22.65625 30.078125 21.484375 22.453125 
Q 20.3125 14.84375 18.15625 8 
Q 16.015625 1.171875 11.71875 -7.03125 
Q 8.203125 -5.078125 3.90625 -3.515625 
Q 10.546875 7.03125 13.078125 17.1875 
Q 15.625 27.34375 15.8125 38.859375 
Q 16.015625 50.390625 16.015625 57.421875 
Q 16.015625 64.453125 15.625 78.125 
L 86.328125 78.125 
z
M 78.90625 64.0625 
L 78.90625 71.875 
L 23.046875 71.875 
L 23.046875 64.0625 
z
M 77.34375 30.078125 
L 77.34375 36.71875 
L 59.765625 36.71875 
L 59.765625 30.078125 
z
M 53.125 30.078125 
L 53.125 36.71875 
L 37.890625 36.71875 
L 37.890625 30.078125 
z
" id="SimHei-5c5e"/>
     </defs>
     <g transform="translate(20.753125 146.960938)rotate(-90)scale(0.12 -0.12)">
      <use xlink:href="#SimHei-96b6"/>
      <use x="100" xlink:href="#SimHei-5c5e"/>
      <use x="200" xlink:href="#SimHei-5ea6"/>
     </g>
    </g>
   </g>
   <g id="line2d_20">
    <path clip-path="url(#p1f9439258f)" d="M 51.253125 24.723722 
L 90.53623 24.807078 
L 90.792743 25.16871 
L 91.122545 26.049473 
L 91.562281 27.931021 
L 92.111952 31.354598 
L 92.808201 37.21864 
L 93.724318 47.041829 
L 95.043527 63.92715 
L 99.184376 118.590365 
L 100.723453 135.272549 
L 102.189241 148.800888 
L 103.618383 159.951608 
L 105.010882 169.126134 
L 106.40338 176.882845 
L 107.832523 183.609792 
L 109.261665 189.30015 
L 110.727453 194.248727 
L 112.229885 198.554038 
L 113.768962 202.303927 
L 115.344683 205.575407 
L 116.993694 208.495214 
L 118.715995 211.094713 
L 120.511584 213.405005 
L 122.417108 215.493027 
L 124.432566 217.370314 
L 126.594603 219.077792 
L 128.903218 220.618908 
L 131.431701 222.039062 
L 134.216698 223.345911 
L 137.331496 224.556395 
L 140.812741 225.665808 
L 144.770368 226.688393 
L 149.314309 227.627132 
L 154.591144 228.484803 
L 160.820741 229.266169 
L 168.296257 229.973017 
L 177.457429 230.607676 
L 188.927216 231.169854 
L 203.695025 231.660278 
L 223.409867 232.079946 
L 250.966672 232.429418 
L 292.045367 232.709993 
L 359.178434 232.923074 
L 417.663355 233.012513 
L 417.663355 233.012513 
" style="fill:none;stroke:#008000;stroke-linecap:square;stroke-width:1.5;"/>
   </g>
   <g id="line2d_21">
    <path clip-path="url(#p1f9439258f)" d="M 51.253125 191.503267 
L 55.35733 188.56704 
L 59.314956 185.462021 
L 63.126004 182.189606 
L 66.827117 178.717845 
L 70.418297 175.04402 
L 73.936187 171.124999 
L 77.380787 166.95181 
L 80.752098 162.517212 
L 84.086765 157.761897 
L 87.384787 152.670658 
L 90.682809 147.167196 
L 93.980831 141.227531 
L 97.315497 134.75796 
L 100.686808 127.728955 
L 104.168054 119.951547 
L 107.832523 111.209374 
L 111.790149 101.178864 
L 116.444024 88.747557 
L 130.222427 51.483726 
L 133.080712 44.66788 
L 135.499262 39.455535 
L 137.588009 35.458794 
L 139.456888 32.341717 
L 141.142543 29.943318 
L 142.68162 28.12316 
L 144.110763 26.767437 
L 145.429972 25.813786 
L 146.675891 25.183227 
L 147.848521 24.833946 
L 148.984507 24.723735 
L 150.120492 24.838788 
L 151.256477 25.178362 
L 152.429107 25.762056 
L 153.675027 26.637314 
L 154.994235 27.843179 
L 156.423378 29.461864 
L 157.962455 31.550698 
L 159.648111 34.223232 
L 161.51699 37.61657 
L 163.605737 41.884596 
L 165.987642 47.272433 
L 168.809283 54.224949 
L 172.437107 63.794899 
L 178.996506 81.867665 
L 185.152813 98.554343 
L 189.476886 109.638785 
L 193.324578 118.903591 
L 196.952403 127.067784 
L 200.433648 134.363982 
L 203.841604 140.998888 
L 207.212915 147.082439 
L 210.584226 152.709855 
L 213.955538 157.906727 
L 217.326849 162.700939 
L 220.734805 167.167279 
L 224.21605 171.365661 
L 227.770585 175.304069 
L 231.398409 178.992196 
L 235.136167 182.473611 
L 238.983859 185.751662 
L 242.941485 188.831419 
L 247.04569 191.744136 
L 251.333119 194.513153 
L 255.803771 197.134793 
L 260.494291 199.626344 
L 265.441323 201.99998 
L 270.644869 204.248779 
L 276.178217 206.395795 
L 282.078012 208.443242 
L 288.380898 210.391719 
L 295.12352 212.240845 
L 302.379168 213.99813 
L 310.257776 215.674288 
L 318.795988 217.260762 
L 328.140384 218.76775 
L 338.400896 220.193802 
L 349.724105 221.539701 
L 362.329877 222.810014 
L 376.438082 224.003597 
L 392.341876 225.120993 
L 410.407707 226.162354 
L 417.663355 226.52521 
L 417.663355 226.52521 
" style="fill:none;stroke:#ffff00;stroke-linecap:square;stroke-width:1.5;"/>
   </g>
   <g id="line2d_22">
    <path clip-path="url(#p1f9439258f)" d="M 51.253125 220.934952 
L 62.429755 219.502847 
L 72.507044 217.991281 
L 81.668216 216.39587 
L 90.023204 214.719068 
L 97.718589 212.950843 
L 104.827658 211.09131 
L 111.423702 209.137652 
L 117.543365 207.095684 
L 123.259936 204.957006 
L 128.646705 202.706311 
L 133.703672 200.355412 
L 138.504126 197.880882 
L 143.084712 195.269715 
L 147.44543 192.527965 
L 151.622924 189.638414 
L 155.617195 186.606441 
L 159.464887 183.408667 
L 163.202645 180.013547 
L 166.830469 176.417735 
L 170.385004 172.57861 
L 173.829605 168.531389 
L 177.237561 164.182019 
L 180.572227 159.565725 
L 183.906894 154.564906 
L 187.204916 149.213983 
L 190.502938 143.435212 
L 193.837604 137.135091 
L 197.208915 130.28149 
L 200.653516 122.767727 
L 204.244695 114.390793 
L 208.092388 104.835102 
L 212.416461 93.479557 
L 218.389545 77.099568 
L 225.425325 57.927452 
L 228.833281 49.291815 
L 231.544988 43.001609 
L 233.853603 38.186828 
L 235.869061 34.473596 
L 237.701295 31.550698 
L 239.350306 29.326145 
L 240.852738 27.658874 
L 242.245236 26.43592 
L 243.5278 25.594114 
L 244.737075 25.056748 
L 245.909705 24.777077 
L 247.04569 24.734679 
L 248.181676 24.917475 
L 249.317661 25.324282 
L 250.526936 26.000525 
L 251.8095 26.986393 
L 253.165353 28.320603 
L 254.631141 30.087122 
L 256.206862 32.341717 
L 257.965807 35.262896 
L 259.907976 38.9378 
L 262.106657 43.596698 
L 264.63514 49.499614 
L 267.676649 57.19168 
L 271.780854 68.224378 
L 284.459916 102.700096 
L 288.564121 113.001808 
L 292.301879 121.799226 
L 295.856414 129.610384 
L 299.301015 136.654973 
L 302.708971 143.12348 
L 306.080282 149.049027 
L 309.451593 154.526783 
L 312.822904 159.583319 
L 316.23086 164.295576 
L 319.675461 168.680734 
L 323.193351 172.798322 
L 326.747886 176.61948 
L 330.412354 180.233195 
L 334.186757 183.641448 
L 338.071094 186.848203 
L 342.10201 189.885384 
L 346.279504 192.752732 
L 350.640222 195.473802 
L 355.184163 198.045939 
L 359.947973 200.486656 
L 364.968295 202.80843 
L 370.281774 205.019727 
L 375.925056 207.125895 
L 381.934785 209.129963 
L 388.38425 211.043591 
L 395.310096 212.863634 
L 402.785612 214.595041 
L 410.884088 216.239306 
L 417.663355 217.457998 
L 417.663355 217.457998 
" style="fill:none;stroke:#ffa500;stroke-linecap:square;stroke-width:1.5;"/>
   </g>
   <g id="line2d_23">
    <path clip-path="url(#p1f9439258f)" d="M 51.253125 233.198153 
L 271.67092 233.092667 
L 272.257235 232.748352 
L 272.91684 232.077974 
L 273.649733 230.988593 
L 274.492561 229.302162 
L 275.445323 226.865261 
L 276.544664 223.406282 
L 277.827228 218.590261 
L 279.366305 211.879895 
L 281.271828 202.505809 
L 284.02018 187.749246 
L 290.433 153.024345 
L 293.181352 139.55979 
L 295.673191 128.441054 
L 298.018451 118.962189 
L 300.327066 110.543207 
L 302.599037 103.090726 
L 304.834362 96.502551 
L 307.069688 90.585923 
L 309.341659 85.192102 
L 311.650274 80.283108 
L 313.995534 75.820083 
L 316.377439 71.764764 
L 318.795988 68.080452 
L 321.287827 64.685373 
L 323.852955 61.562373 
L 326.528018 58.656079 
L 329.313014 55.960882 
L 332.207944 53.468903 
L 335.249453 51.144244 
L 338.474186 48.961978 
L 341.882142 46.926152 
L 345.509966 45.01908 
L 349.394303 43.229095 
L 353.608442 41.535156 
L 358.152383 39.950385 
L 363.13606 38.451317 
L 368.596119 37.044833 
L 374.642492 35.721293 
L 381.34847 34.484609 
L 388.897276 33.323428 
L 397.435488 32.240629 
L 407.182975 31.234615 
L 417.663355 30.360908 
L 417.663355 30.360908 
" style="fill:none;stroke:#ff0000;stroke-linecap:square;stroke-width:1.5;"/>
   </g>
   <g id="line2d_24">
    <path clip-path="url(#p1f9439258f)" d="M 51.253125 128.960938 
L 75.682917 128.960938 
L 100.112708 128.960938 
L 124.5425 128.960938 
L 148.972292 128.960938 
L 173.402083 128.960938 
L 197.831875 128.960938 
L 222.261667 128.960938 
L 246.691458 128.960938 
L 271.12125 128.960938 
L 295.551042 128.960938 
L 319.980833 128.960938 
L 344.410625 128.960938 
L 368.840417 128.960938 
L 393.270208 128.960938 
L 417.7 128.960938 
" style="fill:none;stroke:#2f4f4f;stroke-dasharray:5.55,2.4;stroke-dashoffset:0;stroke-width:1.5;"/>
   </g>
   <g id="patch_3">
    <path d="M 51.253125 243.621875 
L 51.253125 14.3 
" style="fill:none;stroke:#000000;stroke-linecap:square;stroke-linejoin:miter;stroke-width:0.8;"/>
   </g>
   <g id="patch_4">
    <path d="M 417.7 243.621875 
L 417.7 14.3 
" style="fill:none;stroke:#000000;stroke-linecap:square;stroke-linejoin:miter;stroke-width:0.8;"/>
   </g>
   <g id="patch_5">
    <path d="M 51.253125 243.621875 
L 417.7 243.621875 
" style="fill:none;stroke:#000000;stroke-linecap:square;stroke-linejoin:miter;stroke-width:0.8;"/>
   </g>
   <g id="patch_6">
    <path d="M 51.253125 14.3 
L 417.7 14.3 
" style="fill:none;stroke:#000000;stroke-linecap:square;stroke-linejoin:miter;stroke-width:0.8;"/>
   </g>
   <g id="legend_1">
    <g id="patch_7">
     <path d="M 353.7 159.210938 
L 410.7 159.210938 
Q 412.7 159.210938 412.7 157.210938 
L 412.7 100.710938 
Q 412.7 98.710938 410.7 98.710938 
L 353.7 98.710938 
Q 351.7 98.710938 351.7 100.710938 
L 351.7 157.210938 
Q 351.7 159.210938 353.7 159.210938 
z
" style="fill:#ba55d3;opacity:0.8;stroke:#cccccc;stroke-linejoin:miter;"/>
    </g>
    <g id="line2d_25">
     <path d="M 355.7 107.335938 
L 375.7 107.335938 
" style="fill:none;stroke:#008000;stroke-linecap:square;stroke-width:1.5;"/>
    </g>
    <g id="line2d_26"/>
    <g id="text_22">
     <!-- 等级1 -->
     <defs>
      <path d="M 45.703125 53.90625 
Q 45.703125 56.640625 45.3125 61.71875 
L 53.90625 61.71875 
Q 53.515625 56.640625 53.515625 53.90625 
L 69.921875 53.90625 
Q 75.78125 53.90625 83.59375 54.296875 
L 83.59375 47.65625 
Q 76.171875 48.046875 70.3125 48.046875 
L 53.515625 48.046875 
L 53.515625 37.5 
L 81.640625 37.5 
Q 87.890625 37.5 95.703125 37.890625 
L 95.703125 30.859375 
Q 88.28125 31.25 81.640625 31.25 
L 73.4375 31.25 
L 73.4375 21.09375 
Q 83.203125 21.09375 89.84375 21.484375 
L 89.84375 14.453125 
Q 82.03125 14.84375 73.4375 14.84375 
L 73.4375 1.953125 
Q 73.828125 -5.078125 69.328125 -6.828125 
Q 64.84375 -8.59375 55.46875 -9.765625 
Q 54.6875 -5.078125 52.34375 -1.171875 
Q 58.984375 -1.5625 62.109375 -1.171875 
Q 65.234375 -0.78125 65.234375 4.296875 
L 65.234375 14.84375 
L 24.21875 14.84375 
Q 19.140625 14.84375 10.9375 14.453125 
L 10.9375 21.484375 
Q 18.75 21.09375 25.78125 21.09375 
L 65.234375 21.09375 
L 65.234375 31.25 
L 16.796875 31.25 
Q 11.71875 31.25 3.125 30.859375 
L 3.125 37.890625 
Q 11.71875 37.5 16.796875 37.5 
L 45.703125 37.5 
L 45.703125 48.046875 
L 30.078125 48.046875 
Q 24.609375 48.046875 16.40625 47.65625 
L 16.40625 54.296875 
Q 26.953125 53.90625 30.078125 53.90625 
z
M 28.515625 79.6875 
Q 26.171875 78.125 23.4375 73.828125 
L 37.5 73.828125 
Q 45.703125 73.828125 51.171875 74.21875 
L 51.171875 67.96875 
Q 46.875 68.359375 40.234375 68.359375 
L 35.546875 68.359375 
Q 37.5 65.234375 40.234375 60.15625 
Q 35.546875 58.59375 31.640625 57.421875 
Q 31.640625 58.203125 27.734375 68.359375 
L 20.703125 68.359375 
Q 17.578125 63.671875 11.71875 56.640625 
Q 8.203125 59.375 4.296875 60.9375 
Q 9.765625 65.234375 13.28125 70.703125 
Q 16.796875 76.171875 19.53125 82.8125 
Q 24.21875 80.859375 28.515625 79.6875 
z
M 57.8125 60.546875 
Q 54.6875 62.5 50.390625 63.671875 
Q 54.296875 66.796875 57.03125 71.484375 
Q 59.765625 76.171875 62.109375 82.03125 
Q 66.40625 80.46875 71.09375 78.90625 
Q 67.96875 76.171875 66.40625 73.4375 
L 82.421875 73.4375 
Q 85.15625 73.4375 95.703125 73.828125 
L 95.703125 67.578125 
Q 88.28125 67.96875 81.25 67.96875 
Q 85.546875 60.9375 87.5 58.203125 
Q 82.03125 57.03125 78.515625 55.859375 
Q 77.734375 59.375 73.4375 67.96875 
L 63.28125 67.96875 
Q 61.328125 64.84375 57.8125 60.546875 
z
M 40.234375 1.171875 
Q 36.71875 -0.78125 33.203125 -3.125 
Q 29.6875 3.515625 23.828125 9.765625 
Q 26.5625 11.328125 30.078125 14.0625 
Q 35.9375 7.8125 40.234375 1.171875 
z
" id="SimHei-7b49"/>
      <path d="M 83.59375 74.21875 
Q 80.078125 61.328125 76.5625 46.484375 
L 90.234375 46.484375 
Q 88.28125 36.328125 85.34375 27.34375 
Q 82.421875 18.359375 76.5625 8.984375 
Q 80.46875 5.078125 85.34375 1.75 
Q 90.234375 -1.5625 96.09375 -3.90625 
Q 91.796875 -7.421875 90.625 -10.9375 
Q 80.859375 -5.46875 71.875 3.90625 
Q 69.140625 1.171875 63.46875 -2.921875 
Q 57.8125 -7.03125 48.828125 -10.9375 
Q 46.875 -7.8125 43.359375 -5.46875 
Q 51.5625 -2.734375 57.421875 1.171875 
Q 63.28125 5.078125 67.578125 9.375 
Q 62.890625 14.84375 54.6875 30.46875 
Q 53.515625 21.875 48.828125 12.5 
Q 44.53125 2.734375 33.203125 -7.421875 
Q 30.859375 -5.46875 26.5625 -3.125 
Q 34.375 2.34375 39.453125 9.953125 
Q 44.53125 17.578125 46.671875 26.359375 
Q 48.828125 35.15625 49.21875 45.5 
Q 49.609375 55.859375 49.609375 67.96875 
Q 45.3125 67.96875 39.453125 67.578125 
L 39.453125 74.609375 
Q 46.484375 74.21875 58.203125 74.21875 
z
M 29.6875 75.78125 
Q 27.34375 72.65625 23.625 65.8125 
Q 19.921875 58.984375 14.0625 50.78125 
L 27.734375 51.5625 
Q 31.640625 57.8125 33.984375 64.453125 
Q 35.9375 62.890625 41.015625 59.765625 
Q 38.671875 55.859375 33.984375 48.4375 
Q 29.296875 41.015625 18.75 26.953125 
Q 30.46875 28.515625 37.5 29.6875 
Q 36.328125 25 36.328125 22.65625 
Q 32.421875 22.265625 24.40625 21.09375 
Q 16.40625 19.921875 8.984375 17.96875 
Q 7.8125 21.875 6.25 25 
Q 9.765625 26.953125 14.453125 31.828125 
Q 19.140625 36.71875 24.21875 45.3125 
Q 19.921875 44.921875 15.8125 44.53125 
Q 11.71875 44.140625 7.8125 42.578125 
Q 6.640625 46.09375 4.6875 50.78125 
Q 9.765625 53.90625 14.640625 62.890625 
Q 19.53125 71.875 21.875 80.078125 
Q 24.609375 78.125 29.6875 75.78125 
z
M 55.859375 48.828125 
Q 55.859375 46.09375 55.859375 43.359375 
Q 58.59375 36.328125 64.0625 27.34375 
Q 69.53125 17.96875 71.875 15.234375 
Q 78.515625 25.390625 81.640625 40.234375 
L 67.578125 40.234375 
Q 71.484375 53.125 74.21875 67.96875 
L 56.25 67.96875 
Q 56.25 58.59375 55.859375 48.828125 
z
M 37.109375 15.625 
Q 35.9375 11.71875 36.328125 8.59375 
Q 28.515625 6.640625 22.265625 4.875 
Q 16.015625 3.125 8.59375 0.78125 
Q 7.421875 4.6875 5.078125 8.203125 
Q 10.546875 9.375 17.375 10.734375 
Q 24.21875 12.109375 37.109375 15.625 
z
" id="SimHei-7ea7"/>
     </defs>
     <g transform="translate(383.7 110.835938)scale(0.1 -0.1)">
      <use xlink:href="#SimHei-7b49"/>
      <use x="100" xlink:href="#SimHei-7ea7"/>
      <use x="200" xlink:href="#SimHei-31"/>
     </g>
    </g>
    <g id="line2d_27">
     <path d="M 355.7 121.710938 
L 375.7 121.710938 
" style="fill:none;stroke:#ffff00;stroke-linecap:square;stroke-width:1.5;"/>
    </g>
    <g id="line2d_28"/>
    <g id="text_23">
     <!-- 等级2 -->
     <g transform="translate(383.7 125.210938)scale(0.1 -0.1)">
      <use xlink:href="#SimHei-7b49"/>
      <use x="100" xlink:href="#SimHei-7ea7"/>
      <use x="200" xlink:href="#SimHei-32"/>
     </g>
    </g>
    <g id="line2d_29">
     <path d="M 355.7 136.085938 
L 375.7 136.085938 
" style="fill:none;stroke:#ffa500;stroke-linecap:square;stroke-width:1.5;"/>
    </g>
    <g id="line2d_30"/>
    <g id="text_24">
     <!-- 等级3 -->
     <g transform="translate(383.7 139.585938)scale(0.1 -0.1)">
      <use xlink:href="#SimHei-7b49"/>
      <use x="100" xlink:href="#SimHei-7ea7"/>
      <use x="200" xlink:href="#SimHei-33"/>
     </g>
    </g>
    <g id="line2d_31">
     <path d="M 355.7 150.460938 
L 375.7 150.460938 
" style="fill:none;stroke:#ff0000;stroke-linecap:square;stroke-width:1.5;"/>
    </g>
    <g id="line2d_32"/>
    <g id="text_25">
     <!-- 等级4 -->
     <g transform="translate(383.7 153.960938)scale(0.1 -0.1)">
      <use xlink:href="#SimHei-7b49"/>
      <use x="100" xlink:href="#SimHei-7ea7"/>
      <use x="200" xlink:href="#SimHei-34"/>
     </g>
    </g>
   </g>
  </g>
 </g>
 <defs>
  <clipPath id="p1f9439258f">
   <rect height="229.321875" width="366.446875" x="51.253125" y="14.3"/>
  </clipPath>
 </defs>
</svg>
