<?xml version="1.0" encoding="utf-8" standalone="no"?>
<!DOCTYPE svg PUBLIC "-//W3C//DTD SVG 1.1//EN"
  "http://www.w3.org/Graphics/SVG/1.1/DTD/svg11.dtd">
<!-- Created with matplotlib (http://matplotlib.org/) -->
<svg height="288pt" version="1.1" viewBox="0 0 432 288" width="432pt" xmlns="http://www.w3.org/2000/svg" xmlns:xlink="http://www.w3.org/1999/xlink">
 <defs>
  <style type="text/css">
*{stroke-linecap:butt;stroke-linejoin:round;}
  </style>
 </defs>
 <g id="figure_1">
  <g id="patch_1">
   <path d="M 0 288 
L 432 288 
L 432 0 
L 0 0 
z
" style="fill:#ba55d3;"/>
  </g>
  <g id="axes_1">
   <g id="patch_2">
    <path d="M 51.253125 244.075 
L 417.7 244.075 
L 417.7 14.3 
L 51.253125 14.3 
z
" style="fill:#ba55d3;"/>
   </g>
   <g id="matplotlib.axis_1">
    <g id="xtick_1">
     <g id="line2d_1">
      <defs>
       <path d="M 0 0 
L 0 3.5 
" id="m43d0f70205" style="stroke:#000000;stroke-width:0.8;"/>
      </defs>
      <g>
       <use style="stroke:#000000;stroke-width:0.8;" x="51.253125" xlink:href="#m43d0f70205" y="244.075"/>
      </g>
     </g>
     <g id="text_1">
      <!-- 0.0 -->
      <defs>
       <path d="M 3.125 29.296875 
Q 3.90625 50 6.4375 56.046875 
Q 8.984375 62.109375 13.671875 66.015625 
Q 18.359375 69.921875 25.1875 69.921875 
Q 32.03125 69.921875 37.109375 64.25 
Q 42.1875 58.59375 43.75 50 
Q 45.3125 41.40625 44.71875 30.265625 
Q 44.140625 19.140625 40.8125 12.109375 
Q 37.5 5.078125 30.859375 2.34375 
Q 24.21875 -0.390625 17.578125 2.921875 
Q 10.9375 6.25 8.203125 11.71875 
Q 5.46875 17.1875 4.296875 23.234375 
Q 3.125 29.296875 3.90625 50 
z
M 12.890625 52.734375 
Q 10.546875 31.25 12.5 22.84375 
Q 14.453125 14.453125 18.9375 10.9375 
Q 23.4375 7.421875 28.125 9.5625 
Q 32.8125 11.71875 34.953125 18.15625 
Q 37.109375 24.609375 37.109375 32.21875 
Q 37.109375 39.84375 36.515625 46.09375 
Q 35.9375 52.34375 33 57.421875 
Q 30.078125 62.5 25.1875 62.6875 
Q 20.3125 62.890625 16.59375 57.8125 
Q 12.890625 52.734375 10.546875 31.25 
z
" id="SimHei-30"/>
       <path d="M 16.796875 1.953125 
L 7.8125 1.953125 
L 7.8125 10.546875 
L 16.796875 10.546875 
z
" id="SimHei-2e"/>
      </defs>
      <g transform="translate(42.253125 259.325)scale(0.12 -0.12)">
       <use xlink:href="#SimHei-30"/>
       <use x="50" xlink:href="#SimHei-2e"/>
       <use x="100" xlink:href="#SimHei-30"/>
      </g>
     </g>
    </g>
    <g id="xtick_2">
     <g id="line2d_2">
      <g>
       <use style="stroke:#000000;stroke-width:0.8;" x="98.233494" xlink:href="#m43d0f70205" y="244.075"/>
      </g>
     </g>
     <g id="text_2">
      <!-- 2.5 -->
      <defs>
       <path d="M 4.6875 3.90625 
Q 5.078125 9.765625 10.15625 14.453125 
Q 15.234375 19.140625 23.046875 29.09375 
Q 30.859375 39.0625 33.203125 44.53125 
Q 35.546875 50 34.953125 53.90625 
Q 34.375 57.8125 31.25 60.34375 
Q 28.125 62.890625 24.015625 62.5 
Q 19.921875 62.109375 16.203125 59.375 
Q 12.5 56.640625 10.546875 51.171875 
L 3.125 52.34375 
Q 6.25 61.328125 11.125 65.421875 
Q 16.015625 69.53125 22.65625 69.921875 
Q 26.5625 70.3125 29.6875 69.71875 
Q 32.8125 69.140625 36.125 66.984375 
Q 39.453125 64.84375 41.59375 60.546875 
Q 43.75 56.25 43.15625 50.1875 
Q 42.578125 44.140625 37.109375 35.734375 
Q 31.640625 27.34375 16.015625 9.375 
L 44.140625 9.375 
L 44.140625 2.34375 
L 4.6875 2.34375 
z
" id="SimHei-32"/>
       <path d="M 8.59375 20.703125 
Q 11.328125 10.15625 17.96875 8.984375 
Q 24.609375 7.8125 28.703125 10.34375 
Q 32.8125 12.890625 34.5625 16.984375 
Q 36.328125 21.09375 36.125 26.171875 
Q 35.9375 31.25 33.390625 34.765625 
Q 30.859375 38.28125 26.953125 39.453125 
Q 23.046875 40.625 18.15625 39.453125 
Q 13.28125 38.28125 10.15625 33.984375 
L 3.515625 34.765625 
Q 4.296875 37.109375 10.9375 68.359375 
L 41.796875 68.359375 
L 41.796875 61.328125 
L 16.796875 61.328125 
Q 14.84375 50.78125 12.890625 44.53125 
Q 18.75 47.265625 23.828125 47.0625 
Q 28.90625 46.875 33.59375 44.71875 
Q 38.28125 42.578125 40.421875 38.859375 
Q 42.578125 35.15625 43.546875 31.4375 
Q 44.53125 27.734375 44.328125 23.4375 
Q 44.140625 19.140625 42.578125 14.640625 
Q 41.015625 10.15625 37.890625 7.21875 
Q 34.765625 4.296875 30.265625 2.53125 
Q 25.78125 0.78125 19.921875 1.171875 
Q 14.0625 1.5625 8.78125 5.46875 
Q 3.515625 9.375 1.5625 18.75 
z
" id="SimHei-35"/>
      </defs>
      <g transform="translate(89.233494 259.325)scale(0.12 -0.12)">
       <use xlink:href="#SimHei-32"/>
       <use x="50" xlink:href="#SimHei-2e"/>
       <use x="100" xlink:href="#SimHei-35"/>
      </g>
     </g>
    </g>
    <g id="xtick_3">
     <g id="line2d_3">
      <g>
       <use style="stroke:#000000;stroke-width:0.8;" x="145.213862" xlink:href="#m43d0f70205" y="244.075"/>
      </g>
     </g>
     <g id="text_3">
      <!-- 5.0 -->
      <g transform="translate(136.213862 259.325)scale(0.12 -0.12)">
       <use xlink:href="#SimHei-35"/>
       <use x="50" xlink:href="#SimHei-2e"/>
       <use x="100" xlink:href="#SimHei-30"/>
      </g>
     </g>
    </g>
    <g id="xtick_4">
     <g id="line2d_4">
      <g>
       <use style="stroke:#000000;stroke-width:0.8;" x="192.194231" xlink:href="#m43d0f70205" y="244.075"/>
      </g>
     </g>
     <g id="text_4">
      <!-- 7.5 -->
      <defs>
       <path d="M 13.28125 2.34375 
Q 20.3125 32.03125 37.890625 61.328125 
L 4.296875 61.328125 
L 4.296875 68.359375 
L 46.09375 68.359375 
L 46.09375 61.71875 
Q 27.734375 32.03125 21.875 2.34375 
L 13.28125 2.34375 
z
" id="SimHei-37"/>
      </defs>
      <g transform="translate(183.194231 259.325)scale(0.12 -0.12)">
       <use xlink:href="#SimHei-37"/>
       <use x="50" xlink:href="#SimHei-2e"/>
       <use x="100" xlink:href="#SimHei-35"/>
      </g>
     </g>
    </g>
    <g id="xtick_5">
     <g id="line2d_5">
      <g>
       <use style="stroke:#000000;stroke-width:0.8;" x="239.174599" xlink:href="#m43d0f70205" y="244.075"/>
      </g>
     </g>
     <g id="text_5">
      <!-- 10.0 -->
      <defs>
       <path d="M 21.875 56.25 
Q 16.796875 51.171875 8.984375 46.484375 
L 8.984375 53.90625 
Q 18.75 60.546875 25 69.53125 
L 29.6875 69.53125 
L 29.6875 2.34375 
L 21.875 2.34375 
z
" id="SimHei-31"/>
      </defs>
      <g transform="translate(227.174599 259.325)scale(0.12 -0.12)">
       <use xlink:href="#SimHei-31"/>
       <use x="50" xlink:href="#SimHei-30"/>
       <use x="100" xlink:href="#SimHei-2e"/>
       <use x="150" xlink:href="#SimHei-30"/>
      </g>
     </g>
    </g>
    <g id="xtick_6">
     <g id="line2d_6">
      <g>
       <use style="stroke:#000000;stroke-width:0.8;" x="286.154968" xlink:href="#m43d0f70205" y="244.075"/>
      </g>
     </g>
     <g id="text_6">
      <!-- 12.5 -->
      <g transform="translate(274.154968 259.325)scale(0.12 -0.12)">
       <use xlink:href="#SimHei-31"/>
       <use x="50" xlink:href="#SimHei-32"/>
       <use x="100" xlink:href="#SimHei-2e"/>
       <use x="150" xlink:href="#SimHei-35"/>
      </g>
     </g>
    </g>
    <g id="xtick_7">
     <g id="line2d_7">
      <g>
       <use style="stroke:#000000;stroke-width:0.8;" x="333.135337" xlink:href="#m43d0f70205" y="244.075"/>
      </g>
     </g>
     <g id="text_7">
      <!-- 15.0 -->
      <g transform="translate(321.135337 259.325)scale(0.12 -0.12)">
       <use xlink:href="#SimHei-31"/>
       <use x="50" xlink:href="#SimHei-35"/>
       <use x="100" xlink:href="#SimHei-2e"/>
       <use x="150" xlink:href="#SimHei-30"/>
      </g>
     </g>
    </g>
    <g id="xtick_8">
     <g id="line2d_8">
      <g>
       <use style="stroke:#000000;stroke-width:0.8;" x="380.115705" xlink:href="#m43d0f70205" y="244.075"/>
      </g>
     </g>
     <g id="text_8">
      <!-- 17.5 -->
      <g transform="translate(368.115705 259.325)scale(0.12 -0.12)">
       <use xlink:href="#SimHei-31"/>
       <use x="50" xlink:href="#SimHei-37"/>
       <use x="100" xlink:href="#SimHei-2e"/>
       <use x="150" xlink:href="#SimHei-35"/>
      </g>
     </g>
    </g>
    <g id="text_9">
     <!-- 错台(mm) -->
     <defs>
      <path d="M 87.5 32.03125 
Q 87.109375 27.34375 87.109375 12.109375 
Q 87.109375 -2.734375 87.5 -8.59375 
L 80.078125 -8.59375 
L 80.078125 -3.515625 
L 53.125 -3.515625 
L 53.125 -9.765625 
L 45.703125 -9.765625 
Q 46.09375 1.5625 46.09375 12.5 
Q 46.09375 23.828125 45.703125 32.03125 
L 87.5 32.03125 
z
M 52.34375 66.40625 
Q 52.34375 75 51.953125 79.296875 
L 59.765625 79.296875 
Q 59.375 71.484375 59.375 66.40625 
L 73.4375 66.40625 
Q 73.4375 73.046875 73.046875 78.90625 
L 81.25 78.90625 
Q 80.859375 74.609375 80.859375 66.40625 
Q 87.109375 66.40625 91.796875 66.796875 
L 91.796875 59.765625 
Q 86.328125 60.15625 80.859375 60.15625 
L 80.859375 47.265625 
Q 91.40625 47.265625 95.703125 47.65625 
L 95.703125 41.015625 
Q 91.015625 41.40625 83.203125 41.40625 
L 50.390625 41.40625 
Q 47.65625 41.40625 40.234375 41.015625 
L 40.234375 47.65625 
Q 44.53125 47.265625 52.34375 47.265625 
L 52.34375 60.15625 
Q 50 60.15625 42.1875 59.765625 
L 42.1875 66.796875 
Q 49.21875 66.40625 52.34375 66.40625 
z
M 35.15625 42.96875 
Q 30.859375 43.359375 25.78125 43.359375 
L 25.78125 32.03125 
Q 33.203125 32.03125 39.0625 32.421875 
L 39.0625 25.78125 
Q 32.8125 26.171875 25.78125 26.171875 
L 25.78125 7.03125 
Q 32.03125 12.109375 35.9375 16.796875 
Q 37.5 12.5 39.0625 9.375 
Q 34.765625 5.859375 29.6875 1.75 
Q 24.609375 -2.34375 19.921875 -7.03125 
Q 17.1875 -3.125 14.84375 -0.390625 
Q 18.359375 3.125 18.359375 7.421875 
L 18.359375 26.171875 
Q 12.109375 26.171875 7.03125 25.78125 
L 7.03125 32.421875 
Q 12.5 32.03125 18.359375 32.03125 
L 18.359375 43.359375 
Q 15.625 43.359375 12.5 42.96875 
L 12.5 50 
Q 16.40625 49.609375 20.3125 49.609375 
L 28.515625 49.609375 
Q 31.640625 49.609375 35.15625 50 
z
M 3.125 51.953125 
Q 10.15625 59.375 14.25 66.796875 
Q 18.359375 74.21875 20.703125 80.46875 
Q 25.78125 77.734375 29.6875 75.78125 
Q 24.609375 70.703125 21.875 65.234375 
Q 30.078125 65.234375 36.328125 65.625 
L 36.328125 58.59375 
Q 29.296875 58.984375 18.359375 58.984375 
Q 13.28125 51.953125 8.203125 45.703125 
Q 5.859375 48.828125 3.125 51.953125 
z
M 80.078125 2.34375 
L 80.078125 11.328125 
L 53.125 11.328125 
L 53.125 2.34375 
z
M 80.078125 17.1875 
L 80.078125 26.171875 
L 53.125 26.171875 
L 53.125 17.1875 
z
M 73.4375 47.265625 
L 73.4375 60.15625 
L 59.375 60.15625 
L 59.375 47.265625 
z
" id="SimHei-9519"/>
      <path d="M 82.8125 31.640625 
Q 82.421875 24.609375 82.421875 11.328125 
Q 82.421875 -1.5625 82.8125 -8.59375 
L 74.21875 -8.59375 
L 74.21875 -3.125 
L 26.171875 -3.125 
L 26.171875 -8.984375 
L 17.578125 -8.984375 
Q 17.96875 -3.125 17.96875 8.984375 
Q 17.96875 21.484375 17.578125 31.640625 
L 82.8125 31.640625 
z
M 50.78125 76.5625 
Q 47.65625 74.21875 41.796875 67.1875 
Q 35.9375 60.15625 25 48.828125 
Q 35.546875 49.21875 46.484375 49.796875 
Q 57.421875 50.390625 73.4375 51.5625 
Q 70.3125 56.25 60.546875 64.84375 
Q 63.671875 66.796875 66.796875 70.703125 
Q 81.640625 55.46875 92.96875 42.578125 
Q 88.671875 40.234375 85.546875 36.71875 
Q 82.03125 42.1875 78.90625 44.921875 
Q 59.375 43.75 40.421875 42.375 
Q 21.484375 41.015625 14.0625 38.28125 
Q 12.5 45.703125 10.15625 48.4375 
Q 15.625 50 24.796875 59.375 
Q 33.984375 68.75 41.40625 82.421875 
Q 46.875 78.125 50.78125 76.5625 
z
M 74.21875 4.296875 
L 74.21875 24.21875 
L 26.171875 24.21875 
L 26.171875 4.296875 
z
" id="SimHei-53f0"/>
      <path d="M 46.484375 -3.125 
L 42.1875 -7.421875 
Q 32.421875 1.953125 27.53125 12.109375 
Q 22.65625 22.265625 22.65625 35.15625 
Q 22.65625 48.046875 27.53125 58.203125 
Q 32.421875 68.359375 42.1875 78.125 
L 46.484375 73.828125 
Q 37.5 65.234375 33 56.046875 
Q 28.515625 46.875 28.515625 35.15625 
Q 28.515625 23.4375 33 14.25 
Q 37.5 5.078125 46.484375 -3.125 
z
" id="SimHei-28"/>
      <path d="M 47.65625 1.953125 
L 39.84375 1.953125 
L 39.84375 33.59375 
Q 39.84375 35.9375 39.0625 37.5 
Q 38.28125 39.0625 35.9375 39.0625 
Q 33.203125 39.0625 30.859375 36.125 
Q 28.515625 33.203125 28.515625 28.515625 
L 28.515625 1.953125 
L 20.703125 1.953125 
L 20.703125 33.59375 
Q 20.703125 35.9375 19.921875 37.5 
Q 19.140625 39.0625 16.796875 39.0625 
Q 14.0625 39.0625 11.71875 36.125 
Q 9.375 33.203125 9.375 28.515625 
L 9.375 1.953125 
L 1.5625 1.953125 
L 1.5625 45.703125 
L 9.375 45.703125 
L 9.375 39.84375 
Q 11.328125 42.96875 14.0625 44.71875 
Q 16.796875 46.484375 19.921875 46.484375 
Q 23.046875 46.484375 25.1875 44.71875 
Q 27.34375 42.96875 28.125 39.84375 
Q 30.078125 42.96875 32.609375 44.71875 
Q 35.15625 46.484375 38.28125 46.484375 
Q 42.96875 46.484375 45.3125 43.9375 
Q 47.65625 41.40625 47.65625 36.71875 
z
" id="SimHei-6d"/>
      <path d="M 26.171875 35.15625 
Q 26.171875 22.265625 21.28125 12.109375 
Q 16.40625 1.953125 6.640625 -7.421875 
L 2.34375 -3.125 
Q 11.328125 5.078125 15.8125 14.25 
Q 20.3125 23.4375 20.3125 35.15625 
Q 20.3125 46.875 15.8125 56.046875 
Q 11.328125 65.234375 2.34375 73.828125 
L 6.640625 78.125 
Q 16.40625 68.359375 21.28125 58.203125 
Q 26.171875 48.046875 26.171875 35.15625 
z
" id="SimHei-29"/>
     </defs>
     <g transform="translate(210.476562 274.3875)scale(0.12 -0.12)">
      <use xlink:href="#SimHei-9519"/>
      <use x="100" xlink:href="#SimHei-53f0"/>
      <use x="200" xlink:href="#SimHei-28"/>
      <use x="250" xlink:href="#SimHei-6d"/>
      <use x="300" xlink:href="#SimHei-6d"/>
      <use x="350" xlink:href="#SimHei-29"/>
     </g>
    </g>
   </g>
   <g id="matplotlib.axis_2">
    <g id="ytick_1">
     <g id="line2d_9">
      <defs>
       <path d="M 0 0 
L -3.5 0 
" id="m09ac8ba32f" style="stroke:#000000;stroke-width:0.8;"/>
      </defs>
      <g>
       <use style="stroke:#000000;stroke-width:0.8;" x="51.253125" xlink:href="#m09ac8ba32f" y="233.630682"/>
      </g>
     </g>
     <g id="text_10">
      <!-- 0.0 -->
      <g transform="translate(26.253125 237.755682)scale(0.12 -0.12)">
       <use xlink:href="#SimHei-30"/>
       <use x="50" xlink:href="#SimHei-2e"/>
       <use x="100" xlink:href="#SimHei-30"/>
      </g>
     </g>
    </g>
    <g id="ytick_2">
     <g id="line2d_10">
      <g>
       <use style="stroke:#000000;stroke-width:0.8;" x="51.253125" xlink:href="#m09ac8ba32f" y="212.742045"/>
      </g>
     </g>
     <g id="text_11">
      <!-- 0.1 -->
      <g transform="translate(26.253125 216.867045)scale(0.12 -0.12)">
       <use xlink:href="#SimHei-30"/>
       <use x="50" xlink:href="#SimHei-2e"/>
       <use x="100" xlink:href="#SimHei-31"/>
      </g>
     </g>
    </g>
    <g id="ytick_3">
     <g id="line2d_11">
      <g>
       <use style="stroke:#000000;stroke-width:0.8;" x="51.253125" xlink:href="#m09ac8ba32f" y="191.853409"/>
      </g>
     </g>
     <g id="text_12">
      <!-- 0.2 -->
      <g transform="translate(26.253125 195.978409)scale(0.12 -0.12)">
       <use xlink:href="#SimHei-30"/>
       <use x="50" xlink:href="#SimHei-2e"/>
       <use x="100" xlink:href="#SimHei-32"/>
      </g>
     </g>
    </g>
    <g id="ytick_4">
     <g id="line2d_12">
      <g>
       <use style="stroke:#000000;stroke-width:0.8;" x="51.253125" xlink:href="#m09ac8ba32f" y="170.964773"/>
      </g>
     </g>
     <g id="text_13">
      <!-- 0.3 -->
      <defs>
       <path d="M 3.90625 19.140625 
L 10.9375 20.3125 
Q 12.5 15.234375 16.015625 11.90625 
Q 19.53125 8.59375 24.796875 8.78125 
Q 30.078125 8.984375 33.203125 13.078125 
Q 36.328125 17.1875 35.9375 22.453125 
Q 35.546875 27.734375 31.828125 30.65625 
Q 28.125 33.59375 19.921875 34.765625 
L 19.921875 39.84375 
Q 28.125 40.625 31.828125 44.140625 
Q 35.546875 47.65625 35.15625 53.3125 
Q 34.765625 58.984375 30.078125 61.515625 
Q 25.390625 64.0625 20.109375 62.109375 
Q 14.84375 60.15625 11.71875 51.171875 
L 4.6875 52.34375 
Q 7.03125 59.375 11.125 64.0625 
Q 15.234375 68.75 22.265625 69.53125 
Q 29.296875 70.3125 34.5625 67.765625 
Q 39.84375 65.234375 41.984375 59.953125 
Q 44.140625 54.6875 42.578125 48.4375 
Q 41.015625 42.1875 33.59375 37.5 
Q 39.0625 35.15625 41.984375 30.46875 
Q 44.921875 25.78125 43.9375 18.15625 
Q 42.96875 10.546875 37.109375 5.859375 
Q 31.25 1.171875 23.828125 1.359375 
Q 16.40625 1.5625 10.9375 6.046875 
Q 5.46875 10.546875 3.90625 19.140625 
z
" id="SimHei-33"/>
      </defs>
      <g transform="translate(26.253125 175.089773)scale(0.12 -0.12)">
       <use xlink:href="#SimHei-30"/>
       <use x="50" xlink:href="#SimHei-2e"/>
       <use x="100" xlink:href="#SimHei-33"/>
      </g>
     </g>
    </g>
    <g id="ytick_5">
     <g id="line2d_13">
      <g>
       <use style="stroke:#000000;stroke-width:0.8;" x="51.253125" xlink:href="#m09ac8ba32f" y="150.076136"/>
      </g>
     </g>
     <g id="text_14">
      <!-- 0.4 -->
      <defs>
       <path d="M 31.25 17.1875 
L 1.171875 17.1875 
L 1.171875 23.828125 
L 32.8125 69.53125 
L 38.671875 69.53125 
L 38.671875 23.828125 
L 48.046875 23.828125 
L 48.046875 17.1875 
L 38.671875 17.1875 
L 38.671875 2.34375 
L 31.25 2.34375 
z
M 31.25 23.828125 
L 31.25 54.6875 
L 9.375 23.828125 
z
" id="SimHei-34"/>
      </defs>
      <g transform="translate(26.253125 154.201136)scale(0.12 -0.12)">
       <use xlink:href="#SimHei-30"/>
       <use x="50" xlink:href="#SimHei-2e"/>
       <use x="100" xlink:href="#SimHei-34"/>
      </g>
     </g>
    </g>
    <g id="ytick_6">
     <g id="line2d_14">
      <g>
       <use style="stroke:#000000;stroke-width:0.8;" x="51.253125" xlink:href="#m09ac8ba32f" y="129.1875"/>
      </g>
     </g>
     <g id="text_15">
      <!-- 0.5 -->
      <g transform="translate(26.253125 133.3125)scale(0.12 -0.12)">
       <use xlink:href="#SimHei-30"/>
       <use x="50" xlink:href="#SimHei-2e"/>
       <use x="100" xlink:href="#SimHei-35"/>
      </g>
     </g>
    </g>
    <g id="ytick_7">
     <g id="line2d_15">
      <g>
       <use style="stroke:#000000;stroke-width:0.8;" x="51.253125" xlink:href="#m09ac8ba32f" y="108.298864"/>
      </g>
     </g>
     <g id="text_16">
      <!-- 0.6 -->
      <defs>
       <path d="M 3.515625 19.53125 
Q 4.296875 30.859375 6.046875 34.765625 
Q 7.8125 38.671875 11.328125 44.53125 
L 27.34375 69.53125 
L 36.328125 69.53125 
L 19.921875 43.75 
Q 30.46875 46.484375 36.71875 42.96875 
Q 42.96875 39.453125 45.109375 34.953125 
Q 47.265625 30.46875 47.453125 25.1875 
Q 47.65625 19.921875 45.890625 14.84375 
Q 44.140625 9.765625 39.640625 5.65625 
Q 35.15625 1.5625 27.140625 1.171875 
Q 19.140625 0.78125 13.46875 4.09375 
Q 7.8125 7.421875 5.65625 13.46875 
Q 3.515625 19.53125 4.296875 30.859375 
z
M 12.5 16.015625 
Q 19.53125 8.59375 25.390625 8.203125 
Q 31.25 7.8125 35.15625 12.109375 
Q 39.0625 16.40625 39.0625 24.609375 
Q 39.0625 32.8125 34.171875 35.9375 
Q 29.296875 39.0625 23.234375 38.28125 
Q 17.1875 37.5 14.453125 32.421875 
Q 11.71875 27.34375 12.109375 21.671875 
Q 12.5 16.015625 19.53125 8.59375 
z
" id="SimHei-36"/>
      </defs>
      <g transform="translate(26.253125 112.423864)scale(0.12 -0.12)">
       <use xlink:href="#SimHei-30"/>
       <use x="50" xlink:href="#SimHei-2e"/>
       <use x="100" xlink:href="#SimHei-36"/>
      </g>
     </g>
    </g>
    <g id="ytick_8">
     <g id="line2d_16">
      <g>
       <use style="stroke:#000000;stroke-width:0.8;" x="51.253125" xlink:href="#m09ac8ba32f" y="87.410227"/>
      </g>
     </g>
     <g id="text_17">
      <!-- 0.7 -->
      <g transform="translate(26.253125 91.535227)scale(0.12 -0.12)">
       <use xlink:href="#SimHei-30"/>
       <use x="50" xlink:href="#SimHei-2e"/>
       <use x="100" xlink:href="#SimHei-37"/>
      </g>
     </g>
    </g>
    <g id="ytick_9">
     <g id="line2d_17">
      <g>
       <use style="stroke:#000000;stroke-width:0.8;" x="51.253125" xlink:href="#m09ac8ba32f" y="66.521591"/>
      </g>
     </g>
     <g id="text_18">
      <!-- 0.8 -->
      <defs>
       <path d="M 2.734375 16.796875 
Q 2.734375 26.171875 5.078125 30.65625 
Q 7.421875 35.15625 12.890625 37.890625 
Q 8.203125 40.625 6.640625 43.9375 
Q 5.078125 47.265625 4.875 51.5625 
Q 4.6875 55.859375 6.046875 58.984375 
Q 7.421875 62.109375 10.15625 64.84375 
Q 12.890625 67.578125 16.203125 68.546875 
Q 19.53125 69.53125 23.4375 69.53125 
Q 27.34375 69.53125 30.46875 68.75 
Q 33.59375 67.96875 37.109375 65.421875 
Q 40.625 62.890625 42.1875 58.203125 
Q 43.75 53.515625 41.984375 47.265625 
Q 40.234375 41.015625 32.8125 37.5 
Q 39.453125 35.546875 42.1875 31.4375 
Q 44.921875 27.34375 44.921875 21.484375 
Q 44.921875 15.625 43.15625 12.109375 
Q 41.40625 8.59375 39.25 6.25 
Q 37.109375 3.90625 33.390625 2.53125 
Q 29.6875 1.171875 24.015625 1.171875 
Q 18.359375 1.171875 14.25 2.53125 
Q 10.15625 3.90625 7.421875 6.640625 
Q 4.6875 9.375 3.703125 13.078125 
Q 2.734375 16.796875 2.734375 26.171875 
z
M 10.9375 26.5625 
Q 10.546875 17.1875 12.296875 13.671875 
Q 14.0625 10.15625 18.75 9.171875 
Q 23.4375 8.203125 28.515625 9.375 
Q 33.59375 10.546875 35.546875 14.84375 
Q 37.5 19.140625 36.90625 23.4375 
Q 36.328125 27.734375 32.03125 30.65625 
Q 27.734375 33.59375 22.65625 33.203125 
Q 17.578125 32.8125 14.25 29.6875 
Q 10.9375 26.5625 10.546875 17.1875 
z
M 12.109375 56.25 
Q 12.109375 48.4375 14.84375 44.921875 
Q 17.578125 41.40625 23.4375 41.40625 
Q 29.296875 41.40625 32.21875 44.921875 
Q 35.15625 48.4375 34.953125 53.3125 
Q 34.765625 58.203125 31.4375 60.546875 
Q 28.125 62.890625 22.453125 62.5 
Q 16.796875 62.109375 14.453125 59.171875 
Q 12.109375 56.25 12.109375 48.4375 
z
" id="SimHei-38"/>
      </defs>
      <g transform="translate(26.253125 70.646591)scale(0.12 -0.12)">
       <use xlink:href="#SimHei-30"/>
       <use x="50" xlink:href="#SimHei-2e"/>
       <use x="100" xlink:href="#SimHei-38"/>
      </g>
     </g>
    </g>
    <g id="ytick_10">
     <g id="line2d_18">
      <g>
       <use style="stroke:#000000;stroke-width:0.8;" x="51.253125" xlink:href="#m09ac8ba32f" y="45.632955"/>
      </g>
     </g>
     <g id="text_19">
      <!-- 0.9 -->
      <defs>
       <path d="M 12.5 1.171875 
Q 21.09375 15.625 26.5625 27.34375 
Q 16.796875 25.78125 10.34375 29.875 
Q 3.90625 33.984375 2.53125 41.015625 
Q 1.171875 48.046875 2.734375 53.703125 
Q 4.296875 59.375 7.609375 63.078125 
Q 10.9375 66.796875 15.625 68.359375 
Q 20.3125 69.921875 24.015625 69.921875 
Q 27.734375 69.921875 31.640625 68.359375 
Q 35.546875 66.796875 38.671875 63.671875 
Q 41.796875 60.546875 42.96875 57.21875 
Q 44.140625 53.90625 44.140625 48.625 
Q 44.140625 43.359375 40.234375 35.15625 
Q 36.328125 26.953125 21.09375 1.171875 
z
M 9.765625 50 
Q 10.9375 39.84375 14.640625 36.515625 
Q 18.359375 33.203125 22.65625 33.59375 
Q 26.953125 33.984375 29.484375 35.9375 
Q 32.03125 37.890625 34.375 42.578125 
Q 35.9375 48.4375 35.15625 52.53125 
Q 34.375 56.640625 31.046875 59.375 
Q 27.734375 62.109375 23.828125 62.109375 
Q 21.484375 62.5 17.765625 60.9375 
Q 14.0625 59.375 11.90625 54.6875 
Q 9.765625 50 10.9375 39.84375 
z
" id="SimHei-39"/>
      </defs>
      <g transform="translate(26.253125 49.757955)scale(0.12 -0.12)">
       <use xlink:href="#SimHei-30"/>
       <use x="50" xlink:href="#SimHei-2e"/>
       <use x="100" xlink:href="#SimHei-39"/>
      </g>
     </g>
    </g>
    <g id="ytick_11">
     <g id="line2d_19">
      <g>
       <use style="stroke:#000000;stroke-width:0.8;" x="51.253125" xlink:href="#m09ac8ba32f" y="24.744318"/>
      </g>
     </g>
     <g id="text_20">
      <!-- 1.0 -->
      <g transform="translate(26.253125 28.869318)scale(0.12 -0.12)">
       <use xlink:href="#SimHei-31"/>
       <use x="50" xlink:href="#SimHei-2e"/>
       <use x="100" xlink:href="#SimHei-30"/>
      </g>
     </g>
    </g>
    <g id="text_21">
     <!-- 隶属度 -->
     <defs>
      <path d="M 52.734375 80.859375 
Q 52.34375 77.34375 52.34375 71.875 
L 80.46875 71.875 
Q 80.078125 64.84375 80.078125 57.03125 
Q 87.109375 57.03125 93.359375 57.421875 
L 93.359375 50.390625 
Q 87.109375 50.78125 80.078125 50.78125 
Q 80.078125 43.359375 80.46875 35.546875 
L 52.34375 35.546875 
L 52.34375 30.078125 
Q 57.421875 22.65625 62.109375 19.140625 
Q 66.796875 21.484375 71.28125 25.390625 
Q 75.78125 29.296875 78.125 32.8125 
Q 83.203125 27.34375 85.9375 25.78125 
Q 81.640625 23.828125 78.125 21.671875 
Q 74.609375 19.53125 66.796875 15.234375 
Q 70.3125 12.5 76.5625 9.765625 
Q 82.8125 7.03125 94.140625 5.859375 
Q 90.625 2.34375 88.28125 -4.296875 
Q 77.34375 -0.390625 71.671875 3.125 
Q 66.015625 6.640625 60.734375 10.734375 
Q 55.46875 14.84375 52.34375 20.3125 
L 52.34375 3.125 
Q 52.734375 -5.859375 48.234375 -7.421875 
Q 43.75 -8.984375 37.890625 -9.765625 
Q 37.109375 -3.515625 34.765625 0 
Q 42.578125 -0.78125 43.9375 0.578125 
Q 45.3125 1.953125 45.3125 4.296875 
L 45.3125 35.546875 
L 28.515625 35.546875 
Q 23.046875 35.546875 16.40625 35.15625 
L 16.40625 42.578125 
Q 23.046875 42.1875 28.515625 42.1875 
L 45.3125 42.1875 
L 45.3125 50.78125 
L 19.53125 50.78125 
Q 13.28125 50.78125 7.03125 50.390625 
L 7.03125 57.421875 
Q 13.671875 57.03125 19.140625 57.03125 
L 45.3125 57.03125 
L 45.3125 65.625 
L 28.125 65.625 
Q 23.828125 65.625 16.40625 65.234375 
L 16.40625 72.265625 
Q 23.4375 71.875 28.125 71.875 
L 45.3125 71.875 
Q 45.3125 77.34375 44.921875 80.859375 
L 52.734375 80.859375 
z
M 6.640625 4.296875 
L 15.234375 7.421875 
Q 19.53125 8.984375 23.625 10.9375 
Q 27.734375 12.890625 32.03125 15.421875 
Q 36.328125 17.96875 40.625 19.921875 
Q 42.1875 17.1875 43.75 12.890625 
Q 39.0625 10.9375 34.953125 8.78125 
Q 30.859375 6.640625 26.953125 4.484375 
Q 23.046875 2.34375 18.9375 0.1875 
Q 14.84375 -1.953125 11.328125 -4.296875 
z
M 72.65625 42.1875 
L 72.65625 50.78125 
L 52.34375 50.78125 
L 52.34375 42.1875 
z
M 72.65625 57.03125 
L 72.65625 65.625 
L 52.34375 65.625 
L 52.34375 57.03125 
z
M 22.65625 32.421875 
Q 29.6875 26.171875 33.59375 21.484375 
Q 31.640625 19.140625 27.734375 16.015625 
Q 23.4375 21.484375 17.1875 27.34375 
Q 20.3125 30.46875 22.65625 32.421875 
z
" id="SimHei-96b6"/>
      <path d="M 86.71875 48.4375 
Q 69.53125 47.65625 59.765625 47.265625 
L 59.765625 41.796875 
L 83.984375 41.796875 
Q 83.59375 37.5 83.59375 33.203125 
Q 83.59375 28.90625 83.984375 24.609375 
L 59.765625 24.609375 
L 59.765625 19.53125 
L 91.796875 19.53125 
Q 91.40625 13.28125 91.40625 8.203125 
L 91.40625 -2.34375 
Q 91.015625 -5.859375 88.859375 -7.21875 
Q 86.71875 -8.59375 78.125 -10.15625 
Q 77.34375 -6.25 74.609375 -2.34375 
Q 79.6875 -2.34375 82.21875 -2.140625 
Q 84.765625 -1.953125 84.375 1.953125 
L 84.375 14.0625 
L 59.765625 14.0625 
L 59.765625 7.03125 
Q 65.625 7.421875 69.140625 7.8125 
Q 67.96875 9.765625 67.1875 10.9375 
Q 70.703125 12.109375 72.65625 13.671875 
Q 76.953125 7.421875 80.078125 1.953125 
Q 77.34375 0.78125 73.828125 -1.171875 
Q 73.046875 0.390625 71.875 2.34375 
Q 68.359375 2.34375 59.375 1.359375 
Q 50.390625 0.390625 40.625 -1.171875 
Q 40.234375 1.953125 38.28125 5.859375 
Q 46.875 5.859375 53.125 6.640625 
L 53.125 14.0625 
L 34.375 14.0625 
L 34.375 -8.59375 
L 27.34375 -8.59375 
Q 27.734375 -3.125 27.734375 5.078125 
Q 27.734375 13.28125 27.34375 19.53125 
L 53.125 19.53125 
L 53.125 24.609375 
L 31.25 24.609375 
Q 31.640625 29.296875 31.640625 33.203125 
Q 31.640625 37.5 31.25 41.796875 
L 53.125 41.796875 
L 53.125 46.875 
Q 38.671875 46.09375 30.46875 45.703125 
Q 29.6875 49.21875 27.734375 52.34375 
Q 42.1875 52.34375 56.4375 53.125 
Q 70.703125 53.90625 82.03125 55.859375 
Q 83.984375 51.953125 86.71875 48.4375 
z
M 86.328125 78.125 
Q 85.9375 71.875 85.9375 67.1875 
Q 85.9375 62.890625 86.328125 58.59375 
L 23.046875 58.59375 
Q 23.046875 47.65625 22.84375 38.859375 
Q 22.65625 30.078125 21.484375 22.453125 
Q 20.3125 14.84375 18.15625 8 
Q 16.015625 1.171875 11.71875 -7.03125 
Q 8.203125 -5.078125 3.90625 -3.515625 
Q 10.546875 7.03125 13.078125 17.1875 
Q 15.625 27.34375 15.8125 38.859375 
Q 16.015625 50.390625 16.015625 57.421875 
Q 16.015625 64.453125 15.625 78.125 
L 86.328125 78.125 
z
M 78.90625 64.0625 
L 78.90625 71.875 
L 23.046875 71.875 
L 23.046875 64.0625 
z
M 77.34375 30.078125 
L 77.34375 36.71875 
L 59.765625 36.71875 
L 59.765625 30.078125 
z
M 53.125 30.078125 
L 53.125 36.71875 
L 37.890625 36.71875 
L 37.890625 30.078125 
z
" id="SimHei-5c5e"/>
      <path d="M 27.34375 26.171875 
Q 38.28125 25.78125 44.921875 25.78125 
L 81.25 25.78125 
Q 77.734375 19.53125 72.65625 13.28125 
Q 67.578125 7.03125 62.890625 3.125 
Q 67.96875 0.78125 77.34375 -0.78125 
Q 86.71875 -2.34375 95.3125 -2.34375 
Q 92.96875 -4.6875 91.015625 -10.15625 
Q 79.6875 -8.59375 71.09375 -6.4375 
Q 62.5 -4.296875 56.640625 -1.5625 
Q 48.4375 -5.078125 40.421875 -7.21875 
Q 32.421875 -9.375 23.828125 -10.546875 
Q 22.65625 -7.421875 19.140625 -3.90625 
Q 26.171875 -3.90625 35.15625 -1.953125 
Q 44.140625 0 50.78125 3.125 
Q 44.140625 8.59375 37.5 19.921875 
L 27.34375 19.53125 
z
M 46.484375 79.296875 
Q 50.78125 80.46875 54.296875 82.03125 
Q 56.640625 77.734375 58.984375 70.703125 
L 73.4375 70.703125 
Q 77.734375 70.703125 89.0625 71.09375 
L 89.0625 64.0625 
Q 78.125 64.453125 72.65625 64.453125 
L 21.484375 64.453125 
Q 21.484375 46.875 21.09375 36.125 
Q 20.703125 25.390625 18.9375 14.84375 
Q 17.1875 4.296875 11.328125 -8.203125 
Q 7.8125 -5.859375 3.90625 -4.6875 
Q 10.15625 6.25 11.90625 16.796875 
Q 13.671875 27.34375 13.859375 43.75 
Q 14.0625 60.15625 13.671875 70.703125 
L 50 70.703125 
Q 48.4375 75.78125 46.484375 79.296875 
z
M 38.671875 51.5625 
Q 38.671875 57.8125 38.28125 61.328125 
L 46.484375 61.328125 
Q 46.09375 58.203125 46.09375 51.5625 
L 67.1875 51.5625 
Q 67.1875 57.8125 66.796875 61.71875 
L 75 61.71875 
Q 74.609375 57.03125 74.609375 51.5625 
Q 83.203125 51.5625 89.453125 51.953125 
L 89.453125 45.3125 
Q 83.59375 45.703125 74.609375 45.703125 
Q 74.609375 35.15625 75 30.46875 
L 38.28125 30.46875 
Q 38.671875 36.71875 38.671875 45.703125 
Q 33.984375 45.703125 25 45.3125 
L 25 51.953125 
Q 33.984375 51.5625 38.671875 51.5625 
z
M 67.1875 36.71875 
L 67.1875 45.703125 
L 46.09375 45.703125 
L 46.09375 36.71875 
z
M 44.921875 19.921875 
Q 50 12.109375 57.03125 6.640625 
Q 62.890625 10.9375 69.140625 19.921875 
L 45.3125 19.921875 
z
" id="SimHei-5ea6"/>
     </defs>
     <g transform="translate(20.753125 147.1875)rotate(-90)scale(0.12 -0.12)">
      <use xlink:href="#SimHei-96b6"/>
      <use x="100" xlink:href="#SimHei-5c5e"/>
      <use x="200" xlink:href="#SimHei-5ea6"/>
     </g>
    </g>
   </g>
   <g id="line2d_20">
    <path clip-path="url(#pd9e6cf836c)" d="M 51.253125 24.744318 
L 111.716859 24.844226 
L 112.083306 25.190185 
L 112.523043 25.928274 
L 113.072713 27.33498 
L 113.732317 29.703123 
L 114.501856 33.337068 
L 115.454617 38.986483 
L 116.627247 47.36652 
L 118.239614 60.669707 
L 125.312038 121.194604 
L 127.217562 134.570311 
L 129.013152 145.658643 
L 130.772097 155.175353 
L 132.531042 163.484935 
L 134.289987 170.725823 
L 136.048932 177.034644 
L 137.807877 182.53782 
L 139.603467 187.441667 
L 141.435701 191.809511 
L 143.30458 195.700507 
L 145.246748 199.231081 
L 147.225562 202.372257 
L 149.277664 205.218403 
L 151.403056 207.793056 
L 153.638382 210.155576 
L 155.983642 212.3144 
L 158.475481 214.307614 
L 161.150543 216.160174 
L 164.008828 217.867235 
L 167.086982 219.446355 
L 170.458293 220.92355 
L 174.159407 222.298951 
L 178.263612 223.58229 
L 182.844198 224.776414 
L 187.974454 225.880377 
L 193.837604 226.909255 
L 200.580227 227.860064 
L 208.385545 228.730502 
L 217.583362 229.526618 
L 228.613412 230.250699 
L 242.025368 230.900483 
L 258.735346 231.478591 
L 280.099198 231.985097 
L 308.352252 232.420794 
L 347.378845 232.786388 
L 404.581202 233.082916 
L 417.663355 233.128601 
L 417.663355 233.128601 
" style="fill:none;stroke:#008000;stroke-linecap:square;stroke-width:1.5;"/>
   </g>
   <g id="line2d_21">
    <path clip-path="url(#pd9e6cf836c)" d="M 51.253125 212.742045 
L 56.639894 210.827967 
L 61.623572 208.824047 
L 66.277447 206.716845 
L 70.674809 204.483194 
L 74.815659 202.131498 
L 78.736641 199.650095 
L 82.474399 197.021604 
L 86.028933 194.251475 
L 89.436889 191.315622 
L 92.734911 188.180623 
L 95.922999 184.841891 
L 99.001153 181.296962 
L 102.006017 177.497486 
L 104.937592 173.432972 
L 107.832522 169.036557 
L 110.690808 164.28584 
L 113.512449 159.159401 
L 116.297445 153.637831 
L 119.082442 147.622577 
L 121.904082 140.991905 
L 124.762368 133.69697 
L 127.693943 125.592297 
L 130.735452 116.517184 
L 133.996829 106.068235 
L 137.697943 93.435198 
L 143.194646 73.761904 
L 148.178323 56.209332 
L 150.96332 47.19597 
L 153.162001 40.797075 
L 155.03088 36.013524 
L 156.643246 32.464437 
L 158.072389 29.824099 
L 159.354953 27.894968 
L 160.527583 26.518339 
L 161.590279 25.603735 
L 162.543041 25.060335 
L 163.459158 24.788531 
L 164.338631 24.760677 
L 165.218103 24.961347 
L 166.13422 25.411949 
L 167.086982 26.138644 
L 168.113033 27.209202 
L 169.249019 28.731704 
L 170.494938 30.79058 
L 171.887436 33.542992 
L 173.426513 37.091947 
L 175.185458 41.723587 
L 177.237561 47.778668 
L 179.729399 55.857583 
L 183.137355 67.730203 
L 193.691025 104.992095 
L 197.172271 116.194212 
L 200.360358 125.713702 
L 203.401867 134.100472 
L 206.333442 141.542365 
L 209.228373 148.292584 
L 212.086658 154.403359 
L 214.944944 159.998924 
L 217.839874 165.179853 
L 220.734805 169.911097 
L 223.66638 174.283908 
L 226.671244 178.369339 
L 229.749398 182.178153 
L 232.900841 185.722767 
L 236.125573 189.016684 
L 239.46024 192.106357 
L 242.904841 194.997033 
L 246.49602 197.721952 
L 250.270423 200.305149 
L 254.228049 202.741848 
L 258.368899 205.030273 
L 262.766261 207.20545 
L 267.420137 209.259074 
L 272.403814 211.213597 
L 277.753938 213.070092 
L 283.507154 214.828247 
L 289.736751 216.496254 
L 296.516018 218.077414 
L 303.918245 219.571774 
L 312.053366 220.983405 
L 321.031314 222.312158 
L 331.035314 223.563989 
L 342.248588 224.738521 
L 354.891006 225.834878 
L 369.329012 226.858413 
L 385.929056 227.806472 
L 405.240806 228.680433 
L 417.663355 229.143263 
L 417.663355 229.143263 
" style="fill:none;stroke:#ffff00;stroke-linecap:square;stroke-width:1.5;"/>
   </g>
   <g id="line2d_22">
    <path clip-path="url(#pd9e6cf836c)" d="M 51.253125 222.424332 
L 62.94278 221.056122 
L 73.459806 219.604793 
L 82.95078 218.074351 
L 91.598926 216.457824 
L 99.514178 214.754747 
L 106.769827 212.969596 
L 113.475804 211.094286 
L 119.705401 209.124518 
L 125.531907 207.050909 
L 130.991965 204.872745 
L 136.122221 202.58769 
L 140.95932 200.191021 
L 145.539906 197.67476 
L 149.900624 195.026717 
L 154.078118 192.2294 
L 158.072389 189.287083 
L 161.920081 186.176044 
L 165.621195 182.898265 
L 169.212374 179.421358 
L 172.693619 175.743104 
L 176.101575 171.819552 
L 179.436242 167.642023 
L 182.734264 163.151679 
L 185.995641 158.330923 
L 189.220373 153.163715 
L 192.445106 147.570495 
L 195.669838 141.525904 
L 198.931216 134.931942 
L 202.229237 127.757415 
L 205.637193 119.804842 
L 209.228373 110.848239 
L 213.149354 100.451041 
L 217.80323 87.443237 
L 230.042555 52.860512 
L 232.937486 45.568317 
L 235.356035 40.059377 
L 237.444782 35.837305 
L 239.277017 32.61078 
L 240.926027 30.132502 
L 242.42846 28.254797 
L 243.820958 26.857787 
L 245.103522 25.875842 
L 246.312797 25.225684 
L 247.448782 24.863369 
L 248.548122 24.744366 
L 249.647463 24.853994 
L 250.746804 25.191533 
L 251.882789 25.777401 
L 253.092064 26.661297 
L 254.374628 27.884444 
L 255.767126 29.533283 
L 257.269558 31.668437 
L 258.918569 34.409431 
L 260.750803 37.900471 
L 262.802906 42.302968 
L 265.184811 47.964023 
L 268.006452 55.270288 
L 271.707565 65.517829 
L 286.585308 107.395518 
L 290.433 117.193798 
L 294.02418 125.737968 
L 297.46878 133.363925 
L 300.803447 140.215166 
L 304.101469 146.490274 
L 307.362846 152.22689 
L 310.660868 157.580175 
L 313.95889 162.512269 
L 317.293556 167.101782 
L 320.664867 171.36714 
L 324.109468 175.368433 
L 327.627358 179.115091 
L 331.218537 182.617898 
L 334.919651 185.919802 
L 338.767343 189.053415 
L 342.724969 191.990796 
L 346.865819 194.786545 
L 351.189892 197.435856 
L 355.697189 199.936585 
L 360.460998 202.323755 
L 365.48132 204.588969 
L 370.7948 206.741175 
L 376.438082 208.786208 
L 382.484455 210.73876 
L 388.970565 212.596939 
L 395.9697 214.367218 
L 403.518506 216.04429 
L 411.726916 217.637247 
L 417.663355 218.661454 
L 417.663355 218.661454 
" style="fill:none;stroke:#ffa500;stroke-linecap:square;stroke-width:1.5;"/>
   </g>
   <g id="line2d_23">
    <path clip-path="url(#pd9e6cf836c)" d="M 51.253125 233.630682 
L 272.587037 233.525924 
L 273.136708 233.193431 
L 273.759667 232.543852 
L 274.455917 231.481475 
L 275.2621 229.821931 
L 276.178217 227.404342 
L 277.240913 223.943796 
L 278.486832 219.087031 
L 279.989264 212.268028 
L 281.858143 202.678084 
L 284.606495 187.271261 
L 290.579579 153.566325 
L 293.291286 139.715754 
L 295.709835 128.48385 
L 298.018451 118.790108 
L 300.253777 110.336644 
L 302.452458 102.864264 
L 304.651139 96.16142 
L 306.84982 90.157018 
L 309.085146 84.695396 
L 311.320472 79.811353 
L 313.592443 75.371588 
L 315.901058 71.337974 
L 318.282963 67.619874 
L 320.738157 64.200177 
L 323.26664 61.060528 
L 325.868413 58.182017 
L 328.58012 55.511672 
L 331.401761 53.042237 
L 334.369981 50.7379 
L 337.521424 48.573993 
L 340.85609 46.555191 
L 344.410625 44.664058 
L 348.221672 42.889226 
L 352.362522 41.209853 
L 356.833174 39.639529 
L 361.706917 38.165184 
L 367.093687 36.771952 
L 373.030126 35.469696 
L 379.662814 34.246497 
L 387.101686 33.104947 
L 395.529964 32.040986 
L 405.167517 31.05337 
L 416.307502 30.140721 
L 417.663355 30.043224 
L 417.663355 30.043224 
" style="fill:none;stroke:#ff0000;stroke-linecap:square;stroke-width:1.5;"/>
   </g>
   <g id="line2d_24">
    <path clip-path="url(#pd9e6cf836c)" d="M 51.253125 129.1875 
L 60.649199 129.1875 
L 70.045272 129.1875 
L 79.441346 129.1875 
L 88.83742 129.1875 
L 98.233494 129.1875 
L 107.629567 129.1875 
L 117.025641 129.1875 
L 126.421715 129.1875 
L 135.817788 129.1875 
L 145.213862 129.1875 
L 154.609936 129.1875 
L 164.00601 129.1875 
L 173.402083 129.1875 
L 182.798157 129.1875 
L 192.194231 129.1875 
L 201.590304 129.1875 
L 210.986378 129.1875 
L 220.382452 129.1875 
L 229.778526 129.1875 
L 239.174599 129.1875 
L 248.570673 129.1875 
L 257.966747 129.1875 
L 267.362821 129.1875 
L 276.758894 129.1875 
L 286.154968 129.1875 
L 295.551042 129.1875 
L 304.947115 129.1875 
L 314.343189 129.1875 
L 323.739263 129.1875 
L 333.135337 129.1875 
L 342.53141 129.1875 
L 351.927484 129.1875 
L 361.323558 129.1875 
L 370.719631 129.1875 
L 380.115705 129.1875 
L 389.511779 129.1875 
L 398.907853 129.1875 
L 408.303926 129.1875 
L 417.7 129.1875 
" style="fill:none;stroke:#2f4f4f;stroke-dasharray:5.55,2.4;stroke-dashoffset:0;stroke-width:1.5;"/>
   </g>
   <g id="patch_3">
    <path d="M 51.253125 244.075 
L 51.253125 14.3 
" style="fill:none;stroke:#000000;stroke-linecap:square;stroke-linejoin:miter;stroke-width:0.8;"/>
   </g>
   <g id="patch_4">
    <path d="M 417.7 244.075 
L 417.7 14.3 
" style="fill:none;stroke:#000000;stroke-linecap:square;stroke-linejoin:miter;stroke-width:0.8;"/>
   </g>
   <g id="patch_5">
    <path d="M 51.253125 244.075 
L 417.7 244.075 
" style="fill:none;stroke:#000000;stroke-linecap:square;stroke-linejoin:miter;stroke-width:0.8;"/>
   </g>
   <g id="patch_6">
    <path d="M 51.253125 14.3 
L 417.7 14.3 
" style="fill:none;stroke:#000000;stroke-linecap:square;stroke-linejoin:miter;stroke-width:0.8;"/>
   </g>
   <g id="legend_1">
    <g id="patch_7">
     <path d="M 353.7 159.4375 
L 410.7 159.4375 
Q 412.7 159.4375 412.7 157.4375 
L 412.7 100.9375 
Q 412.7 98.9375 410.7 98.9375 
L 353.7 98.9375 
Q 351.7 98.9375 351.7 100.9375 
L 351.7 157.4375 
Q 351.7 159.4375 353.7 159.4375 
z
" style="fill:#ba55d3;opacity:0.8;stroke:#cccccc;stroke-linejoin:miter;"/>
    </g>
    <g id="line2d_25">
     <path d="M 355.7 107.5625 
L 375.7 107.5625 
" style="fill:none;stroke:#008000;stroke-linecap:square;stroke-width:1.5;"/>
    </g>
    <g id="line2d_26"/>
    <g id="text_22">
     <!-- 等级1 -->
     <defs>
      <path d="M 45.703125 53.90625 
Q 45.703125 56.640625 45.3125 61.71875 
L 53.90625 61.71875 
Q 53.515625 56.640625 53.515625 53.90625 
L 69.921875 53.90625 
Q 75.78125 53.90625 83.59375 54.296875 
L 83.59375 47.65625 
Q 76.171875 48.046875 70.3125 48.046875 
L 53.515625 48.046875 
L 53.515625 37.5 
L 81.640625 37.5 
Q 87.890625 37.5 95.703125 37.890625 
L 95.703125 30.859375 
Q 88.28125 31.25 81.640625 31.25 
L 73.4375 31.25 
L 73.4375 21.09375 
Q 83.203125 21.09375 89.84375 21.484375 
L 89.84375 14.453125 
Q 82.03125 14.84375 73.4375 14.84375 
L 73.4375 1.953125 
Q 73.828125 -5.078125 69.328125 -6.828125 
Q 64.84375 -8.59375 55.46875 -9.765625 
Q 54.6875 -5.078125 52.34375 -1.171875 
Q 58.984375 -1.5625 62.109375 -1.171875 
Q 65.234375 -0.78125 65.234375 4.296875 
L 65.234375 14.84375 
L 24.21875 14.84375 
Q 19.140625 14.84375 10.9375 14.453125 
L 10.9375 21.484375 
Q 18.75 21.09375 25.78125 21.09375 
L 65.234375 21.09375 
L 65.234375 31.25 
L 16.796875 31.25 
Q 11.71875 31.25 3.125 30.859375 
L 3.125 37.890625 
Q 11.71875 37.5 16.796875 37.5 
L 45.703125 37.5 
L 45.703125 48.046875 
L 30.078125 48.046875 
Q 24.609375 48.046875 16.40625 47.65625 
L 16.40625 54.296875 
Q 26.953125 53.90625 30.078125 53.90625 
z
M 28.515625 79.6875 
Q 26.171875 78.125 23.4375 73.828125 
L 37.5 73.828125 
Q 45.703125 73.828125 51.171875 74.21875 
L 51.171875 67.96875 
Q 46.875 68.359375 40.234375 68.359375 
L 35.546875 68.359375 
Q 37.5 65.234375 40.234375 60.15625 
Q 35.546875 58.59375 31.640625 57.421875 
Q 31.640625 58.203125 27.734375 68.359375 
L 20.703125 68.359375 
Q 17.578125 63.671875 11.71875 56.640625 
Q 8.203125 59.375 4.296875 60.9375 
Q 9.765625 65.234375 13.28125 70.703125 
Q 16.796875 76.171875 19.53125 82.8125 
Q 24.21875 80.859375 28.515625 79.6875 
z
M 57.8125 60.546875 
Q 54.6875 62.5 50.390625 63.671875 
Q 54.296875 66.796875 57.03125 71.484375 
Q 59.765625 76.171875 62.109375 82.03125 
Q 66.40625 80.46875 71.09375 78.90625 
Q 67.96875 76.171875 66.40625 73.4375 
L 82.421875 73.4375 
Q 85.15625 73.4375 95.703125 73.828125 
L 95.703125 67.578125 
Q 88.28125 67.96875 81.25 67.96875 
Q 85.546875 60.9375 87.5 58.203125 
Q 82.03125 57.03125 78.515625 55.859375 
Q 77.734375 59.375 73.4375 67.96875 
L 63.28125 67.96875 
Q 61.328125 64.84375 57.8125 60.546875 
z
M 40.234375 1.171875 
Q 36.71875 -0.78125 33.203125 -3.125 
Q 29.6875 3.515625 23.828125 9.765625 
Q 26.5625 11.328125 30.078125 14.0625 
Q 35.9375 7.8125 40.234375 1.171875 
z
" id="SimHei-7b49"/>
      <path d="M 83.59375 74.21875 
Q 80.078125 61.328125 76.5625 46.484375 
L 90.234375 46.484375 
Q 88.28125 36.328125 85.34375 27.34375 
Q 82.421875 18.359375 76.5625 8.984375 
Q 80.46875 5.078125 85.34375 1.75 
Q 90.234375 -1.5625 96.09375 -3.90625 
Q 91.796875 -7.421875 90.625 -10.9375 
Q 80.859375 -5.46875 71.875 3.90625 
Q 69.140625 1.171875 63.46875 -2.921875 
Q 57.8125 -7.03125 48.828125 -10.9375 
Q 46.875 -7.8125 43.359375 -5.46875 
Q 51.5625 -2.734375 57.421875 1.171875 
Q 63.28125 5.078125 67.578125 9.375 
Q 62.890625 14.84375 54.6875 30.46875 
Q 53.515625 21.875 48.828125 12.5 
Q 44.53125 2.734375 33.203125 -7.421875 
Q 30.859375 -5.46875 26.5625 -3.125 
Q 34.375 2.34375 39.453125 9.953125 
Q 44.53125 17.578125 46.671875 26.359375 
Q 48.828125 35.15625 49.21875 45.5 
Q 49.609375 55.859375 49.609375 67.96875 
Q 45.3125 67.96875 39.453125 67.578125 
L 39.453125 74.609375 
Q 46.484375 74.21875 58.203125 74.21875 
z
M 29.6875 75.78125 
Q 27.34375 72.65625 23.625 65.8125 
Q 19.921875 58.984375 14.0625 50.78125 
L 27.734375 51.5625 
Q 31.640625 57.8125 33.984375 64.453125 
Q 35.9375 62.890625 41.015625 59.765625 
Q 38.671875 55.859375 33.984375 48.4375 
Q 29.296875 41.015625 18.75 26.953125 
Q 30.46875 28.515625 37.5 29.6875 
Q 36.328125 25 36.328125 22.65625 
Q 32.421875 22.265625 24.40625 21.09375 
Q 16.40625 19.921875 8.984375 17.96875 
Q 7.8125 21.875 6.25 25 
Q 9.765625 26.953125 14.453125 31.828125 
Q 19.140625 36.71875 24.21875 45.3125 
Q 19.921875 44.921875 15.8125 44.53125 
Q 11.71875 44.140625 7.8125 42.578125 
Q 6.640625 46.09375 4.6875 50.78125 
Q 9.765625 53.90625 14.640625 62.890625 
Q 19.53125 71.875 21.875 80.078125 
Q 24.609375 78.125 29.6875 75.78125 
z
M 55.859375 48.828125 
Q 55.859375 46.09375 55.859375 43.359375 
Q 58.59375 36.328125 64.0625 27.34375 
Q 69.53125 17.96875 71.875 15.234375 
Q 78.515625 25.390625 81.640625 40.234375 
L 67.578125 40.234375 
Q 71.484375 53.125 74.21875 67.96875 
L 56.25 67.96875 
Q 56.25 58.59375 55.859375 48.828125 
z
M 37.109375 15.625 
Q 35.9375 11.71875 36.328125 8.59375 
Q 28.515625 6.640625 22.265625 4.875 
Q 16.015625 3.125 8.59375 0.78125 
Q 7.421875 4.6875 5.078125 8.203125 
Q 10.546875 9.375 17.375 10.734375 
Q 24.21875 12.109375 37.109375 15.625 
z
" id="SimHei-7ea7"/>
     </defs>
     <g transform="translate(383.7 111.0625)scale(0.1 -0.1)">
      <use xlink:href="#SimHei-7b49"/>
      <use x="100" xlink:href="#SimHei-7ea7"/>
      <use x="200" xlink:href="#SimHei-31"/>
     </g>
    </g>
    <g id="line2d_27">
     <path d="M 355.7 121.9375 
L 375.7 121.9375 
" style="fill:none;stroke:#ffff00;stroke-linecap:square;stroke-width:1.5;"/>
    </g>
    <g id="line2d_28"/>
    <g id="text_23">
     <!-- 等级2 -->
     <g transform="translate(383.7 125.4375)scale(0.1 -0.1)">
      <use xlink:href="#SimHei-7b49"/>
      <use x="100" xlink:href="#SimHei-7ea7"/>
      <use x="200" xlink:href="#SimHei-32"/>
     </g>
    </g>
    <g id="line2d_29">
     <path d="M 355.7 136.3125 
L 375.7 136.3125 
" style="fill:none;stroke:#ffa500;stroke-linecap:square;stroke-width:1.5;"/>
    </g>
    <g id="line2d_30"/>
    <g id="text_24">
     <!-- 等级3 -->
     <g transform="translate(383.7 139.8125)scale(0.1 -0.1)">
      <use xlink:href="#SimHei-7b49"/>
      <use x="100" xlink:href="#SimHei-7ea7"/>
      <use x="200" xlink:href="#SimHei-33"/>
     </g>
    </g>
    <g id="line2d_31">
     <path d="M 355.7 150.6875 
L 375.7 150.6875 
" style="fill:none;stroke:#ff0000;stroke-linecap:square;stroke-width:1.5;"/>
    </g>
    <g id="line2d_32"/>
    <g id="text_25">
     <!-- 等级4 -->
     <g transform="translate(383.7 154.1875)scale(0.1 -0.1)">
      <use xlink:href="#SimHei-7b49"/>
      <use x="100" xlink:href="#SimHei-7ea7"/>
      <use x="200" xlink:href="#SimHei-34"/>
     </g>
    </g>
   </g>
  </g>
 </g>
 <defs>
  <clipPath id="pd9e6cf836c">
   <rect height="229.775" width="366.446875" x="51.253125" y="14.3"/>
  </clipPath>
 </defs>
</svg>
